<svg xmlns="http://www.w3.org/2000/svg" xmlns:xlink="http://www.w3.org/1999/xlink" width="500" zoomAndPan="magnify" viewBox="0 0 375 374.999991" height="500" preserveAspectRatio="xMidYMid meet" version="1.0"><defs><g/></defs><g fill="#4120a9" fill-opacity="1"><g transform="translate(43.583017, 328.626886)"><g><path d="M 66.238281 -121.679688 C 66.058594 -121.5 65.699219 -121.140625 65.699219 -120.960938 C 65.699219 -120.601562 66.058594 -120.421875 66.238281 -120.421875 C 66.601562 -120.421875 66.78125 -120.78125 66.78125 -121.140625 C 66.78125 -121.679688 66.601562 -121.859375 66.238281 -121.679688 Z M 70.019531 -139.5 C 71.460938 -143.28125 71.460938 -143.640625 69.480469 -142.199219 C 68.578125 -141.480469 67.679688 -140.039062 67.140625 -138.601562 L 66.421875 -136.261719 L 67.679688 -136.441406 C 68.761719 -136.441406 69.300781 -136.980469 70.019531 -139.5 Z M 96.660156 -199.441406 C 96.660156 -199.261719 97.019531 -199.261719 97.378906 -199.980469 C 97.738281 -200.519531 98.101562 -201.058594 97.921875 -201.421875 C 97.558594 -201.601562 96.660156 -200.339844 96.660156 -199.441406 Z M 157.679688 -108 C 157.320312 -107.640625 157.5 -107.101562 157.679688 -107.101562 C 158.039062 -107.101562 158.21875 -107.640625 158.21875 -108 C 158.21875 -108.359375 158.21875 -108.898438 158.039062 -108.898438 C 158.039062 -108.898438 157.679688 -108.359375 157.679688 -108 Z M 157.140625 -113.21875 C 157.140625 -112.320312 157.320312 -111.960938 157.859375 -112.5 C 158.398438 -113.039062 158.398438 -113.398438 157.859375 -113.941406 C 157.320312 -114.480469 157.140625 -114.121094 157.140625 -113.21875 Z M 156.421875 -104.578125 C 156.238281 -103.859375 156.238281 -103.320312 156.601562 -103.320312 C 157.140625 -103.320312 158.039062 -105.480469 157.5 -106.019531 C 157.140625 -106.378906 156.960938 -106.019531 156.421875 -104.578125 Z M 130.5 -128.519531 C 130.140625 -129.058594 129.058594 -128.878906 129.058594 -128.339844 C 129.058594 -128.160156 129.421875 -127.980469 129.960938 -127.980469 C 130.5 -127.980469 130.5 -128.339844 130.5 -128.519531 Z M 126.179688 -125.28125 C 127.980469 -125.460938 129.960938 -125.640625 130.5 -125.820312 C 131.21875 -125.820312 131.398438 -126 130.859375 -126.539062 C 130.320312 -127.078125 129.78125 -127.078125 128.519531 -126.539062 C 127.800781 -126.179688 126.71875 -126 126.539062 -126.359375 C 126 -127.078125 123.121094 -126.359375 123.121094 -125.460938 C 123.121094 -125.101562 123.839844 -124.921875 126.179688 -125.28125 Z M 160.738281 -114.839844 C 160.921875 -115.199219 160.921875 -115.738281 160.738281 -115.921875 C 160.378906 -116.640625 159.300781 -115.738281 159.300781 -114.660156 C 159.300781 -114.121094 160.378906 -114.121094 160.738281 -114.839844 Z M 123.839844 -127.261719 C 124.921875 -127.800781 124.921875 -127.980469 123.839844 -127.980469 C 123.480469 -127.980469 123.121094 -127.800781 123.121094 -127.441406 C 123.121094 -127.261719 123.480469 -127.078125 123.839844 -127.261719 Z M 151.738281 -88.199219 C 151.558594 -88.199219 151.199219 -87.839844 151.199219 -87.660156 C 151.199219 -87.660156 151.558594 -87.480469 151.738281 -87.480469 C 152.101562 -87.480469 152.28125 -87.660156 152.28125 -88.019531 C 152.28125 -88.378906 152.101562 -88.378906 151.738281 -88.199219 Z M 238.5 -287.101562 C 235.261719 -288.359375 229.320312 -289.078125 228.238281 -288.539062 C 227.699219 -288.179688 226.980469 -288 226.621094 -287.820312 C 225.898438 -287.640625 225.359375 -286.378906 224.820312 -285.121094 C 224.460938 -283.859375 223.738281 -282.058594 223.199219 -281.339844 C 222.660156 -280.621094 222.300781 -279.71875 222.480469 -279.539062 C 223.199219 -279 222.121094 -276.121094 220.859375 -274.5 L 219.421875 -272.878906 L 219.421875 -274.320312 C 219.421875 -275.21875 219.960938 -276.660156 220.859375 -277.378906 C 222.300781 -279.359375 222.480469 -279.71875 221.578125 -279.71875 C 220.859375 -279.71875 216.71875 -273.78125 216 -271.800781 C 215.640625 -271.078125 215.640625 -270.898438 216.179688 -271.078125 C 218.878906 -272.160156 219.058594 -272.160156 218.699219 -271.621094 C 218.519531 -271.261719 218.519531 -270.898438 218.878906 -270.898438 C 219.960938 -270.898438 219.601562 -270.179688 217.261719 -264.78125 C 215.820312 -262.078125 214.019531 -258.300781 213.300781 -256.5 C 211.320312 -252 205.378906 -238.5 205.378906 -238.140625 C 205.378906 -237.960938 205.738281 -238.320312 206.28125 -238.859375 C 207.359375 -240.121094 209.699219 -244.621094 211.140625 -248.21875 C 211.679688 -249.480469 212.21875 -250.199219 212.398438 -249.660156 C 212.398438 -249.300781 212.039062 -247.859375 211.320312 -246.421875 C 210.78125 -244.980469 209.699219 -243 209.160156 -241.921875 C 208.800781 -240.839844 208.078125 -239.761719 207.71875 -239.398438 C 207.359375 -238.859375 207 -238.320312 207 -238.140625 C 207 -237.058594 207.898438 -237.601562 209.160156 -239.039062 L 210.421875 -240.480469 L 209.160156 -238.5 C 208.621094 -237.238281 208.261719 -236.160156 208.441406 -235.980469 C 208.441406 -235.621094 208.261719 -235.441406 207.71875 -235.441406 C 207 -235.441406 206.820312 -234.898438 206.820312 -233.28125 C 206.640625 -232.199219 206.28125 -231.300781 206.101562 -231.121094 C 205.738281 -230.941406 205.378906 -230.398438 205.378906 -230.039062 C 205.378906 -229.5 204.660156 -227.699219 203.761719 -225.898438 C 202.859375 -224.101562 202.140625 -222.300781 202.320312 -221.761719 C 202.5 -221.039062 202.5 -221.039062 203.039062 -221.941406 C 203.21875 -222.480469 203.578125 -223.199219 203.761719 -223.378906 C 204.300781 -223.738281 209.160156 -234 209.160156 -234.71875 C 209.160156 -235.078125 209.519531 -235.800781 209.699219 -236.339844 C 212.578125 -241.738281 213.300781 -244.621094 211.320312 -243.359375 C 210.960938 -243 210.78125 -243.179688 210.960938 -243.539062 C 211.140625 -243.898438 211.859375 -244.621094 212.398438 -244.621094 C 213.839844 -244.980469 214.199219 -245.699219 216.898438 -252 C 217.800781 -253.621094 218.519531 -255.058594 218.878906 -255.421875 C 219.238281 -255.421875 219.421875 -255.601562 219.421875 -255.421875 C 219.421875 -255.238281 217.261719 -249.480469 216.71875 -248.578125 C 214.921875 -245.160156 212.578125 -238.679688 213.300781 -238.679688 C 213.480469 -238.679688 214.738281 -241.199219 216.179688 -244.621094 C 217.800781 -247.859375 219.960938 -252.359375 221.039062 -254.878906 C 222.300781 -257.21875 223.378906 -259.921875 223.738281 -260.820312 C 224.820312 -263.339844 225 -262.078125 224.101562 -259.378906 C 222.660156 -255.421875 218.519531 -245.699219 213.660156 -235.441406 C 212.21875 -232.199219 210.058594 -227.519531 208.980469 -225 C 207.898438 -222.300781 206.28125 -218.519531 205.199219 -216.539062 C 204.300781 -214.378906 203.398438 -211.859375 203.039062 -210.960938 C 202.140625 -209.160156 198.179688 -199.261719 196.921875 -195.660156 C 195.660156 -192.238281 194.21875 -188.460938 192.601562 -185.398438 C 192.238281 -184.320312 191.878906 -183.238281 191.878906 -183.058594 C 191.878906 -182.699219 191.519531 -181.800781 190.980469 -180.71875 C 186.660156 -170.640625 185.039062 -166.140625 184.679688 -164.339844 C 184.679688 -163.800781 184.320312 -163.078125 183.960938 -162.71875 C 183.421875 -162.179688 183.238281 -161.460938 183.238281 -160.921875 C 183.238281 -160.378906 182.878906 -159.660156 182.699219 -159.480469 C 182.339844 -159.300781 182.339844 -158.941406 182.339844 -158.761719 C 182.699219 -158.21875 182.519531 -157.679688 182.339844 -157.5 C 181.980469 -156.960938 181.261719 -154.980469 180.539062 -153 C 179.820312 -150.839844 179.101562 -148.859375 178.921875 -148.5 C 178.738281 -148.320312 178.199219 -146.878906 177.839844 -145.441406 C 177.480469 -144.179688 176.941406 -142.738281 176.578125 -142.558594 C 176.21875 -142.199219 176.21875 -141.300781 176.21875 -140.398438 C 176.21875 -139.679688 175.859375 -138.78125 175.679688 -138.601562 C 175.320312 -138.601562 175.140625 -137.519531 175.140625 -136.800781 C 175.140625 -135.539062 174.78125 -135 173.878906 -134.640625 C 173.160156 -134.460938 172.441406 -134.28125 171.898438 -134.460938 C 171.539062 -134.640625 171.359375 -134.460938 171.359375 -134.101562 C 171.359375 -133.921875 171.71875 -133.558594 172.078125 -133.199219 C 172.621094 -133.019531 172.800781 -132.660156 172.621094 -132.300781 C 172.078125 -131.578125 171.359375 -131.761719 171.359375 -132.660156 C 171.359375 -133.019531 170.820312 -133.738281 170.28125 -134.101562 C 169.199219 -134.640625 169.199219 -134.640625 170.28125 -137.519531 C 170.820312 -139.140625 171.898438 -141.300781 172.441406 -142.378906 C 172.980469 -143.640625 173.519531 -144.898438 173.519531 -145.261719 C 173.519531 -145.621094 174.058594 -147.78125 175.140625 -149.761719 C 175.859375 -151.921875 176.398438 -154.078125 176.21875 -154.800781 C 176.21875 -155.339844 176.578125 -156.421875 177.300781 -157.320312 C 177.839844 -158.039062 178.378906 -159.300781 178.378906 -159.839844 C 178.378906 -160.558594 178.921875 -162.179688 179.640625 -163.800781 C 180.359375 -165.421875 181.441406 -167.941406 181.800781 -169.738281 C 182.339844 -171.539062 182.878906 -172.980469 183.238281 -172.980469 C 183.421875 -172.980469 183.78125 -173.339844 183.78125 -173.878906 C 183.78125 -175.320312 185.761719 -181.078125 187.199219 -183.601562 C 188.101562 -184.859375 188.640625 -186.300781 188.640625 -187.019531 C 188.640625 -187.558594 188.820312 -188.28125 189.359375 -188.460938 C 189.898438 -188.460938 190.261719 -189.539062 190.441406 -190.800781 C 190.621094 -191.878906 190.980469 -193.140625 191.339844 -193.5 C 192.058594 -194.398438 192.058594 -196.558594 191.519531 -196.921875 C 190.980469 -197.101562 190.800781 -196.738281 190.621094 -196.199219 C 190.621094 -195.839844 190.621094 -195.121094 190.441406 -194.761719 C 190.441406 -194.21875 190.441406 -193.859375 190.261719 -193.679688 C 190.078125 -193.679688 189.359375 -192.058594 188.640625 -190.441406 C 187.921875 -188.820312 187.199219 -186.660156 186.660156 -185.761719 C 186.300781 -184.859375 185.761719 -183.238281 185.398438 -182.160156 C 185.039062 -180.898438 184.5 -179.28125 183.960938 -178.558594 C 183.601562 -177.660156 183.238281 -176.761719 183.238281 -176.398438 C 183.238281 -176.039062 182.878906 -175.5 182.339844 -174.960938 C 181.441406 -174.421875 181.441406 -174.421875 181.800781 -175.320312 C 181.980469 -175.859375 181.800781 -176.21875 181.800781 -176.21875 C 181.441406 -176.21875 180.898438 -175.140625 180.359375 -173.699219 C 179.460938 -171.359375 180.179688 -170.640625 181.078125 -172.980469 C 181.441406 -174.058594 181.621094 -174.058594 181.621094 -173.339844 C 181.621094 -171.539062 178.921875 -165.238281 178.019531 -165.601562 C 177.660156 -165.78125 177.300781 -165.421875 176.941406 -165.058594 C 176.941406 -164.339844 176.941406 -164.160156 177.480469 -164.339844 C 178.199219 -164.519531 178.378906 -164.339844 178.199219 -163.800781 C 178.019531 -163.441406 177.300781 -161.28125 176.761719 -159.121094 C 176.039062 -156.960938 175.320312 -154.800781 175.140625 -154.621094 C 174.78125 -154.261719 174.421875 -153.179688 174.058594 -152.101562 C 173.699219 -150.660156 173.339844 -150.121094 172.621094 -150.300781 C 171.898438 -150.300781 171.898438 -150.300781 172.261719 -150.121094 C 173.160156 -149.578125 172.980469 -148.320312 172.078125 -148.5 C 171.71875 -148.859375 171.359375 -148.679688 171 -148.320312 C 170.820312 -147.960938 171.179688 -147.78125 171.539062 -147.78125 C 172.621094 -147.78125 172.800781 -148.140625 169.738281 -139.859375 C 167.761719 -133.921875 166.5 -131.761719 167.941406 -136.800781 C 168.300781 -138.421875 168.660156 -139.859375 168.480469 -139.859375 C 168.121094 -140.398438 166.5 -136.621094 166.5 -135.179688 C 166.5 -134.640625 166.140625 -134.101562 165.960938 -134.101562 C 165.601562 -134.101562 165.421875 -134.640625 165.601562 -135.359375 C 166.140625 -137.519531 164.878906 -136.980469 164.160156 -135 C 163.441406 -133.378906 163.078125 -133.199219 161.101562 -133.019531 C 158.21875 -132.839844 154.078125 -131.761719 154.980469 -131.21875 C 155.339844 -131.21875 157.140625 -131.21875 159.300781 -131.21875 C 163.261719 -131.761719 164.519531 -131.578125 161.101562 -131.039062 C 160.019531 -130.859375 158.761719 -130.5 158.21875 -130.320312 C 157.859375 -130.140625 156.421875 -129.960938 154.980469 -129.960938 C 153.71875 -129.960938 152.460938 -129.601562 152.28125 -129.421875 C 152.101562 -128.878906 159.300781 -128.878906 161.101562 -129.421875 C 161.640625 -129.601562 162.179688 -129.421875 162.179688 -129.058594 C 162.179688 -128.878906 162 -128.519531 161.640625 -128.519531 C 161.460938 -128.519531 157.679688 -127.980469 153.359375 -127.441406 C 149.039062 -126.898438 142.019531 -126 137.699219 -125.460938 C 133.378906 -125.101562 128.878906 -124.378906 127.441406 -124.199219 C 126.179688 -123.839844 120.058594 -122.941406 114.121094 -122.21875 C 108.179688 -121.5 101.878906 -120.601562 100.078125 -120.421875 C 93.421875 -119.160156 89.101562 -118.621094 86.578125 -118.441406 C 85.140625 -118.261719 82.980469 -118.078125 81.898438 -117.898438 C 79.558594 -117.539062 79.199219 -117.898438 81.179688 -118.621094 C 82.441406 -119.160156 82.980469 -120.421875 81.898438 -120.421875 C 80.28125 -120.421875 82.980469 -121.320312 85.320312 -121.679688 C 88.558594 -122.039062 89.460938 -123.121094 86.21875 -122.761719 C 84.960938 -122.578125 83.339844 -122.398438 82.800781 -122.039062 C 81.898438 -121.859375 81.898438 -122.039062 82.441406 -122.578125 C 82.980469 -123.121094 82.980469 -124.199219 82.800781 -125.28125 C 82.441406 -126.359375 82.621094 -126.898438 82.980469 -126.898438 C 83.339844 -126.898438 83.519531 -127.441406 83.519531 -127.980469 C 83.519531 -128.519531 83.878906 -129.058594 84.058594 -129.058594 C 84.601562 -129.058594 84.601562 -129.421875 84.421875 -130.140625 C 84.238281 -130.679688 84.601562 -131.398438 85.140625 -131.941406 C 85.679688 -132.660156 86.039062 -133.558594 86.039062 -134.640625 C 85.859375 -135.71875 86.21875 -136.800781 86.398438 -137.160156 C 86.761719 -137.519531 86.761719 -138.058594 86.578125 -138.238281 C 86.21875 -138.601562 86.039062 -138.421875 85.859375 -138.058594 C 85.679688 -137.160156 84.601562 -136.980469 84.601562 -137.878906 C 84.601562 -138.058594 85.140625 -138.601562 86.039062 -139.140625 C 87.300781 -139.859375 90.898438 -145.980469 90 -146.339844 C 89.460938 -146.699219 88.738281 -145.621094 87.839844 -143.640625 C 87.480469 -142.738281 87.121094 -142.199219 86.941406 -142.738281 C 86.761719 -143.101562 87.300781 -144.539062 87.839844 -145.980469 C 88.558594 -147.238281 89.28125 -148.140625 89.460938 -147.78125 C 89.640625 -146.878906 91.621094 -147.058594 91.800781 -147.78125 C 91.980469 -149.039062 92.160156 -149.578125 92.519531 -150.660156 C 92.699219 -151.199219 92.699219 -151.738281 92.519531 -151.921875 C 92.339844 -152.101562 92.699219 -152.820312 93.238281 -153.359375 C 93.601562 -153.898438 93.78125 -154.441406 93.78125 -154.621094 C 93.421875 -154.800781 93.78125 -155.699219 94.320312 -156.421875 C 95.039062 -157.140625 95.578125 -158.398438 95.578125 -159.300781 C 95.578125 -160.199219 95.941406 -161.28125 96.300781 -161.820312 C 96.660156 -162.179688 97.199219 -163.078125 97.199219 -163.621094 C 97.199219 -164.339844 97.378906 -164.699219 97.738281 -164.699219 C 98.28125 -164.699219 100.078125 -168.480469 100.621094 -170.820312 C 100.980469 -171.898438 101.519531 -173.339844 102.058594 -174.058594 C 102.601562 -174.78125 103.140625 -175.859375 103.140625 -176.398438 C 103.140625 -177.660156 104.761719 -181.621094 105.300781 -181.621094 C 105.480469 -181.621094 106.019531 -182.699219 106.378906 -183.960938 C 106.738281 -185.21875 107.640625 -187.921875 108.539062 -189.539062 C 113.21875 -199.800781 113.941406 -201.421875 113.578125 -201.960938 C 113.578125 -202.140625 113.761719 -202.5 114.121094 -202.679688 C 114.660156 -202.859375 115.019531 -203.398438 115.019531 -204.121094 C 115.019531 -204.660156 115.199219 -205.199219 115.378906 -205.199219 C 115.738281 -205.199219 118.441406 -210.238281 120.238281 -214.558594 C 122.761719 -219.960938 125.820312 -226.621094 126.359375 -226.800781 C 126.539062 -226.980469 126.898438 -227.699219 126.898438 -228.238281 C 126.898438 -228.78125 127.261719 -229.5 127.800781 -229.859375 C 128.160156 -230.21875 130.5 -234.539062 132.839844 -239.398438 C 136.980469 -248.039062 137.160156 -248.578125 136.621094 -250.199219 C 136.441406 -251.28125 135.898438 -252.539062 135.359375 -252.898438 C 134.640625 -253.800781 131.21875 -255.601562 129.960938 -255.601562 C 129.601562 -255.601562 129.058594 -255.960938 128.699219 -256.320312 C 127.621094 -257.21875 119.339844 -258.480469 117.71875 -257.761719 C 115.019531 -256.5 114.660156 -256.320312 114.660156 -255.421875 C 114.480469 -254.878906 113.578125 -253.078125 112.5 -251.460938 C 111.421875 -250.019531 110.699219 -248.578125 110.699219 -248.21875 C 110.699219 -247.859375 110.160156 -247.320312 109.800781 -246.78125 C 109.441406 -246.601562 108.359375 -244.980469 107.460938 -243.359375 C 106.378906 -241.558594 105.300781 -239.941406 104.398438 -239.761719 C 103.679688 -239.398438 103.140625 -239.039062 103.140625 -238.859375 C 103.140625 -238.859375 102.960938 -238.320312 102.78125 -237.960938 C 102.058594 -236.339844 104.761719 -237.421875 106.738281 -239.398438 L 108.539062 -241.738281 L 106.738281 -238.859375 C 105.839844 -237.421875 104.761719 -235.980469 104.761719 -235.980469 C 104.21875 -235.441406 104.398438 -234 104.761719 -233.640625 C 105.121094 -233.460938 104.398438 -231.660156 100.078125 -222.480469 C 96.839844 -215.820312 90.539062 -201.960938 90.539062 -201.601562 C 90.539062 -201.601562 89.460938 -198.898438 88.019531 -195.839844 C 83.878906 -187.019531 83.519531 -185.941406 77.941406 -172.261719 C 72.179688 -158.398438 67.140625 -145.441406 64.441406 -137.339844 C 63.359375 -134.460938 61.378906 -128.878906 59.941406 -124.921875 C 58.679688 -121.140625 57.601562 -117.898438 57.601562 -117.71875 C 57.601562 -117.71875 57.238281 -117.539062 56.878906 -117.539062 C 56.519531 -117.539062 55.261719 -117.359375 54.179688 -117 C 51.839844 -116.28125 51.839844 -115.199219 54.179688 -115.738281 C 55.078125 -115.738281 55.441406 -115.738281 55.078125 -115.378906 C 55.078125 -115.199219 54.179688 -114.839844 53.28125 -114.839844 C 52.378906 -114.839844 51.660156 -114.660156 51.300781 -114.480469 C 51.300781 -114.121094 50.398438 -114.121094 49.859375 -113.941406 C 48.058594 -113.761719 45.71875 -113.21875 43.199219 -112.320312 C 40.140625 -111.238281 33.121094 -109.800781 32.761719 -110.160156 C 32.761719 -110.339844 33.300781 -110.519531 34.199219 -110.699219 C 37.800781 -111.78125 41.398438 -112.859375 41.578125 -113.21875 C 41.761719 -113.398438 42.300781 -113.398438 43.019531 -113.398438 C 43.558594 -113.21875 44.820312 -113.398438 45.539062 -114.121094 C 46.441406 -114.480469 48.058594 -114.839844 49.140625 -114.839844 C 50.761719 -114.839844 52.199219 -115.738281 51.480469 -116.28125 C 51.300781 -116.28125 31.140625 -111.421875 26.460938 -109.980469 C 25.558594 -109.621094 23.398438 -109.078125 21.601562 -108.539062 C 17.640625 -107.460938 9.898438 -105.121094 6.660156 -104.039062 C 5.398438 -103.679688 2.878906 -102.960938 1.261719 -102.601562 L -1.621094 -101.878906 L -1.621094 -99 C -1.441406 -95.21875 -0.539062 -91.441406 0.539062 -91.078125 C 1.078125 -90.898438 1.261719 -90.539062 1.261719 -90.179688 C 1.261719 -89.820312 2.160156 -88.558594 3.238281 -87.121094 C 5.578125 -84.421875 7.921875 -83.699219 9.71875 -85.140625 C 10.800781 -86.039062 12.421875 -87.121094 14.578125 -87.660156 C 17.640625 -88.921875 28.441406 -91.261719 29.699219 -91.261719 C 30.601562 -91.261719 33.300781 -91.800781 35.640625 -92.160156 C 38.160156 -92.699219 41.761719 -93.421875 44.101562 -93.78125 C 46.261719 -94.140625 48.601562 -94.679688 49.140625 -94.859375 C 50.398438 -95.21875 50.21875 -94.859375 48.238281 -87.839844 C 41.761719 -65.339844 36.898438 -45 35.460938 -33.839844 C 34.921875 -31.140625 34.738281 -28.980469 34.558594 -28.800781 C 33.839844 -27.71875 34.378906 -14.21875 35.101562 -11.699219 C 35.460938 -10.261719 35.820312 -8.820312 35.640625 -8.640625 C 35.101562 -7.738281 36.898438 -5.039062 39.058594 -3.421875 C 44.820312 1.261719 47.878906 2.878906 50.039062 2.878906 C 50.761719 2.878906 51.660156 3.238281 52.019531 3.238281 C 52.378906 3.601562 53.820312 3.78125 55.078125 3.78125 C 57.058594 3.960938 57.601562 3.78125 58.320312 2.878906 C 59.21875 1.621094 58.859375 0.359375 57.421875 -1.261719 C 56.160156 -2.699219 56.160156 -2.699219 61.378906 -10.078125 C 66.058594 -16.738281 67.5 -19.261719 72.71875 -29.160156 C 77.21875 -37.621094 79.738281 -43.921875 81.179688 -50.039062 C 82.078125 -54.179688 82.078125 -54 81.359375 -54 C 81.179688 -54 80.820312 -53.460938 80.460938 -52.558594 C 79.558594 -50.039062 79.738281 -52.378906 80.820312 -56.519531 C 81.359375 -58.5 81.898438 -59.761719 81.898438 -59.21875 C 81.898438 -58.5 82.441406 -59.039062 82.800781 -60.480469 C 83.339844 -62.460938 83.519531 -63.179688 82.980469 -64.261719 C 82.441406 -65.339844 82.441406 -65.699219 82.980469 -66.058594 C 83.519531 -66.601562 83.519531 -66.601562 82.980469 -67.320312 C 82.441406 -67.859375 81.898438 -69.839844 81.71875 -72.71875 C 80.820312 -82.980469 78.300781 -88.558594 72 -94.5 C 70.378906 -96.300781 70.378906 -96.300781 71.28125 -97.921875 C 71.820312 -98.640625 72.179688 -99.898438 72.179688 -100.441406 C 72.179688 -101.519531 72.359375 -101.519531 73.078125 -100.261719 C 73.621094 -99.539062 73.800781 -99.539062 73.800781 -100.261719 C 73.800781 -100.621094 74.339844 -101.519531 75.058594 -101.878906 C 76.320312 -102.601562 76.320312 -102.78125 75.238281 -103.679688 C 74.699219 -104.398438 74.339844 -104.398438 74.339844 -104.039062 C 74.339844 -103.679688 74.160156 -103.320312 73.800781 -103.320312 C 73.441406 -103.320312 73.261719 -103.679688 73.441406 -103.859375 C 73.621094 -104.578125 79.199219 -106.558594 79.921875 -106.378906 C 80.101562 -106.199219 81.359375 -106.378906 82.980469 -106.558594 C 85.679688 -107.28125 86.398438 -107.460938 91.078125 -108 C 92.699219 -108.179688 97.019531 -108.898438 100.441406 -109.621094 C 104.21875 -110.519531 108 -111.058594 109.078125 -111.058594 C 111.058594 -111.058594 116.101562 -111.78125 117.71875 -112.5 C 118.078125 -112.679688 120.058594 -112.859375 122.039062 -112.859375 C 123.839844 -112.859375 127.980469 -113.578125 131.039062 -114.300781 C 133.921875 -114.839844 136.621094 -115.378906 136.980469 -115.378906 C 138.058594 -115.199219 138.78125 -115.378906 138.78125 -115.921875 C 138.78125 -116.28125 138.601562 -116.28125 138.238281 -116.28125 C 138.058594 -116.101562 137.699219 -116.101562 137.519531 -116.28125 C 137.339844 -116.640625 135.898438 -116.640625 134.460938 -116.28125 C 133.019531 -116.101562 131.578125 -115.921875 131.398438 -116.101562 C 130.679688 -116.820312 131.761719 -117.179688 135.179688 -117.359375 C 137.519531 -117.359375 138.601562 -117.179688 139.140625 -116.640625 C 139.679688 -115.738281 143.101562 -115.199219 143.101562 -115.921875 C 143.101562 -116.28125 144.898438 -116.28125 147.058594 -116.28125 C 151.738281 -116.28125 157.679688 -117.898438 157.679688 -119.160156 C 157.5 -119.699219 158.039062 -120.058594 159.300781 -120.058594 C 160.199219 -120.058594 161.101562 -119.878906 161.101562 -119.699219 C 161.101562 -119.339844 160.378906 -119.160156 159.839844 -119.160156 C 159.300781 -119.160156 158.761719 -118.980469 158.761719 -118.621094 C 158.761719 -118.078125 161.640625 -118.621094 162.179688 -119.519531 C 162.898438 -120.601562 163.261719 -119.160156 162.71875 -118.078125 C 162.359375 -117.359375 162 -116.101562 161.820312 -115.199219 C 161.820312 -114.480469 161.460938 -113.398438 161.101562 -113.039062 C 160.738281 -112.679688 160.378906 -111.960938 160.378906 -111.421875 C 160.378906 -110.878906 160.199219 -109.441406 159.839844 -108.359375 C 159.121094 -106.738281 156.601562 -98.460938 155.878906 -95.761719 C 155.699219 -95.398438 155.160156 -95.21875 154.621094 -95.21875 C 154.078125 -95.398438 153.71875 -95.039062 153.539062 -94.320312 C 153.359375 -93.601562 153.539062 -93.421875 154.261719 -93.601562 C 154.980469 -93.960938 154.980469 -93.78125 154.800781 -93.058594 C 154.621094 -92.519531 154.261719 -91.078125 153.898438 -89.640625 C 153 -85.679688 153 -85.679688 152.28125 -86.398438 C 151.558594 -86.761719 151.199219 -86.578125 150.839844 -85.5 C 150.480469 -84.78125 150.480469 -84.058594 150.660156 -83.878906 C 151.019531 -83.699219 151.019531 -83.160156 150.480469 -82.800781 C 150.121094 -82.441406 149.578125 -80.820312 149.398438 -79.378906 C 149.039062 -77.039062 147.960938 -72.898438 147.058594 -70.558594 C 146.878906 -70.019531 146.878906 -69.480469 146.699219 -69.121094 C 146.339844 -66.601562 145.800781 -65.160156 145.078125 -65.339844 C 144.71875 -65.519531 144.179688 -65.339844 144.179688 -65.160156 C 144.179688 -64.800781 144.539062 -64.441406 144.71875 -64.261719 C 145.078125 -64.261719 144 -59.21875 142.738281 -56.160156 C 142.558594 -55.800781 142.378906 -55.261719 142.378906 -55.078125 C 142.558594 -54.71875 142.378906 -54.539062 142.019531 -54.539062 C 141.839844 -54.539062 141.660156 -54 141.480469 -53.101562 C 141.300781 -46.621094 141.300781 -46.078125 140.578125 -46.261719 C 140.21875 -46.441406 139.859375 -46.078125 139.859375 -45.898438 C 139.859375 -45.539062 140.039062 -45.359375 140.21875 -45.359375 C 140.761719 -45.359375 140.761719 -41.941406 140.21875 -40.859375 C 139.859375 -40.5 139.679688 -39.058594 139.679688 -37.980469 C 139.5 -34.738281 138.78125 -32.761719 138.238281 -33.839844 C 137.878906 -34.558594 137.699219 -34.378906 137.699219 -33.300781 C 137.699219 -32.761719 138.058594 -32.21875 138.238281 -32.21875 C 138.601562 -32.21875 138.78125 -31.679688 138.78125 -31.320312 C 138.78125 -30.960938 138.421875 -30.421875 138.058594 -30.421875 C 137.519531 -30.421875 137.160156 -30.238281 137.160156 -29.878906 C 137.160156 -29.339844 136.980469 -28.261719 136.800781 -27.179688 C 136.441406 -25.921875 136.621094 -25.558594 136.980469 -25.921875 C 138.058594 -26.28125 137.878906 -25.378906 136.980469 -24.660156 C 136.078125 -23.578125 136.261719 -14.398438 137.339844 -11.519531 C 137.878906 -10.261719 138.058594 -8.820312 138.058594 -8.101562 C 137.699219 -7.558594 138.238281 -6.480469 139.140625 -5.578125 C 140.761719 -3.601562 147.058594 0.179688 148.320312 0.179688 C 148.679688 0.179688 149.21875 0.359375 149.398438 0.71875 C 149.578125 0.898438 150.300781 1.078125 151.199219 1.261719 C 151.921875 1.261719 153.539062 1.261719 154.621094 1.441406 C 155.878906 1.621094 157.320312 1.441406 158.039062 1.078125 C 159.121094 0.539062 159.121094 0.359375 158.578125 -1.800781 C 158.21875 -3.058594 157.5 -4.679688 157.140625 -5.21875 C 156.601562 -6.480469 156.421875 -13.320312 156.960938 -18.71875 C 157.140625 -20.519531 157.320312 -23.578125 157.320312 -25.378906 C 157.5 -27.539062 157.859375 -29.160156 158.21875 -29.339844 C 158.761719 -29.699219 158.761719 -30.058594 158.761719 -30.421875 C 158.398438 -30.601562 158.578125 -31.679688 158.761719 -32.398438 C 161.28125 -40.679688 162.898438 -48.78125 162.71875 -52.738281 C 162.71875 -53.28125 162.898438 -54 163.261719 -54.359375 C 163.800781 -55.261719 165.421875 -60.300781 165.78125 -62.460938 C 165.960938 -63.71875 166.140625 -64.800781 166.320312 -65.339844 C 166.5 -65.519531 166.679688 -66.601562 166.859375 -67.140625 C 167.039062 -69.839844 167.21875 -71.28125 167.578125 -72 C 167.941406 -72.179688 168.121094 -73.980469 168.121094 -75.421875 C 168.300781 -77.039062 169.019531 -79.738281 169.738281 -81.359375 C 170.28125 -83.160156 170.820312 -85.140625 171 -86.039062 C 171.359375 -88.738281 171.539062 -89.640625 171.898438 -90 C 172.261719 -90.179688 172.441406 -90.71875 172.441406 -91.078125 C 172.441406 -91.621094 172.800781 -92.878906 173.519531 -93.960938 C 174.058594 -95.21875 174.78125 -97.378906 175.140625 -99.179688 C 175.5 -100.800781 176.21875 -102.421875 176.398438 -102.78125 C 177.121094 -103.679688 178.558594 -110.339844 178.558594 -111.421875 C 178.378906 -111.78125 178.558594 -112.679688 179.101562 -113.039062 C 179.640625 -113.578125 180.179688 -115.019531 180.179688 -116.101562 C 180.898438 -119.699219 181.261719 -119.699219 192.960938 -119.699219 C 198.71875 -119.699219 203.578125 -119.699219 203.941406 -119.160156 C 205.019531 -118.078125 199.621094 -108.898438 195.480469 -104.941406 C 194.039062 -103.679688 194.039062 -102.601562 195.480469 -103.140625 C 195.839844 -103.320312 196.199219 -103.140625 196.199219 -102.78125 C 196.199219 -101.878906 197.101562 -102.238281 199.261719 -104.398438 L 201.421875 -106.378906 L 200.339844 -104.578125 C 198.898438 -102.058594 199.800781 -101.160156 202.320312 -102.058594 C 203.398438 -102.601562 204.660156 -102.78125 205.558594 -102.78125 C 207.359375 -102.78125 211.320312 -107.460938 214.199219 -113.21875 C 215.460938 -115.738281 215.460938 -116.28125 214.019531 -118.621094 C 213.300781 -119.699219 212.398438 -121.140625 211.859375 -122.039062 C 211.320312 -122.578125 210.78125 -123.839844 210.78125 -124.378906 C 210.78125 -126 204.121094 -132.300781 201.058594 -133.199219 C 198.179688 -134.101562 192.058594 -135.179688 188.820312 -135.179688 C 187.199219 -135.179688 186.480469 -135.359375 186.480469 -135.898438 C 186.480469 -136.441406 186.660156 -136.980469 187.019531 -136.980469 C 187.199219 -137.160156 187.558594 -137.878906 187.558594 -138.238281 C 187.558594 -138.78125 187.921875 -139.5 188.460938 -139.859375 C 189.71875 -140.578125 190.980469 -144.359375 190.441406 -145.800781 C 190.261719 -146.160156 190.441406 -147.058594 190.800781 -147.421875 C 190.980469 -147.78125 191.339844 -148.5 191.339844 -149.039062 C 191.160156 -150.121094 192.058594 -152.101562 192.601562 -152.101562 C 193.140625 -152.101562 193.5 -152.640625 193.679688 -153.359375 C 193.859375 -154.621094 195.480469 -158.578125 196.019531 -160.378906 C 196.199219 -160.738281 196.558594 -161.28125 196.558594 -161.460938 C 196.558594 -161.640625 196.738281 -162.179688 196.921875 -162.539062 C 198.179688 -165.058594 199.261719 -169.921875 199.078125 -170.640625 C 198.898438 -171 199.078125 -171.359375 199.441406 -171.179688 C 199.800781 -171.179688 200.339844 -171.539062 200.339844 -172.078125 C 200.339844 -172.621094 200.878906 -174.058594 201.601562 -175.320312 C 202.5 -176.941406 202.5 -177.480469 201.960938 -178.019531 C 201.601562 -178.199219 201.601562 -178.378906 201.960938 -178.378906 C 202.679688 -178.378906 204.839844 -181.980469 204.839844 -183.238281 C 204.839844 -183.960938 205.199219 -185.039062 205.738281 -185.578125 C 206.820312 -186.660156 208.621094 -191.878906 208.441406 -192.960938 C 207.898438 -193.859375 212.398438 -203.398438 213.839844 -204.300781 C 214.019531 -204.480469 214.019531 -205.019531 214.019531 -205.558594 C 213.660156 -206.101562 214.019531 -206.820312 214.558594 -207.359375 C 215.101562 -207.898438 215.640625 -208.800781 215.640625 -209.160156 C 215.640625 -209.519531 217.261719 -212.761719 218.878906 -216.539062 C 220.859375 -220.320312 222.121094 -223.738281 221.941406 -224.101562 C 221.761719 -224.460938 222.121094 -225 222.300781 -225.359375 C 223.019531 -225.71875 224.820312 -229.320312 224.820312 -230.039062 C 224.820312 -230.21875 225.359375 -231.300781 225.898438 -232.558594 C 226.261719 -233.640625 226.621094 -234.71875 226.621094 -234.898438 C 226.621094 -235.261719 226.800781 -235.441406 227.160156 -235.441406 C 227.339844 -235.441406 227.699219 -235.621094 227.519531 -235.980469 C 227.339844 -237.058594 231.480469 -245.160156 232.558594 -246.421875 C 233.101562 -246.78125 233.820312 -248.398438 234.179688 -249.660156 C 234.898438 -252 240.121094 -262.980469 241.199219 -264.058594 C 241.378906 -264.421875 241.738281 -265.140625 241.738281 -265.679688 C 241.738281 -266.398438 242.28125 -267.480469 243 -268.199219 C 243.71875 -268.921875 244.441406 -270 244.441406 -270.539062 C 244.441406 -271.078125 245.160156 -272.878906 246.058594 -274.5 C 247.320312 -276.839844 247.679688 -277.921875 247.5 -279.359375 C 246.78125 -283.140625 244.980469 -284.761719 238.5 -287.101562 Z M 74.339844 -80.28125 C 74.699219 -80.28125 74.878906 -80.820312 74.699219 -81.539062 C 74.519531 -82.261719 74.699219 -82.621094 75.058594 -82.078125 C 75.238281 -81.898438 75.421875 -80.820312 75.238281 -80.101562 C 75.238281 -78.660156 75.058594 -78.480469 74.519531 -79.378906 C 73.800781 -80.101562 73.800781 -80.28125 74.339844 -80.28125 Z M 73.800781 -63.898438 C 74.160156 -65.519531 74.339844 -68.761719 74.519531 -70.921875 C 74.519531 -73.078125 74.699219 -75.058594 75.058594 -75.058594 C 75.238281 -75.421875 75.421875 -75.78125 75.421875 -76.320312 C 75.421875 -76.859375 75.238281 -76.859375 74.878906 -76.859375 C 74.699219 -76.679688 74.339844 -76.859375 74.339844 -77.398438 C 74.339844 -77.761719 74.699219 -78.121094 75.238281 -78.121094 C 75.960938 -78.121094 76.679688 -74.160156 76.320312 -70.558594 C 75.960938 -67.140625 75.421875 -62.640625 75.058594 -61.738281 C 74.878906 -61.378906 74.699219 -59.941406 74.699219 -58.859375 C 74.519531 -56.339844 73.621094 -55.078125 73.078125 -56.339844 C 72.539062 -57.421875 72.71875 -58.320312 73.800781 -63.898438 Z M 143.640625 -125.28125 C 144 -125.28125 144.179688 -124.921875 144.179688 -124.738281 C 144.179688 -124.378906 144 -124.199219 143.640625 -124.199219 C 143.460938 -124.199219 143.101562 -124.378906 143.101562 -124.738281 C 143.101562 -124.921875 143.460938 -125.28125 143.640625 -125.28125 Z M 102.058594 -119.519531 C 102.238281 -119.699219 102.78125 -119.699219 103.140625 -119.699219 C 103.679688 -119.339844 103.5 -119.339844 102.78125 -119.160156 C 102.238281 -119.160156 102.058594 -119.339844 102.058594 -119.519531 Z M 83.699219 -116.820312 C 83.878906 -117 84.421875 -117 84.78125 -116.820312 C 85.140625 -116.640625 85.140625 -116.640625 84.421875 -116.460938 C 83.878906 -116.460938 83.519531 -116.640625 83.699219 -116.820312 Z M 80.820312 -124.558594 C 80.28125 -123.660156 79.921875 -123.121094 79.738281 -123.480469 C 79.738281 -124.378906 80.820312 -127.078125 81.179688 -126.71875 C 81.359375 -126.71875 81.179688 -125.640625 80.820312 -124.558594 Z M 85.140625 -135.359375 C 85.140625 -135.179688 84.960938 -135 84.601562 -134.820312 C 84.421875 -134.640625 84.058594 -134.640625 84.058594 -135.179688 C 84.058594 -135.359375 84.421875 -135.71875 84.601562 -135.71875 C 84.960938 -135.71875 85.140625 -135.539062 85.140625 -135.359375 Z M 95.039062 -162 C 94.320312 -162 94.320312 -162.359375 95.039062 -162.71875 C 95.21875 -162.898438 95.578125 -162.898438 95.578125 -162.539062 C 95.578125 -162.179688 95.21875 -162 95.039062 -162 Z M 59.398438 -119.160156 C 59.761719 -119.699219 59.941406 -120.601562 60.121094 -121.140625 C 60.300781 -121.679688 60.480469 -122.578125 60.660156 -123.121094 C 60.839844 -123.480469 61.199219 -124.019531 61.199219 -124.199219 C 61.199219 -124.378906 61.378906 -124.921875 61.558594 -125.28125 C 61.738281 -125.640625 62.640625 -128.160156 63.539062 -130.679688 C 64.441406 -133.019531 65.160156 -135.359375 65.519531 -135.539062 C 65.519531 -135.71875 65.699219 -136.441406 65.699219 -137.339844 C 65.699219 -138.058594 66.058594 -138.960938 66.058594 -139.140625 C 66.421875 -139.5 67.140625 -140.941406 67.679688 -142.558594 C 69.300781 -147.238281 70.738281 -149.941406 71.460938 -149.941406 C 72 -149.941406 72.179688 -150.121094 72.179688 -150.480469 C 72.179688 -150.660156 71.820312 -150.839844 71.460938 -150.660156 C 70.921875 -150.480469 70.558594 -150.480469 70.558594 -150.660156 C 70.558594 -150.839844 72.179688 -154.800781 74.519531 -160.378906 C 74.699219 -160.921875 75.058594 -162.179688 75.238281 -162.71875 C 75.238281 -163.800781 76.859375 -165.421875 77.398438 -164.699219 C 77.398438 -164.339844 78.121094 -164.339844 78.300781 -164.519531 C 78.660156 -164.699219 78.660156 -164.519531 78.480469 -163.800781 C 78.121094 -163.261719 77.578125 -161.820312 77.21875 -160.558594 C 75.78125 -156.601562 74.878906 -154.980469 73.800781 -154.621094 C 73.261719 -154.441406 72.71875 -154.078125 72.71875 -153.898438 C 72.71875 -153.539062 72.539062 -153 72.359375 -152.101562 C 72.179688 -151.199219 72.179688 -151.019531 72.539062 -151.199219 C 72.898438 -151.378906 73.078125 -151.019531 72.898438 -150.121094 C 72.71875 -149.21875 72.359375 -148.859375 71.820312 -149.039062 C 71.460938 -149.21875 70.921875 -148.859375 70.558594 -147.960938 C 69.839844 -146.160156 69.839844 -144.898438 70.738281 -145.261719 C 71.101562 -145.441406 71.28125 -145.441406 70.921875 -144.71875 C 70.738281 -144.179688 70.921875 -143.820312 71.28125 -144 C 72 -144.359375 72.179688 -145.441406 71.460938 -146.519531 C 70.921875 -147.238281 71.101562 -147.238281 72.359375 -147.238281 C 72.539062 -147.421875 73.078125 -147.78125 73.261719 -148.320312 C 74.699219 -150.660156 76.679688 -155.519531 76.859375 -156.960938 C 77.039062 -158.039062 77.398438 -158.761719 77.761719 -158.941406 C 77.941406 -159.121094 78.121094 -159.839844 78.121094 -160.558594 C 78.121094 -161.28125 78.480469 -162.179688 78.839844 -162.71875 C 79.921875 -163.800781 81.359375 -166.679688 81.179688 -167.039062 C 81 -167.21875 81.359375 -168.300781 81.898438 -169.378906 C 82.441406 -170.640625 82.980469 -171.898438 82.980469 -172.441406 C 82.980469 -172.980469 83.339844 -173.519531 83.519531 -173.519531 C 83.878906 -173.519531 84.058594 -174.058594 84.058594 -174.78125 C 84.058594 -175.5 84.421875 -176.398438 84.601562 -176.398438 C 84.960938 -176.578125 85.140625 -176.941406 84.960938 -177.300781 C 84.421875 -178.199219 80.820312 -175.140625 80.820312 -174.058594 C 80.820312 -172.800781 81.71875 -172.441406 82.078125 -173.519531 C 82.441406 -174.058594 82.441406 -174.058594 82.441406 -173.519531 C 82.441406 -173.160156 81.898438 -172.261719 81.359375 -171.539062 C 80.640625 -170.820312 80.101562 -169.738281 80.101562 -169.019531 C 80.101562 -168.300781 79.738281 -167.761719 79.378906 -167.761719 C 79.199219 -167.761719 78.480469 -167.21875 77.941406 -166.679688 C 76.859375 -165.058594 76.859375 -166.5 78.121094 -169.019531 C 78.660156 -170.28125 79.738281 -172.441406 80.28125 -173.878906 C 80.640625 -175.320312 81.71875 -178.019531 82.621094 -179.820312 C 83.519531 -181.621094 84.058594 -183.238281 84.058594 -183.421875 C 84.058594 -183.960938 85.320312 -186.660156 88.558594 -193.859375 C 90 -197.101562 91.078125 -198.539062 91.261719 -198 C 91.621094 -197.640625 91.621094 -197.820312 91.441406 -198.71875 C 91.078125 -199.441406 91.261719 -200.339844 91.621094 -200.519531 C 91.980469 -200.699219 92.160156 -200.519531 92.160156 -200.160156 C 92.160156 -199.621094 92.339844 -199.621094 92.878906 -200.160156 C 93.421875 -200.699219 93.421875 -201.058594 92.878906 -201.238281 C 91.800781 -201.960938 94.679688 -208.078125 95.761719 -207.539062 C 96.121094 -207.359375 96.660156 -207.539062 96.660156 -207.898438 C 96.660156 -208.261719 96.839844 -208.441406 97.199219 -208.441406 C 97.558594 -208.441406 97.558594 -208.261719 97.378906 -207.898438 C 96.660156 -206.820312 98.640625 -207.359375 99.359375 -208.621094 C 100.980469 -210.78125 100.980469 -209.160156 99.71875 -206.460938 C 98.820312 -205.019531 98.28125 -203.398438 97.921875 -202.679688 C 97.738281 -201.78125 97.738281 -201.78125 98.820312 -203.039062 C 99.359375 -203.761719 99.898438 -205.019531 100.261719 -205.738281 C 100.441406 -206.460938 101.160156 -208.261719 102.058594 -209.519531 C 102.960938 -210.78125 103.679688 -211.859375 103.679688 -212.21875 C 103.679688 -212.578125 107.460938 -220.679688 108.539062 -222.300781 C 109.078125 -222.839844 109.800781 -224.640625 110.339844 -226.261719 C 110.878906 -227.519531 111.601562 -229.140625 111.960938 -229.320312 C 113.039062 -230.21875 111.960938 -227.519531 105.300781 -213.121094 C 104.039062 -210.601562 103.140625 -208.441406 103.140625 -208.261719 C 103.140625 -208.078125 102.238281 -206.101562 101.160156 -203.941406 C 98.820312 -198.539062 97.738281 -196.019531 94.679688 -188.460938 C 93.238281 -185.039062 91.980469 -181.621094 91.621094 -181.441406 C 91.621094 -181.078125 90.898438 -179.640625 90.359375 -178.199219 C 89.820312 -176.578125 89.101562 -175.140625 88.921875 -174.78125 C 88.558594 -174.421875 87.839844 -172.441406 87.121094 -170.101562 C 86.398438 -167.941406 85.5 -165.601562 85.140625 -165.058594 C 84.601562 -164.339844 83.699219 -162 82.800781 -159.839844 C 81.898438 -157.5 80.460938 -153.539062 79.558594 -151.019531 C 78.660156 -148.320312 77.398438 -145.078125 77.039062 -143.460938 C 76.679688 -141.839844 76.320312 -140.578125 75.960938 -140.578125 C 75.78125 -140.578125 75.238281 -139.859375 75.238281 -138.78125 C 74.878906 -137.878906 74.699219 -136.800781 74.339844 -136.261719 C 73.078125 -134.101562 70.558594 -127.261719 70.558594 -126.359375 C 70.558594 -125.820312 70.378906 -125.101562 70.019531 -124.921875 C 69.839844 -124.921875 69.300781 -123.660156 69.300781 -122.21875 C 68.761719 -120.058594 68.761719 -119.699219 67.140625 -119.519531 C 66.238281 -119.339844 64.980469 -119.160156 64.441406 -118.980469 C 63.539062 -118.621094 63.539062 -120.058594 64.441406 -122.578125 C 65.339844 -124.738281 65.339844 -126.179688 64.441406 -126.539062 C 64.078125 -126.71875 64.261719 -126.898438 64.980469 -127.261719 C 66.058594 -127.441406 67.320312 -130.320312 68.21875 -134.28125 C 68.398438 -135.539062 68.21875 -135.71875 67.859375 -135.179688 C 67.5 -135 66.960938 -134.640625 66.601562 -135 C 66.058594 -135.179688 65.699219 -134.640625 65.519531 -134.101562 C 65.339844 -133.378906 65.519531 -132.839844 66.058594 -132.839844 C 67.140625 -132.839844 67.140625 -131.761719 66.058594 -131.398438 C 65.519531 -131.21875 65.339844 -130.679688 65.519531 -130.140625 C 65.699219 -129.421875 65.519531 -129.058594 65.160156 -129.058594 C 64.261719 -129.058594 63 -127.441406 63 -126 C 63 -125.28125 62.820312 -124.558594 62.460938 -124.378906 C 61.738281 -123.839844 61.738281 -122.578125 62.820312 -122.941406 C 63.71875 -123.121094 63.898438 -121.679688 63 -121.140625 C 62.640625 -120.960938 62.460938 -120.421875 62.820312 -120.058594 C 62.820312 -119.699219 62.820312 -119.160156 62.28125 -118.800781 C 61.921875 -118.621094 61.199219 -118.441406 60.480469 -118.261719 C 59.398438 -118.261719 59.21875 -118.441406 59.398438 -119.160156 Z M 74.339844 -153.539062 C 74.339844 -153.359375 74.160156 -153 73.800781 -153 C 73.621094 -152.820312 73.261719 -152.820312 73.261719 -153.179688 C 73.261719 -153.539062 73.621094 -153.71875 73.800781 -153.71875 C 74.160156 -153.71875 74.339844 -153.539062 74.339844 -153.539062 Z M 78.660156 -165.78125 C 78.660156 -166.140625 79.019531 -166.320312 79.199219 -166.320312 C 79.558594 -166.320312 79.738281 -166.140625 79.738281 -166.140625 C 79.738281 -165.960938 79.558594 -165.601562 79.199219 -165.601562 C 79.019531 -165.421875 78.660156 -165.421875 78.660156 -165.78125 Z M 101.699219 -197.640625 C 102.601562 -198.179688 102.601562 -198.179688 102.238281 -196.738281 C 102.058594 -196.378906 101.699219 -195.839844 101.519531 -195.839844 C 100.621094 -195.839844 100.800781 -196.738281 101.699219 -197.640625 Z M 101.519531 -194.761719 C 101.519531 -194.578125 101.160156 -194.21875 100.980469 -194.21875 C 100.621094 -194.21875 100.441406 -194.578125 100.441406 -194.761719 C 100.441406 -195.121094 100.621094 -195.300781 100.980469 -195.300781 C 101.160156 -195.300781 101.519531 -195.121094 101.519531 -194.761719 Z M 92.699219 -172.980469 C 92.699219 -172.261719 92.699219 -172.261719 91.621094 -172.980469 C 91.078125 -173.339844 91.078125 -173.519531 91.800781 -173.519531 C 92.339844 -173.519531 92.699219 -173.160156 92.699219 -172.980469 Z M 90 -168.300781 C 90 -168.121094 89.820312 -167.761719 89.460938 -167.761719 C 89.28125 -167.578125 88.921875 -167.578125 88.921875 -167.941406 C 88.921875 -168.300781 89.28125 -168.480469 89.460938 -168.480469 C 89.820312 -168.480469 90 -168.480469 90 -168.300781 Z M 88.921875 -165.058594 C 88.921875 -164.339844 88.558594 -163.621094 88.199219 -163.261719 C 87.480469 -163.261719 87.300781 -163.261719 87.660156 -163.800781 C 87.839844 -164.339844 87.839844 -165.058594 87.839844 -165.601562 C 87.839844 -165.960938 88.199219 -166.320312 88.378906 -166.320312 C 88.738281 -166.320312 88.921875 -165.78125 88.921875 -165.058594 Z M 87.300781 -161.101562 C 87.300781 -160.738281 86.941406 -160.378906 86.578125 -160.378906 C 86.039062 -160.378906 85.679688 -160.558594 85.859375 -160.921875 C 86.21875 -162 87.300781 -162.179688 87.300781 -161.101562 Z M 84.058594 -154.078125 C 84.058594 -153.359375 83.878906 -152.640625 83.519531 -152.640625 C 82.980469 -152.640625 82.980469 -154.621094 83.519531 -155.160156 C 83.878906 -155.339844 84.058594 -154.800781 84.058594 -154.078125 Z M 81.898438 -147.238281 C 81.71875 -146.699219 81.359375 -146.160156 80.820312 -145.800781 C 80.101562 -145.261719 80.28125 -147.960938 81.179688 -148.859375 C 82.078125 -149.578125 82.441406 -148.859375 81.898438 -147.238281 Z M 80.28125 -143.820312 C 79.921875 -143.101562 79.738281 -142.199219 79.738281 -141.839844 C 79.738281 -141.480469 79.558594 -141.121094 79.199219 -141.121094 C 78.660156 -141.121094 79.199219 -143.820312 79.921875 -144.71875 C 80.28125 -145.078125 80.28125 -144.898438 80.28125 -143.820312 Z M 77.398438 -138.960938 C 77.21875 -139.140625 77.398438 -139.5 77.941406 -139.5 C 78.300781 -139.5 78.660156 -139.140625 78.660156 -138.960938 C 78.660156 -138.601562 78.480469 -138.421875 78.121094 -138.421875 C 77.941406 -138.421875 77.398438 -138.601562 77.398438 -138.960938 Z M 78.121094 -136.261719 C 78.121094 -135.898438 77.941406 -135.71875 77.578125 -135.71875 C 77.398438 -135.71875 77.039062 -135.898438 77.039062 -136.261719 C 77.039062 -136.441406 77.398438 -136.800781 77.578125 -136.800781 C 77.941406 -136.800781 78.121094 -136.441406 78.121094 -136.261719 Z M 74.878906 -130.679688 C 74.699219 -130.679688 74.699219 -131.21875 75.058594 -131.761719 C 75.78125 -133.019531 76.140625 -132.839844 75.78125 -131.761719 C 75.421875 -131.21875 75.238281 -130.679688 74.878906 -130.679688 Z M 75.238281 -128.339844 C 74.519531 -126.359375 73.800781 -126 73.800781 -127.800781 C 73.800781 -129.058594 74.160156 -129.601562 74.699219 -129.601562 C 75.238281 -129.601562 75.421875 -129.421875 75.238281 -128.339844 Z M 73.078125 -122.941406 C 72.539062 -121.679688 72 -120.421875 71.460938 -120.421875 C 70.738281 -120.421875 70.738281 -120.421875 71.460938 -122.578125 C 73.078125 -126.539062 74.339844 -126.898438 73.078125 -122.941406 Z M 71.101562 -85.859375 C 72 -84.058594 72.898438 -70.199219 72.359375 -67.140625 C 72.179688 -65.878906 72 -64.441406 72 -64.261719 C 71.820312 -63.898438 71.640625 -63.179688 71.460938 -62.820312 C 71.28125 -62.460938 71.101562 -60.660156 70.921875 -59.039062 C 70.921875 -57.238281 70.558594 -55.621094 70.378906 -55.441406 C 70.378906 -55.078125 69.839844 -53.640625 69.480469 -52.199219 C 69.121094 -50.761719 68.578125 -49.5 68.21875 -49.320312 C 68.21875 -49.140625 67.859375 -48.601562 67.859375 -48.058594 C 67.859375 -47.339844 67.679688 -46.980469 67.320312 -46.980469 C 67.140625 -46.980469 66.78125 -46.441406 66.78125 -46.078125 C 66.78125 -45.539062 66.601562 -45.359375 66.238281 -45.539062 C 66.058594 -45.71875 65.878906 -45.539062 66.058594 -45 C 66.238281 -44.640625 66.058594 -43.558594 65.519531 -42.839844 C 64.980469 -42.121094 64.621094 -41.21875 64.621094 -40.859375 C 64.621094 -40.320312 64.078125 -39.421875 63.359375 -38.519531 C 62.640625 -37.621094 62.101562 -36.71875 62.28125 -36.539062 C 62.28125 -36.179688 62.28125 -35.640625 61.921875 -35.28125 C 61.199219 -34.558594 57.78125 -29.339844 57.78125 -28.800781 C 57.601562 -28.441406 57.601562 -28.078125 57.601562 -27.71875 C 57.601562 -27.539062 56.878906 -27 56.160156 -26.460938 C 55.078125 -25.738281 54.898438 -25.738281 54.898438 -26.28125 C 54.898438 -28.078125 55.621094 -30.421875 55.980469 -30.238281 C 56.160156 -30.058594 56.519531 -30.421875 56.519531 -31.140625 C 56.339844 -31.859375 56.699219 -33.300781 57.238281 -34.558594 C 57.78125 -35.820312 58.140625 -37.980469 58.140625 -39.058594 C 58.140625 -40.320312 58.320312 -41.578125 58.679688 -41.761719 C 58.859375 -41.941406 59.039062 -42.480469 58.859375 -42.839844 C 58.679688 -43.199219 58.859375 -44.101562 59.21875 -44.460938 C 59.578125 -45 59.578125 -45.359375 59.21875 -45.539062 C 58.859375 -45.898438 58.859375 -46.261719 59.21875 -46.980469 C 59.398438 -47.699219 59.578125 -48.238281 59.398438 -48.601562 C 58.859375 -49.320312 60.480469 -52.738281 62.101562 -54.179688 C 63.179688 -55.078125 63.539062 -55.980469 63.179688 -56.160156 C 62.28125 -56.699219 61.738281 -58.859375 62.28125 -59.21875 C 62.820312 -59.398438 62.820312 -59.941406 62.640625 -60.660156 C 62.460938 -61.378906 62.820312 -61.738281 63.359375 -61.921875 C 64.261719 -61.921875 64.261719 -61.921875 63.359375 -62.640625 C 62.460938 -63.539062 62.460938 -63.539062 61.738281 -60.660156 C 61.558594 -60.300781 61.199219 -60.121094 61.199219 -60.300781 C 61.019531 -60.300781 61.199219 -61.558594 61.378906 -63.179688 C 61.738281 -64.621094 62.28125 -65.339844 62.460938 -64.980469 C 63 -64.078125 64.078125 -64.800781 63.71875 -65.878906 C 63.539062 -66.238281 63.359375 -66.601562 63 -66.421875 C 62.460938 -65.878906 62.820312 -68.941406 63.71875 -71.101562 L 64.261719 -72.359375 L 64.621094 -71.101562 L 64.980469 -69.660156 L 65.519531 -71.28125 C 65.519531 -72.179688 65.878906 -73.261719 66.058594 -73.621094 C 66.058594 -73.980469 66.058594 -74.339844 65.699219 -74.339844 C 65.519531 -74.339844 65.160156 -73.980469 65.160156 -73.621094 C 65.160156 -73.441406 64.980469 -73.261719 64.980469 -73.441406 C 64.261719 -73.980469 65.699219 -79.738281 66.601562 -79.738281 C 67.5 -79.738281 69.300781 -81.898438 68.761719 -82.441406 C 68.578125 -82.621094 67.859375 -82.078125 67.320312 -81.359375 L 66.238281 -80.101562 L 66.601562 -81.359375 C 66.601562 -82.078125 67.320312 -84.601562 67.679688 -86.578125 L 68.761719 -90.539062 L 69.660156 -88.921875 C 70.199219 -87.839844 70.921875 -86.578125 71.101562 -85.859375 Z M 73.078125 -111.058594 C 71.820312 -108.539062 69.660156 -108.898438 70.558594 -111.421875 C 71.101562 -112.859375 72 -113.398438 73.078125 -113.039062 C 73.621094 -112.859375 73.621094 -112.5 73.078125 -111.058594 Z M 75.78125 -117.179688 C 75.238281 -116.28125 72 -115.921875 72.359375 -116.820312 C 72.539062 -117 73.441406 -117.539062 74.339844 -117.539062 C 75.238281 -117.539062 75.960938 -117.539062 75.78125 -117.179688 Z M 74.699219 -118.800781 C 73.980469 -118.621094 73.800781 -118.621094 74.160156 -119.160156 C 74.160156 -119.519531 74.699219 -119.699219 75.238281 -119.699219 C 75.601562 -119.699219 75.960938 -120.058594 75.960938 -120.421875 C 75.960938 -120.601562 75.601562 -120.960938 75.238281 -120.960938 C 74.160156 -120.960938 74.160156 -121.5 74.878906 -122.21875 C 75.238281 -122.578125 75.78125 -124.378906 76.320312 -126.359375 C 76.679688 -128.339844 77.578125 -130.859375 78.121094 -132.121094 C 78.660156 -133.378906 79.558594 -135.71875 80.101562 -137.519531 C 80.640625 -139.320312 81.359375 -141.839844 81.898438 -143.28125 C 82.441406 -144.359375 83.160156 -146.160156 83.339844 -146.878906 C 83.519531 -147.601562 83.878906 -148.320312 84.058594 -148.5 C 84.421875 -148.679688 84.601562 -149.398438 84.601562 -150.121094 C 84.601562 -150.660156 85.5 -153 86.578125 -154.980469 C 89.460938 -161.460938 91.078125 -165.601562 91.078125 -166.679688 C 91.078125 -167.21875 91.621094 -167.941406 91.980469 -168.480469 C 92.699219 -169.378906 94.140625 -172.980469 95.039062 -175.859375 C 95.039062 -176.941406 95.761719 -178.378906 96.121094 -179.28125 C 98.460938 -183.601562 99.359375 -185.578125 99 -186.300781 C 98.820312 -186.660156 99 -187.199219 99.179688 -187.199219 C 99.71875 -187.199219 100.980469 -190.800781 100.980469 -192.238281 C 100.980469 -192.601562 101.339844 -193.140625 101.699219 -193.5 C 102.601562 -193.679688 105.839844 -200.160156 105.839844 -201.78125 C 105.839844 -202.320312 106.199219 -203.21875 106.558594 -203.578125 C 106.921875 -203.941406 107.460938 -204.480469 107.460938 -204.839844 C 107.460938 -205.558594 109.078125 -209.160156 109.261719 -208.980469 C 109.441406 -208.800781 109.078125 -207.71875 108.71875 -206.640625 C 108.179688 -205.558594 108 -204.480469 108 -204.300781 C 108.359375 -204.121094 108 -203.21875 107.460938 -202.140625 C 106.738281 -201.058594 106.378906 -199.980469 106.378906 -199.441406 C 106.378906 -199.078125 105.839844 -197.820312 105.300781 -196.921875 C 104.761719 -195.839844 104.039062 -194.21875 103.679688 -192.960938 C 103.140625 -191.699219 102.601562 -190.261719 102.238281 -189.898438 C 101.519531 -188.820312 99.898438 -184.5 99.898438 -183.238281 C 99.898438 -182.699219 99.539062 -182.160156 99.179688 -181.980469 C 98.820312 -181.800781 98.101562 -180.539062 97.738281 -179.28125 C 97.199219 -178.199219 96.660156 -176.398438 96.121094 -175.5 C 95.761719 -174.78125 95.578125 -173.699219 95.761719 -173.519531 C 95.941406 -173.160156 95.941406 -172.980469 95.578125 -172.980469 C 95.21875 -172.980469 95.039062 -172.441406 95.039062 -172.078125 C 95.039062 -171.71875 94.679688 -171.359375 94.320312 -171.359375 C 93.960938 -171.359375 93.78125 -170.640625 93.78125 -170.101562 C 94.140625 -167.398438 93.78125 -166.320312 93.058594 -166.320312 C 92.519531 -166.320312 92.160156 -165.960938 92.339844 -165.421875 C 92.519531 -164.878906 91.980469 -163.261719 91.078125 -161.640625 C 90 -159.480469 89.820312 -158.578125 90.359375 -158.039062 C 90.71875 -157.679688 90.539062 -157.320312 90 -156.960938 C 89.460938 -156.601562 88.921875 -156.058594 88.921875 -155.699219 C 88.921875 -155.339844 88.558594 -154.621094 88.199219 -154.261719 C 87.660156 -153.898438 87.300781 -153.179688 87.660156 -153 C 87.839844 -152.460938 87.300781 -151.199219 86.761719 -150.121094 C 86.21875 -149.039062 85.679688 -147.78125 85.679688 -147.421875 C 85.679688 -147.238281 84.78125 -145.078125 83.699219 -143.101562 C 81.898438 -139.140625 80.640625 -135.179688 81.539062 -135.179688 C 81.898438 -135.179688 81.71875 -134.640625 81.359375 -133.921875 C 81 -133.199219 80.820312 -132.300781 80.640625 -131.761719 C 80.460938 -130.5 79.199219 -127.800781 77.941406 -126.71875 C 77.039062 -126 77.039062 -125.820312 77.761719 -125.820312 C 79.019531 -125.820312 79.019531 -125.28125 77.578125 -123.660156 C 77.039062 -122.761719 76.5 -121.5 76.5 -120.78125 C 76.5 -119.878906 76.320312 -119.160156 75.960938 -119.160156 C 75.78125 -119.160156 75.238281 -119.160156 74.699219 -118.800781 Z M 76.5 -112.679688 C 75.78125 -112.679688 75.78125 -113.039062 76.5 -113.398438 C 76.859375 -113.578125 77.039062 -113.578125 77.039062 -113.21875 C 77.039062 -112.859375 76.859375 -112.679688 76.5 -112.679688 Z M 77.578125 -117.539062 C 77.578125 -117.898438 77.941406 -118.078125 78.121094 -118.078125 C 78.480469 -118.078125 78.660156 -118.078125 78.660156 -117.898438 C 78.660156 -117.71875 78.480469 -117.539062 78.121094 -117.359375 C 77.941406 -117.179688 77.578125 -117.179688 77.578125 -117.539062 Z M 90.359375 -110.519531 C 89.820312 -110.519531 89.460938 -110.519531 89.640625 -110.699219 C 89.820312 -111.058594 90.359375 -111.058594 90.71875 -110.878906 C 91.078125 -110.519531 91.078125 -110.519531 90.359375 -110.519531 Z M 105.480469 -112.679688 C 105.300781 -112.320312 104.941406 -112.140625 104.761719 -112.140625 C 104.398438 -112.140625 104.21875 -112.320312 104.21875 -112.679688 C 104.21875 -112.859375 104.578125 -113.21875 104.941406 -113.21875 C 105.480469 -113.21875 105.660156 -112.859375 105.480469 -112.679688 Z M 122.578125 -114.300781 C 121.859375 -114.660156 121.859375 -114.839844 122.761719 -114.839844 C 123.121094 -114.839844 123.839844 -114.660156 123.839844 -114.300781 C 124.378906 -113.578125 123.660156 -113.578125 122.578125 -114.300781 Z M 150.480469 -118.621094 C 149.578125 -118.078125 144.359375 -117.359375 145.078125 -118.078125 C 145.261719 -118.441406 146.878906 -118.800781 148.320312 -118.980469 C 150.121094 -119.160156 150.660156 -119.160156 150.480469 -118.621094 Z M 161.101562 -122.039062 C 160.378906 -122.21875 159.839844 -122.21875 159.839844 -122.039062 C 159.839844 -121.5 156.238281 -120.960938 146.878906 -120.058594 C 145.078125 -119.878906 143.460938 -119.699219 143.101562 -119.519531 C 142.921875 -119.339844 141.480469 -119.160156 139.859375 -118.980469 C 135 -118.441406 123.121094 -117 118.800781 -116.460938 C 116.640625 -116.28125 112.859375 -115.738281 110.339844 -115.378906 C 108 -115.199219 105.300781 -114.660156 104.21875 -114.480469 C 103.320312 -114.121094 102.601562 -113.941406 102.421875 -114.121094 C 102.238281 -114.121094 98.28125 -113.578125 93.238281 -112.859375 C 88.378906 -112.140625 82.980469 -111.421875 81.359375 -111.238281 C 78.839844 -110.878906 78.660156 -111.058594 78.839844 -111.78125 C 79.199219 -112.320312 79.019531 -113.039062 78.660156 -113.398438 C 78.300781 -114.121094 78.480469 -114.300781 79.558594 -114.660156 C 80.28125 -114.660156 80.820312 -115.199219 80.820312 -115.738281 C 80.820312 -116.101562 81.359375 -116.460938 81.898438 -116.460938 C 82.441406 -116.460938 82.621094 -116.28125 82.078125 -115.921875 C 80.640625 -115.199219 82.441406 -114.660156 85.679688 -115.199219 C 87.300781 -115.738281 90.539062 -116.28125 93.058594 -116.460938 C 95.578125 -116.820312 98.101562 -117.539062 98.820312 -117.71875 C 99.539062 -118.078125 100.621094 -118.261719 101.339844 -118.078125 C 102.601562 -118.078125 109.621094 -118.800781 117.359375 -120.058594 C 120.058594 -120.421875 123.839844 -120.960938 125.820312 -121.140625 C 127.800781 -121.320312 130.5 -121.679688 132.121094 -122.039062 C 133.558594 -122.21875 136.261719 -122.578125 138.058594 -122.761719 C 140.039062 -122.941406 141.839844 -123.121094 142.019531 -123.300781 C 142.378906 -123.480469 144.539062 -123.839844 146.878906 -123.839844 C 149.039062 -124.019531 152.28125 -124.378906 153.898438 -124.738281 C 155.519531 -124.921875 158.039062 -125.28125 159.660156 -125.28125 C 162.359375 -125.28125 162.539062 -125.28125 162.539062 -123.660156 C 162.539062 -122.039062 162.179688 -122.039062 161.101562 -122.039062 Z M 186.660156 -160.921875 C 186.839844 -160.558594 187.199219 -160.199219 186.839844 -160.019531 C 186.660156 -159.660156 185.941406 -160.378906 185.941406 -160.921875 C 185.941406 -161.460938 186.121094 -161.460938 186.660156 -160.921875 Z M 181.441406 -150.121094 C 181.800781 -150.300781 181.980469 -149.941406 181.980469 -148.859375 C 181.980469 -146.878906 181.800781 -146.699219 181.261719 -148.320312 C 181.078125 -149.039062 181.261719 -149.578125 181.441406 -150.121094 Z M 175.679688 -122.039062 C 175.859375 -122.039062 176.21875 -121.679688 176.21875 -121.5 C 176.21875 -121.140625 175.859375 -120.960938 175.679688 -120.960938 C 175.320312 -120.960938 175.140625 -121.140625 175.140625 -121.5 C 175.140625 -121.679688 175.320312 -122.039062 175.679688 -122.039062 Z M 172.441406 -117.71875 C 172.441406 -117.179688 169.738281 -113.941406 169.738281 -114.480469 C 169.738281 -115.199219 171.359375 -118.078125 171.898438 -118.078125 C 172.261719 -118.078125 172.441406 -118.078125 172.441406 -117.71875 Z M 170.640625 -130.140625 C 171 -130.140625 171.539062 -130.140625 171.898438 -130.140625 C 172.441406 -129.960938 172.078125 -129.78125 171.359375 -129.78125 C 170.640625 -129.78125 170.28125 -129.960938 170.640625 -130.140625 Z M 168.660156 -132.300781 C 169.199219 -132.839844 169.558594 -133.199219 169.738281 -132.839844 C 170.101562 -132.660156 170.28125 -132.300781 169.921875 -131.761719 C 169.738281 -131.578125 169.199219 -131.21875 168.839844 -131.21875 C 168.121094 -131.21875 168.121094 -131.398438 168.660156 -132.300781 Z M 167.761719 -129.601562 C 167.941406 -129.960938 168.480469 -130.140625 168.839844 -130.140625 C 169.378906 -130.140625 169.558594 -129.960938 169.378906 -129.601562 C 169.199219 -129.421875 168.660156 -129.058594 168.300781 -129.058594 C 167.761719 -129.058594 167.578125 -129.421875 167.761719 -129.601562 Z M 169.738281 -126.359375 C 170.640625 -126.359375 171.359375 -126 171.359375 -125.820312 C 171.359375 -125.460938 171 -125.28125 170.820312 -125.28125 C 170.460938 -125.28125 170.28125 -124.921875 170.460938 -124.378906 C 170.820312 -123.480469 169.738281 -122.761719 168.839844 -123.660156 C 168.121094 -124.199219 167.761719 -124.199219 167.039062 -123.300781 C 165.960938 -122.398438 165.960938 -122.398438 165.960938 -123.121094 C 165.960938 -124.738281 167.941406 -126.359375 169.738281 -126.359375 Z M 163.800781 -129.601562 C 163.980469 -129.601562 164.339844 -129.421875 164.339844 -129.421875 C 164.339844 -129.238281 163.980469 -128.878906 163.800781 -128.878906 C 163.441406 -128.699219 163.261719 -128.699219 163.261719 -129.058594 C 163.261719 -129.421875 163.441406 -129.601562 163.800781 -129.601562 Z M 164.339844 -123.839844 C 164.339844 -123.121094 163.800781 -122.578125 163.621094 -122.578125 C 163.261719 -122.578125 163.261719 -122.941406 163.441406 -123.300781 C 163.621094 -123.839844 163.800781 -124.378906 163.800781 -124.738281 C 163.800781 -124.921875 163.980469 -125.28125 164.160156 -125.28125 C 164.339844 -125.28125 164.519531 -124.558594 164.339844 -123.839844 Z M 156.238281 -72.359375 C 154.980469 -68.761719 153.898438 -64.980469 153.898438 -63.898438 C 153.898438 -63.179688 153.359375 -60.660156 152.640625 -57.960938 C 151.019531 -52.019531 149.578125 -45.359375 148.5 -38.339844 C 148.320312 -36.359375 147.960938 -34.558594 147.601562 -34.199219 C 147.058594 -33.480469 146.699219 -30.421875 146.160156 -23.398438 C 145.800781 -21.421875 145.621094 -19.621094 145.261719 -19.261719 C 145.078125 -19.078125 144.71875 -16.378906 144.71875 -13.5 C 144.359375 -5.398438 142.921875 -9.71875 142.921875 -18.179688 C 142.921875 -22.5 142.921875 -22.859375 142.558594 -20.699219 C 142.378906 -19.441406 141.839844 -18.179688 141.839844 -17.820312 C 141.300781 -17.28125 142.019531 -24.839844 143.460938 -32.398438 C 144.179688 -36.179688 144.71875 -39.601562 144.71875 -39.601562 C 144.71875 -39.601562 145.261719 -39.78125 145.621094 -39.78125 C 146.519531 -39.78125 146.699219 -40.859375 145.800781 -41.039062 C 145.078125 -41.398438 146.339844 -46.441406 147.058594 -46.261719 C 147.421875 -46.078125 147.960938 -47.160156 147.960938 -48.238281 C 148.5 -50.21875 148.320312 -50.398438 147.78125 -49.320312 C 146.699219 -48.058594 146.699219 -48.960938 147.78125 -54 C 148.679688 -58.5 149.039062 -59.578125 149.941406 -59.578125 C 150.660156 -59.578125 151.558594 -61.378906 150.660156 -61.558594 C 150.480469 -61.738281 150.121094 -62.101562 150.121094 -62.460938 C 150.121094 -63 150.480469 -63.179688 151.019531 -63 C 151.378906 -62.820312 151.738281 -63 151.738281 -63.359375 C 151.738281 -63.71875 151.558594 -63.898438 151.199219 -63.898438 C 150.480469 -63.898438 150.839844 -67.5 152.28125 -73.078125 C 152.820312 -75.78125 153.71875 -78.660156 153.898438 -79.921875 C 154.261719 -81.179688 154.980469 -84.601562 155.519531 -87.300781 C 156.058594 -90.179688 156.960938 -93.421875 157.5 -94.679688 C 157.859375 -95.941406 158.398438 -98.28125 158.578125 -99.71875 C 158.761719 -100.980469 159.300781 -102.960938 159.660156 -103.679688 C 160.019531 -104.578125 160.378906 -105.660156 160.378906 -106.199219 C 160.378906 -106.738281 160.738281 -107.640625 160.921875 -108.179688 C 161.640625 -109.621094 163.800781 -116.28125 163.800781 -117.179688 C 163.800781 -117.898438 164.339844 -118.078125 166.140625 -118.078125 C 168.480469 -118.078125 168.660156 -118.078125 168.121094 -116.640625 C 168.121094 -115.738281 167.761719 -114.839844 167.578125 -114.660156 C 167.21875 -114.300781 167.039062 -112.859375 166.679688 -111.238281 C 166.5 -109.800781 166.140625 -108.359375 165.960938 -108 C 165.238281 -107.101562 163.261719 -100.621094 162.359375 -95.941406 C 161.820312 -93.601562 161.28125 -91.261719 161.101562 -90.71875 C 160.378906 -89.640625 159.480469 -86.578125 159.121094 -84.238281 C 158.761719 -83.160156 158.398438 -81.179688 157.859375 -79.738281 C 157.5 -78.480469 157.140625 -76.679688 156.960938 -75.78125 C 156.78125 -74.699219 156.601562 -73.441406 156.238281 -72.359375 Z M 166.320312 -98.640625 C 165.960938 -98.28125 165.601562 -97.921875 165.421875 -97.921875 C 164.699219 -97.921875 164.699219 -98.460938 165.421875 -99.539062 C 165.960938 -100.441406 166.679688 -99.898438 166.320312 -98.640625 Z M 163.800781 -88.199219 C 163.800781 -87.839844 163.261719 -87.480469 162.898438 -87.480469 C 162.359375 -87.480469 162.179688 -87.660156 162.179688 -88.199219 C 162.539062 -89.101562 163.800781 -89.28125 163.800781 -88.199219 Z M 159.839844 -73.800781 C 159.839844 -73.441406 159.660156 -73.261719 159.300781 -73.261719 C 159.121094 -73.261719 158.761719 -73.441406 158.761719 -73.800781 C 158.761719 -73.980469 159.121094 -74.339844 159.300781 -74.339844 C 159.660156 -74.339844 159.839844 -73.980469 159.839844 -73.800781 Z M 158.761719 -70.019531 C 158.761719 -69.660156 158.761719 -69.480469 158.578125 -69.480469 C 158.398438 -69.480469 158.21875 -69.660156 158.039062 -70.019531 C 157.859375 -70.199219 157.859375 -70.558594 158.21875 -70.558594 C 158.578125 -70.558594 158.761719 -70.199219 158.761719 -70.019531 Z M 173.519531 -99.539062 C 172.800781 -99.539062 172.800781 -99.898438 173.519531 -100.261719 C 173.699219 -100.441406 174.058594 -100.441406 174.058594 -100.078125 C 174.058594 -99.71875 173.699219 -99.539062 173.519531 -99.539062 Z M 176.21875 -117.359375 C 175.859375 -117.179688 175.679688 -116.460938 175.679688 -115.921875 C 175.679688 -114.839844 175.5 -114.480469 173.878906 -111.238281 C 173.339844 -109.980469 172.980469 -108.539062 172.980469 -107.820312 C 172.980469 -106.921875 172.621094 -106.019531 172.441406 -105.660156 C 171.898438 -105.480469 171.71875 -104.578125 171.71875 -103.859375 C 171.539062 -103.140625 171.359375 -102.058594 170.820312 -101.519531 C 170.640625 -100.800781 170.101562 -98.640625 169.738281 -96.839844 C 169.378906 -94.859375 168.660156 -92.339844 168.121094 -91.261719 C 167.398438 -90.359375 167.039062 -88.921875 167.039062 -88.199219 C 167.039062 -87.660156 166.679688 -86.941406 166.5 -86.761719 C 165.960938 -86.578125 165.601562 -85.679688 165.421875 -84.421875 C 164.878906 -79.738281 164.699219 -78.121094 164.160156 -77.398438 C 163.980469 -77.039062 163.441406 -75.238281 163.261719 -73.441406 C 162.71875 -71.460938 162.179688 -70.019531 162 -70.019531 C 161.640625 -70.019531 161.640625 -69.300781 161.640625 -68.21875 C 161.640625 -67.5 161.28125 -66.058594 161.101562 -65.339844 C 160.738281 -64.621094 160.378906 -62.640625 160.378906 -61.199219 C 160.199219 -59.578125 159.839844 -58.140625 159.480469 -57.960938 C 159.300781 -57.78125 158.761719 -56.878906 158.578125 -56.160156 C 158.21875 -55.261719 157.679688 -54.539062 157.320312 -54.539062 C 156.78125 -54.539062 156.601562 -55.078125 156.960938 -56.160156 C 157.140625 -56.878906 157.320312 -58.140625 157.5 -58.679688 C 157.5 -59.21875 157.859375 -61.199219 158.398438 -62.820312 C 158.941406 -64.441406 159.480469 -66.601562 159.660156 -67.5 C 159.839844 -68.398438 160.378906 -70.199219 160.738281 -71.640625 C 161.101562 -72.898438 161.640625 -74.519531 161.640625 -75.058594 C 161.640625 -75.601562 162 -77.21875 162.359375 -78.480469 C 162.71875 -80.101562 163.441406 -82.800781 163.980469 -84.78125 C 164.339844 -86.578125 165.421875 -90.898438 166.5 -93.960938 C 168.660156 -101.878906 168.839844 -102.601562 167.761719 -103.320312 C 167.398438 -103.679688 167.039062 -104.398438 167.039062 -104.578125 C 167.039062 -104.941406 167.398438 -104.761719 168.121094 -104.21875 C 169.199219 -103.140625 169.199219 -103.140625 170.28125 -107.101562 C 170.640625 -108.898438 171.179688 -110.519531 171.359375 -110.699219 C 171.71875 -111.058594 171.898438 -111.601562 171.898438 -112.140625 C 171.898438 -112.5 172.441406 -114.121094 172.980469 -115.738281 C 174.058594 -118.078125 174.421875 -118.621094 175.5 -118.621094 C 176.761719 -118.621094 177.121094 -117.898438 176.21875 -117.359375 Z M 177.480469 -124.378906 C 176.21875 -124.019531 176.039062 -124.019531 176.398438 -124.921875 C 176.578125 -125.460938 176.761719 -126 176.761719 -126.359375 C 176.761719 -126.71875 177.121094 -126.898438 177.480469 -126.898438 C 178.558594 -126.898438 178.558594 -124.921875 177.480469 -124.378906 Z M 178.921875 -130.140625 C 178.019531 -130.140625 177.660156 -130.320312 178.199219 -130.859375 C 178.738281 -131.398438 179.101562 -131.398438 179.640625 -130.859375 C 180.179688 -130.320312 179.820312 -130.140625 178.921875 -130.140625 Z M 190.261719 -127.441406 C 190.261719 -127.261719 189.898438 -126.71875 189.539062 -126.71875 C 187.738281 -126 183.238281 -126 183.421875 -126.359375 C 183.601562 -126.71875 184.679688 -126.898438 185.578125 -126.898438 C 186.660156 -126.898438 187.738281 -127.261719 187.738281 -127.441406 C 188.28125 -128.160156 190.261719 -128.160156 190.261719 -127.441406 Z M 187.199219 -131.21875 C 188.460938 -131.578125 189.71875 -131.578125 189.898438 -131.21875 C 190.261719 -130.859375 189.359375 -130.679688 187.738281 -130.679688 L 185.039062 -130.859375 Z M 223.019531 -241.199219 C 222.121094 -239.761719 221.761719 -238.320312 221.941406 -238.320312 C 222.121094 -238.140625 221.761719 -237.058594 221.039062 -235.980469 C 220.5 -234.71875 219.421875 -232.558594 218.699219 -230.761719 C 217.980469 -229.140625 217.078125 -227.519531 216.71875 -227.339844 C 216.539062 -227.339844 216.179688 -226.621094 216.179688 -226.078125 C 216.179688 -224.460938 214.019531 -219.960938 213.300781 -219.421875 C 212.761719 -219.058594 212.398438 -218.160156 212.398438 -217.441406 C 212.398438 -216.539062 211.859375 -215.101562 211.320312 -214.199219 C 210.78125 -213.121094 210.238281 -211.859375 210.238281 -211.5 C 210.238281 -211.320312 209.519531 -209.519531 208.621094 -207.898438 C 207.71875 -206.101562 207 -204.121094 207 -203.398438 C 207 -202.859375 206.28125 -201.058594 205.378906 -199.261719 C 204.480469 -197.820312 203.578125 -195.300781 203.21875 -193.859375 C 202.679688 -191.160156 202.140625 -189.898438 200.339844 -186.480469 C 199.800781 -185.398438 199.441406 -184.320312 199.441406 -183.960938 C 199.441406 -183.421875 198.898438 -182.519531 198.359375 -181.621094 C 197.640625 -180.359375 197.101562 -179.28125 197.101562 -177.480469 C 197.28125 -176.21875 197.101562 -174.960938 196.738281 -174.78125 C 196.019531 -174.421875 194.039062 -169.738281 194.039062 -168.480469 C 194.039062 -167.941406 193.859375 -167.21875 193.5 -167.21875 C 193.320312 -167.039062 192.960938 -166.5 192.960938 -166.140625 C 192.960938 -165.601562 192.421875 -164.339844 191.699219 -163.261719 C 190.980469 -162.179688 190.441406 -160.921875 190.441406 -160.558594 C 190.441406 -159.300781 188.820312 -155.160156 188.28125 -154.621094 C 187.921875 -154.441406 188.101562 -154.078125 188.640625 -153.71875 C 189.179688 -153.359375 189.179688 -153 188.28125 -152.101562 C 187.558594 -151.378906 186.660156 -149.578125 186.121094 -148.320312 C 185.578125 -146.699219 185.039062 -145.261719 184.5 -144.898438 C 184.140625 -144.539062 183.960938 -144.179688 183.960938 -143.820312 C 184.140625 -143.640625 184.140625 -142.921875 183.960938 -142.378906 C 183.601562 -141.839844 182.878906 -140.039062 182.339844 -138.238281 C 181.800781 -135.898438 181.261719 -135.179688 180.539062 -135.179688 C 179.460938 -135.179688 179.640625 -135.898438 181.078125 -139.679688 C 181.261719 -140.398438 181.621094 -141.839844 181.621094 -142.558594 C 181.621094 -143.28125 182.339844 -145.078125 183.238281 -146.878906 C 184.140625 -148.679688 184.859375 -150.660156 184.859375 -151.019531 C 184.859375 -151.378906 185.21875 -152.460938 185.578125 -153 C 186.121094 -153.71875 186.660156 -154.800781 186.660156 -155.519531 C 186.660156 -156.238281 187.199219 -157.5 187.558594 -158.21875 C 187.738281 -159.300781 188.820312 -162.179688 189.71875 -164.878906 C 190.621094 -167.761719 192.058594 -171.359375 193.140625 -173.160156 C 194.941406 -176.941406 196.199219 -180.359375 196.199219 -181.800781 C 196.199219 -182.339844 196.738281 -183.421875 197.28125 -184.320312 C 197.820312 -185.039062 198.359375 -186.121094 198.359375 -186.660156 C 198.359375 -187.019531 198.71875 -188.460938 199.441406 -189.539062 C 201.960938 -194.941406 203.21875 -198 203.21875 -198.71875 C 203.21875 -199.800781 210.238281 -215.640625 210.960938 -216.539062 C 211.140625 -216.71875 211.320312 -217.261719 211.320312 -217.800781 C 211.320312 -218.160156 212.761719 -221.398438 214.378906 -224.640625 C 217.800781 -232.019531 219.421875 -235.441406 219.421875 -236.160156 C 219.421875 -236.878906 224.28125 -246.78125 224.820312 -246.78125 C 225.179688 -246.78125 224.28125 -244.078125 223.019531 -241.199219 Z M 145.261719 -66.960938 C 145.980469 -68.398438 145.980469 -68.941406 145.261719 -68.578125 C 145.078125 -68.398438 144.71875 -67.679688 144.71875 -67.140625 C 144.898438 -65.878906 144.898438 -65.878906 145.261719 -66.960938 Z M 156.058594 -84.960938 C 155.878906 -84.78125 155.519531 -84.238281 155.519531 -83.699219 C 155.519531 -82.980469 155.699219 -82.980469 156.058594 -83.699219 C 156.78125 -84.78125 156.78125 -85.5 156.058594 -84.960938 Z M 116.28125 -126.359375 C 116.460938 -126.71875 116.101562 -126.898438 115.199219 -126.898438 C 114.660156 -126.898438 113.761719 -126.71875 113.578125 -126.359375 C 113.578125 -126 113.941406 -125.820312 114.660156 -125.820312 C 115.378906 -125.820312 116.28125 -126 116.28125 -126.359375 Z M 153.359375 -92.160156 C 153.359375 -93.058594 153.359375 -93.058594 152.820312 -92.160156 C 152.28125 -91.441406 151.738281 -91.078125 151.378906 -91.078125 C 151.019531 -91.261719 150.660156 -91.078125 150.660156 -90.539062 C 150.660156 -89.640625 150.839844 -89.640625 151.921875 -90.359375 C 152.640625 -90.71875 153.359375 -91.621094 153.359375 -92.160156 Z M 150.121094 -86.578125 C 150.480469 -86.761719 150.660156 -87.121094 150.660156 -87.480469 C 150.660156 -87.839844 150.480469 -87.839844 150.121094 -87.660156 C 149.941406 -87.660156 149.578125 -87.121094 149.578125 -86.941406 C 149.578125 -86.578125 149.941406 -86.578125 150.121094 -86.578125 Z M 148.140625 -76.859375 C 148.320312 -77.039062 148.320312 -77.398438 148.140625 -77.941406 C 147.960938 -78.660156 147.78125 -78.660156 147.421875 -77.941406 C 147.238281 -77.578125 146.878906 -77.21875 146.878906 -76.859375 C 146.878906 -76.320312 147.78125 -76.320312 148.140625 -76.859375 Z M 146.339844 -74.339844 C 146.339844 -73.980469 146.699219 -73.980469 146.878906 -73.980469 C 147.601562 -74.519531 147.601562 -74.878906 146.878906 -74.878906 C 146.699219 -74.878906 146.339844 -74.519531 146.339844 -74.339844 Z M 158.761719 -117.539062 C 158.578125 -117.539062 158.21875 -117.179688 158.21875 -116.820312 C 158.21875 -116.28125 158.578125 -116.101562 158.761719 -116.28125 C 159.480469 -116.640625 159.480469 -117.539062 158.761719 -117.539062 Z M 158.761719 -111.058594 C 158.578125 -110.519531 158.21875 -109.980469 158.21875 -109.621094 C 158.21875 -109.441406 158.578125 -109.441406 158.761719 -109.980469 C 159.121094 -110.339844 159.300781 -111.058594 159.300781 -111.238281 C 159.300781 -111.601562 159.121094 -111.421875 158.761719 -111.058594 Z M 153.71875 -74.699219 C 153.539062 -74.878906 153.359375 -74.519531 153.359375 -73.980469 C 153.539062 -73.441406 153.539062 -73.261719 153.898438 -73.621094 C 153.898438 -73.980469 153.898438 -74.519531 153.71875 -74.699219 Z M 159.839844 -97.019531 C 160.199219 -97.199219 160.378906 -97.921875 160.378906 -98.28125 C 160.378906 -99.179688 160.378906 -99.179688 159.839844 -98.460938 C 159.660156 -98.101562 159.300781 -97.378906 159.300781 -97.199219 C 159.300781 -96.839844 159.660156 -96.839844 159.839844 -97.019531 Z M 158.21875 -91.800781 C 158.578125 -91.800781 158.761719 -92.160156 158.761719 -92.339844 C 158.761719 -92.878906 158.578125 -92.878906 158.21875 -92.699219 C 158.039062 -92.519531 157.679688 -92.339844 157.679688 -92.160156 C 157.679688 -91.980469 158.039062 -91.800781 158.21875 -91.800781 Z M 157.679688 -88.921875 C 158.398438 -89.28125 158.398438 -90.179688 157.679688 -90.179688 C 157.5 -90.179688 157.140625 -89.820312 157.140625 -89.460938 C 157.140625 -88.921875 157.5 -88.738281 157.679688 -88.921875 Z M 154.980469 -103.679688 C 154.980469 -104.21875 154.980469 -104.761719 154.800781 -104.941406 C 154.621094 -104.941406 154.441406 -104.761719 154.441406 -104.21875 C 154.621094 -103.5 154.621094 -103.320312 154.980469 -103.679688 Z M 154.980469 -97.019531 C 155.699219 -97.378906 155.699219 -97.921875 154.980469 -97.921875 C 154.800781 -97.921875 154.441406 -97.558594 154.441406 -97.378906 C 154.441406 -96.839844 154.800781 -96.839844 154.980469 -97.019531 Z M 115.378906 -123.839844 C 116.820312 -124.019531 118.441406 -124.378906 118.980469 -124.378906 C 119.519531 -124.558594 120.78125 -124.738281 121.5 -124.738281 C 122.761719 -124.921875 122.761719 -124.921875 121.140625 -125.460938 C 119.519531 -125.820312 119.160156 -125.820312 118.800781 -125.28125 C 118.441406 -124.738281 117.71875 -124.738281 116.28125 -124.921875 C 114.660156 -125.101562 113.941406 -124.921875 113.398438 -124.378906 C 112.859375 -123.839844 113.039062 -123.660156 115.378906 -123.839844 Z M 171.359375 -152.101562 C 171.898438 -152.101562 172.441406 -154.261719 172.078125 -154.980469 C 171.539062 -155.878906 170.820312 -154.800781 170.820312 -153.539062 C 170.820312 -152.640625 171 -152.101562 171.359375 -152.101562 Z M 172.441406 -155.878906 C 172.621094 -155.878906 172.980469 -156.421875 172.980469 -156.78125 C 172.980469 -157.320312 172.621094 -157.5 172.441406 -157.320312 C 172.078125 -157.140625 171.898438 -156.78125 171.898438 -156.421875 C 171.898438 -156.238281 172.078125 -155.878906 172.441406 -155.878906 Z M 169.738281 -144.359375 C 169.738281 -144.179688 169.921875 -143.820312 170.28125 -143.820312 C 170.460938 -143.820312 170.820312 -144.179688 170.820312 -144.359375 C 170.820312 -144.71875 170.460938 -144.898438 170.28125 -144.898438 C 169.921875 -144.898438 169.738281 -144.71875 169.738281 -144.359375 Z M 175.140625 -163.261719 C 175.679688 -163.800781 175.679688 -164.699219 175.140625 -164.699219 C 174.78125 -164.699219 174.601562 -164.339844 174.601562 -163.800781 C 174.601562 -163.261719 174.78125 -163.261719 175.140625 -163.261719 Z M 169.738281 -148.5 C 170.28125 -149.039062 170.28125 -149.941406 169.738281 -149.941406 C 169.378906 -149.941406 169.199219 -149.578125 169.199219 -149.039062 C 169.199219 -148.5 169.378906 -148.320312 169.738281 -148.5 Z M 90.539062 -194.761719 C 90.898438 -194.761719 91.078125 -195.300781 91.078125 -195.660156 C 91.078125 -196.199219 90.898438 -196.378906 90.539062 -196.199219 C 90.359375 -196.019531 90 -195.660156 90 -195.300781 C 90 -195.121094 90.359375 -194.761719 90.539062 -194.761719 Z M 175.5 -159.121094 C 174.78125 -159.660156 174.601562 -158.941406 174.238281 -156.960938 L 174.058594 -155.160156 L 174.78125 -156.960938 C 175.320312 -157.859375 175.679688 -158.761719 175.5 -159.121094 Z M 173.160156 -152.460938 C 174.058594 -153.539062 174.238281 -155.160156 173.519531 -154.621094 C 173.339844 -154.441406 172.980469 -153.539062 172.800781 -152.820312 C 172.441406 -151.378906 172.441406 -151.378906 173.160156 -152.460938 Z M 87.480469 -187.558594 C 88.378906 -188.460938 89.101562 -188.460938 88.738281 -187.738281 C 88.558594 -187.378906 88.558594 -187.199219 88.921875 -187.199219 C 89.28125 -187.199219 89.460938 -187.558594 89.460938 -188.101562 C 89.460938 -188.460938 90 -189.539062 90.539062 -190.078125 C 91.261719 -190.800781 91.261719 -190.980469 90.539062 -190.980469 C 90 -190.980469 89.460938 -190.800781 89.460938 -190.441406 C 89.460938 -190.078125 88.921875 -189.539062 88.199219 -189.359375 C 87.480469 -189 86.761719 -188.460938 86.761719 -187.921875 C 86.761719 -187.199219 86.941406 -187.019531 87.480469 -187.558594 Z M 76.5 -149.398438 C 76.859375 -149.398438 77.039062 -149.941406 77.039062 -150.660156 C 77.039062 -151.558594 76.859375 -151.738281 76.5 -151.019531 C 76.320312 -150.660156 75.960938 -150.121094 75.960938 -149.761719 C 75.960938 -149.578125 76.320312 -149.398438 76.5 -149.398438 Z M 73.621094 -140.941406 C 73.980469 -141.839844 74.160156 -142.738281 73.980469 -142.738281 C 73.621094 -143.28125 72.71875 -141.480469 72.71875 -140.398438 C 72.71875 -139.5 73.078125 -139.679688 73.621094 -140.941406 Z M 84.058594 -167.761719 C 84.421875 -167.761719 84.601562 -168.300781 84.421875 -168.480469 C 84.238281 -168.839844 83.878906 -169.019531 83.519531 -168.839844 C 83.339844 -168.660156 83.160156 -168.300781 83.339844 -167.941406 C 83.519531 -167.761719 83.878906 -167.578125 84.058594 -167.761719 Z M 131.761719 -128.339844 C 131.761719 -128.160156 132.480469 -128.160156 133.199219 -128.339844 C 134.460938 -128.699219 134.640625 -128.519531 134.101562 -127.980469 C 133.738281 -127.621094 133.378906 -127.078125 133.378906 -126.71875 C 133.378906 -126.359375 135.359375 -126.539062 143.101562 -127.261719 C 144.71875 -127.621094 146.160156 -127.980469 146.339844 -128.339844 C 146.519531 -129.238281 144.71875 -129.421875 143.820312 -128.519531 C 143.460938 -128.160156 142.921875 -128.160156 142.019531 -128.339844 C 140.761719 -128.878906 140.941406 -128.878906 143.101562 -129.421875 C 145.261719 -130.140625 150.660156 -130.859375 152.640625 -131.039062 C 152.820312 -131.039062 153.179688 -131.21875 153.179688 -131.578125 C 153.179688 -132.121094 153.359375 -132.121094 143.460938 -131.039062 C 135.71875 -130.140625 131.761719 -129.238281 131.761719 -128.339844 Z M 138.78125 -129.058594 C 140.21875 -128.878906 140.398438 -128.699219 139.859375 -128.339844 C 139.140625 -127.800781 135.539062 -127.441406 135.359375 -127.980469 C 134.820312 -128.699219 136.980469 -129.421875 138.78125 -129.058594 Z M 86.21875 -180.539062 C 86.761719 -180.539062 88.019531 -184.859375 87.839844 -185.578125 C 87.480469 -186.121094 87.480469 -185.761719 87.300781 -185.039062 C 87.300781 -184.5 86.941406 -183.78125 86.578125 -183.421875 C 86.21875 -183.238281 85.679688 -182.699219 85.679688 -181.980469 C 85.679688 -181.078125 86.039062 -180.539062 86.21875 -180.539062 Z M 149.578125 -129.601562 C 149.039062 -129.601562 148.5 -129.421875 148.320312 -129.058594 C 148.140625 -128.878906 148.679688 -128.519531 149.578125 -128.519531 C 150.660156 -128.519531 151.199219 -128.878906 151.019531 -129.058594 C 150.839844 -129.421875 150.121094 -129.601562 149.578125 -129.601562 Z M 86.21875 -179.460938 C 86.21875 -180.179688 83.519531 -179.820312 83.160156 -179.101562 C 82.980469 -178.738281 83.519531 -178.378906 84.058594 -178.199219 C 84.960938 -178.019531 86.21875 -178.738281 86.21875 -179.460938 Z M 92.519531 -194.761719 C 92.878906 -194.398438 93.238281 -194.941406 93.78125 -196.921875 C 94.320312 -198.179688 94.859375 -199.621094 95.039062 -199.800781 C 95.578125 -200.160156 96.660156 -202.320312 96.660156 -202.859375 C 96.660156 -203.21875 96.300781 -203.039062 96.121094 -202.679688 C 95.761719 -202.140625 95.578125 -201.960938 95.21875 -202.5 C 95.039062 -202.679688 95.578125 -203.398438 96.300781 -203.578125 C 97.558594 -203.941406 97.738281 -204.300781 97.199219 -205.199219 C 96.480469 -206.460938 95.578125 -206.101562 95.578125 -204.839844 C 95.578125 -203.941406 95.398438 -203.941406 95.039062 -204.660156 C 94.5 -205.378906 94.320312 -205.378906 94.320312 -204.480469 C 94.320312 -203.941406 94.140625 -203.578125 93.78125 -203.578125 C 93.601562 -203.578125 93.238281 -203.398438 93.238281 -203.039062 C 93.238281 -202.679688 93.601562 -202.679688 93.78125 -202.679688 C 94.5 -203.21875 94.320312 -202.140625 92.699219 -198 C 92.160156 -196.019531 91.980469 -195.300781 92.339844 -194.761719 Z M 183.421875 -180.359375 C 183.601562 -180.898438 183.421875 -181.078125 183.238281 -180.898438 C 182.878906 -180.71875 182.699219 -180.359375 182.699219 -180 C 182.699219 -179.28125 183.058594 -179.28125 183.421875 -180.359375 Z M 181.078125 -180 C 181.261719 -180 181.621094 -180.359375 181.621094 -180.539062 C 181.621094 -181.078125 181.261719 -181.078125 181.078125 -180.898438 C 180.71875 -180.71875 180.539062 -180.359375 180.539062 -180.359375 C 180.539062 -180.179688 180.71875 -180 181.078125 -180 Z M 180.539062 -178.378906 C 180.71875 -178.378906 181.078125 -178.738281 181.078125 -178.921875 C 181.078125 -179.28125 180.71875 -179.460938 180.539062 -179.460938 C 180.179688 -179.460938 180 -179.28125 180 -178.921875 C 180 -178.738281 180.179688 -178.378906 180.539062 -178.378906 Z M 186.480469 -192.601562 C 186.660156 -192.601562 187.019531 -192.960938 187.199219 -193.5 C 187.378906 -194.039062 187.199219 -194.21875 186.660156 -194.21875 C 186.300781 -194.21875 185.941406 -193.859375 185.941406 -193.5 C 185.941406 -192.960938 186.121094 -192.601562 186.480469 -192.601562 Z M 92.160156 -188.460938 C 92.160156 -188.28125 92.699219 -188.460938 93.058594 -189 C 93.421875 -189.539062 93.78125 -190.078125 93.601562 -190.441406 C 93.238281 -190.800781 92.160156 -189.359375 92.160156 -188.460938 Z M 183.238281 -185.039062 C 183.601562 -185.761719 184.320312 -187.378906 184.859375 -188.460938 C 186.121094 -190.621094 186.121094 -190.980469 185.398438 -190.980469 C 184.679688 -190.980469 183.238281 -187.558594 182.878906 -185.21875 C 182.699219 -183.601562 182.699219 -183.601562 183.238281 -185.039062 Z M 90.539062 -192.960938 C 90.539062 -192.421875 90.898438 -192.238281 91.441406 -192.421875 C 91.800781 -192.601562 92.160156 -192.960938 91.800781 -193.5 C 91.621094 -194.398438 90.539062 -194.039062 90.539062 -192.960938 Z M 183.78125 -183.058594 C 183.421875 -182.878906 183.238281 -182.519531 183.238281 -182.160156 C 183.238281 -181.800781 183.421875 -181.800781 183.78125 -181.980469 C 183.960938 -182.160156 184.320312 -182.519531 184.320312 -182.699219 C 184.320312 -183.238281 183.960938 -183.238281 183.78125 -183.058594 Z M 70.378906 -133.199219 C 70.921875 -132.839844 71.640625 -134.101562 71.640625 -135 C 71.640625 -135.359375 71.460938 -135.71875 71.101562 -135.71875 C 70.558594 -135.71875 70.019531 -133.558594 70.378906 -133.199219 Z M 86.21875 -175.140625 C 86.039062 -174.78125 85.679688 -174.058594 85.679688 -173.699219 C 85.679688 -173.519531 86.039062 -173.519531 86.21875 -174.058594 C 86.578125 -174.421875 86.761719 -175.140625 86.761719 -175.320312 C 86.761719 -175.679688 86.578125 -175.5 86.21875 -175.140625 Z M 88.378906 -180.359375 C 88.199219 -180.179688 87.839844 -179.460938 87.839844 -179.101562 C 87.839844 -178.199219 88.019531 -178.199219 88.738281 -179.28125 C 89.460938 -180.359375 89.460938 -181.078125 88.378906 -180.359375 Z M 121.140625 -127.261719 C 122.21875 -127.980469 122.21875 -127.980469 121.140625 -127.980469 C 119.519531 -127.980469 118.261719 -127.441406 118.441406 -126.898438 C 118.980469 -126 120.058594 -126.179688 121.140625 -127.261719 Z M 94.320312 -193.5 C 94.140625 -193.320312 93.78125 -192.960938 93.78125 -192.601562 C 93.78125 -191.878906 94.320312 -191.878906 94.679688 -192.960938 C 94.859375 -193.5 94.679688 -193.679688 94.320312 -193.5 Z M 94.320312 -194.578125 C 94.320312 -194.398438 94.679688 -194.21875 95.039062 -194.21875 C 95.578125 -194.21875 96.121094 -197.101562 95.761719 -197.460938 C 95.578125 -197.640625 94.320312 -195.300781 94.320312 -194.578125 Z M 180.179688 -177.121094 C 179.640625 -177.660156 179.101562 -176.578125 178.558594 -174.601562 L 178.378906 -172.621094 L 179.460938 -174.78125 C 180.179688 -175.859375 180.539062 -176.941406 180.179688 -177.121094 Z M 176.761719 -167.941406 C 176.941406 -167.941406 177.300781 -168.480469 177.300781 -168.839844 C 177.300781 -169.378906 176.941406 -169.558594 176.761719 -169.378906 C 176.398438 -169.199219 176.21875 -168.839844 176.21875 -168.480469 C 176.21875 -168.300781 176.398438 -167.941406 176.761719 -167.941406 Z M 86.941406 -120.78125 C 86.761719 -120.421875 86.21875 -120.421875 85.679688 -120.601562 C 85.140625 -120.78125 84.601562 -120.78125 84.601562 -120.421875 C 84.601562 -120.058594 84.238281 -119.699219 83.699219 -119.699219 C 81.179688 -118.980469 86.761719 -119.339844 93.78125 -120.421875 C 101.519531 -121.5 103.140625 -122.039062 102.058594 -122.761719 C 101.699219 -122.941406 101.519531 -122.941406 101.519531 -122.578125 C 101.519531 -122.398438 100.621094 -122.21875 99.71875 -122.21875 C 98.820312 -122.398438 97.738281 -122.039062 97.199219 -121.859375 C 96.839844 -121.5 96.660156 -121.5 96.660156 -121.859375 C 96.660156 -122.578125 92.878906 -122.039062 91.980469 -121.5 C 91.621094 -121.140625 90.539062 -120.960938 89.460938 -121.140625 C 88.199219 -121.140625 87.300781 -120.960938 86.941406 -120.78125 Z M 174.058594 -140.039062 C 174.058594 -140.398438 173.699219 -140.398438 173.519531 -140.398438 C 173.160156 -140.21875 172.980469 -139.859375 172.980469 -139.859375 C 172.980469 -139.679688 173.160156 -139.5 173.519531 -139.5 C 173.699219 -139.5 174.058594 -139.859375 174.058594 -140.039062 Z M 111.960938 -126.179688 C 111.78125 -126.898438 103.140625 -125.460938 102.238281 -124.738281 C 101.878906 -124.199219 102.058594 -124.199219 103.679688 -124.378906 C 104.761719 -124.558594 106.738281 -124.921875 108.179688 -125.101562 C 111.601562 -125.460938 112.5 -125.640625 111.960938 -126.179688 Z M 93.238281 -123.121094 C 93.960938 -123.480469 93.960938 -123.660156 93.058594 -123.660156 C 91.441406 -123.839844 90.359375 -123.660156 89.820312 -123.121094 C 89.101562 -122.398438 92.160156 -122.398438 93.238281 -123.121094 Z M 104.398438 -122.578125 C 104.578125 -122.21875 104.941406 -122.039062 105.300781 -122.21875 C 105.660156 -122.578125 105.660156 -122.761719 105.300781 -123.121094 C 104.21875 -123.660156 103.859375 -123.300781 104.398438 -122.578125 Z M 107.460938 -123.121094 C 107.460938 -122.398438 107.460938 -122.398438 109.441406 -123.121094 C 110.519531 -123.480469 110.699219 -123.839844 110.160156 -124.199219 C 109.261719 -124.738281 107.460938 -123.839844 107.460938 -123.121094 Z M 172.980469 -138.601562 C 172.621094 -138.601562 172.441406 -138.058594 172.441406 -137.519531 C 172.441406 -136.980469 172.621094 -136.980469 172.980469 -136.980469 C 173.160156 -137.160156 173.519531 -137.699219 173.519531 -138.058594 C 173.519531 -138.601562 173.160156 -138.78125 172.980469 -138.601562 Z M 180.71875 -161.640625 C 180.359375 -161.101562 180 -160.378906 180 -159.839844 C 180 -159.300781 181.078125 -158.941406 181.078125 -159.660156 C 181.078125 -159.839844 181.261719 -160.558594 181.261719 -161.460938 C 181.800781 -162.71875 181.621094 -162.71875 180.71875 -161.640625 Z M 185.941406 -175.320312 C 185.578125 -175.320312 185.398438 -174.78125 185.398438 -174.601562 C 185.398438 -174.238281 185.578125 -174.058594 185.941406 -174.058594 C 186.121094 -174.058594 186.480469 -174.421875 186.480469 -174.78125 C 186.480469 -175.320312 186.121094 -175.5 185.941406 -175.320312 Z M 183.78125 -170.460938 C 183.78125 -169.921875 183.960938 -169.738281 184.320312 -169.921875 C 185.039062 -170.28125 185.039062 -171.359375 184.320312 -171.359375 C 183.960938 -171.359375 183.78125 -170.820312 183.78125 -170.460938 Z M 97.199219 -123.121094 C 99.898438 -123.660156 100.800781 -123.839844 100.261719 -124.378906 C 99.71875 -124.921875 94.320312 -124.199219 94.320312 -123.480469 C 94.320312 -123.121094 95.398438 -123.121094 97.199219 -123.121094 Z M 178.558594 -156.238281 C 178.199219 -155.519531 177.839844 -154.621094 177.839844 -153.71875 C 178.019531 -152.460938 178.019531 -152.460938 178.558594 -154.078125 C 179.640625 -156.421875 179.640625 -157.5 178.558594 -156.238281 Z M 176.21875 -148.5 C 175.859375 -148.320312 175.679688 -147.960938 175.679688 -147.78125 C 175.679688 -147.421875 175.859375 -147.238281 176.21875 -147.238281 C 176.398438 -147.238281 176.761719 -147.601562 176.761719 -147.960938 C 176.761719 -148.5 176.398438 -148.679688 176.21875 -148.5 Z M 176.21875 -148.5 "/></g></g></g><g fill="#4120a9" fill-opacity="1"><g transform="translate(223.395509, 328.626886)"><g/></g></g><g fill="#4120a9" fill-opacity="1"><g transform="translate(259.395507, 328.626886)"><g/></g></g><g fill="#fabec0" fill-opacity="1"><g transform="translate(223.836676, 332.876901)"><g><path d="M 25.199219 -21.980469 C 22.398438 -24.5 18.898438 -26.179688 16.378906 -26.179688 C 11.339844 -26.179688 7.417969 -24.777344 3.78125 -21.839844 C 2.101562 -20.578125 0.421875 -13.019531 1.539062 -11.199219 C 3.21875 -7.980469 4.898438 -5.738281 6.578125 -4.761719 C 7.558594 -4.058594 8.539062 -3.5 8.679688 -3.5 C 8.960938 -3.5 9.519531 -3.078125 10.21875 -2.660156 C 10.78125 -2.238281 12.179688 -1.539062 13.300781 -0.980469 C 14.417969 -0.558594 16.378906 -0.140625 17.5 -0.140625 C 19.460938 -0.140625 19.738281 -0.28125 22.960938 -2.941406 L 26.179688 -5.738281 L 27.71875 -10.21875 C 28.980469 -14.28125 29.117188 -14.699219 28.699219 -16.378906 C 27.71875 -19.039062 27.019531 -20.160156 25.199219 -21.980469 Z M 25.199219 -21.980469 "/></g></g></g></svg>