<?xml version="1.0" standalone="no"?>
<!DOCTYPE svg PUBLIC "-//W3C//DTD SVG 20010904//EN"
 "http://www.w3.org/TR/2001/REC-SVG-20010904/DTD/svg10.dtd">
<svg version="1.0" xmlns="http://www.w3.org/2000/svg"
 width="700.000000pt" height="700.000000pt" viewBox="0 0 700.000000 700.000000"
 preserveAspectRatio="xMidYMid meet">
<metadata>
Created by potrace 1.14, written by Peter Selinger 2001-2017
</metadata>
<g transform="translate(0.000000,700.000000) scale(0.100000,-0.100000)"
fill="#000000" stroke="none">
<path d="M5062 6245 c-23 -10 -37 -26 -48 -52 -8 -21 -21 -51 -29 -68 -8 -16
-17 -46 -20 -66 -3 -19 -16 -51 -30 -69 -24 -33 -25 -33 -25 -9 0 13 12 42 26
62 28 42 27 59 -2 30 -21 -22 -94 -133 -94 -144 0 -5 12 -3 26 3 21 10 27 9
34 -3 13 -19 8 -31 -71 -202 -38 -81 -69 -150 -69 -153 0 -3 -14 -36 -31 -72
-41 -90 -79 -180 -79 -189 0 -16 53 71 86 142 34 73 52 98 38 53 -10 -35 -56
-130 -77 -161 -23 -33 -19 -57 6 -33 20 20 20 19 6 -23 -6 -17 -15 -31 -19
-31 -5 0 -12 -14 -15 -32 -4 -18 -11 -39 -16 -48 -4 -8 -22 -47 -39 -87 -30
-72 -38 -106 -21 -88 12 13 106 203 116 235 4 14 21 53 36 87 34 72 35 80 12
85 -14 3 -11 7 12 18 22 11 40 38 74 108 77 157 68 97 -12 -78 -14 -31 -30
-73 -35 -94 -9 -32 -9 -36 4 -25 8 6 14 15 14 20 0 5 26 64 58 131 32 68 74
156 92 195 19 40 35 71 37 69 8 -7 -72 -206 -157 -391 -68 -148 -80 -175 -153
-340 -60 -135 -154 -367 -236 -580 -4 -11 -20 -46 -34 -78 -15 -31 -27 -62
-27 -68 0 -5 -19 -54 -41 -107 -46 -106 -126 -319 -139 -367 -4 -16 -24 -73
-45 -125 -20 -52 -41 -111 -47 -130 -5 -19 -15 -41 -20 -48 -6 -7 -8 -15 -5
-18 3 -3 1 -18 -5 -33 -5 -14 -12 -37 -15 -51 -5 -31 -6 -31 -46 -45 -64 -22
-71 -3 -31 90 57 134 92 234 99 284 2 18 12 45 21 58 8 14 17 35 20 46 2 12
15 51 29 86 14 36 25 69 25 75 0 5 9 28 19 50 11 23 31 77 46 121 15 44 35 94
46 111 10 17 20 40 22 51 2 12 8 27 15 35 15 19 52 139 46 150 -10 17 -24 7
-24 -17 0 -13 -8 -39 -18 -57 -19 -35 -67 -158 -98 -248 -23 -69 -34 -86 -45
-68 -6 9 -13 1 -24 -24 -18 -44 -18 -48 -5 -48 6 0 10 7 10 15 0 8 4 15 10 15
5 0 1 -23 -11 -51 -28 -73 -38 -89 -53 -89 -8 0 -17 -7 -20 -16 -3 -8 -2 -12
3 -9 21 12 20 -17 -3 -86 -37 -111 -62 -173 -74 -177 -6 -2 -8 -10 -5 -18 3
-8 -1 -14 -11 -14 -18 0 -22 -16 -5 -22 6 -2 -6 -49 -31 -118 -37 -102 -62
-158 -47 -105 3 11 8 36 12 55 l6 35 -17 -29 c-16 -29 -22 -47 -23 -76 -1 -13
-3 -13 -10 0 -6 8 -7 18 -5 22 3 4 -1 8 -9 8 -8 0 -18 -11 -21 -24 -6 -26 -17
-32 -76 -41 -108 -17 -125 -34 -29 -29 33 1 59 1 57 -1 -6 -6 -60 -16 -118
-22 -80 -9 -34 -22 58 -17 50 3 71 1 67 -6 -4 -6 -12 -10 -18 -8 -7 1 -37 -2
-67 -7 -30 -4 -66 -9 -80 -10 -51 -5 -136 -16 -155 -20 -11 -2 -83 -11 -160
-20 -77 -9 -151 -18 -165 -20 -55 -10 -208 -34 -250 -39 -159 -19 -301 -38
-335 -46 -37 -8 -62 -11 -197 -26 -29 -3 -64 -7 -78 -9 -24 -4 -24 -4 -5 11
11 8 20 22 20 32 0 12 15 20 53 28 73 16 80 28 12 20 l-55 -7 1 38 c1 35 15
74 49 143 18 37 29 128 13 112 -7 -7 -16 -12 -21 -12 -5 0 7 18 26 40 31 33
77 108 77 124 0 16 -30 -10 -40 -35 -15 -36 -33 -39 -20 -3 19 49 32 66 46 60
26 -10 42 5 49 47 4 23 12 51 18 62 6 11 10 23 9 28 -1 4 7 24 18 44 11 21 20
43 20 50 0 16 31 84 47 103 7 9 24 47 39 85 14 39 29 75 33 80 5 6 16 35 25
65 10 30 26 65 37 78 10 14 19 32 19 40 0 8 24 69 54 136 72 161 86 196 79
196 -3 0 1 8 9 18 9 9 52 94 98 187 45 94 91 188 103 210 11 22 25 49 30 60 6
11 14 27 18 35 38 66 91 172 132 259 38 82 47 110 41 135 -8 39 -36 71 -77 87
-18 6 -45 18 -62 25 -89 38 -217 43 -254 10 -12 -11 -21 -23 -21 -27 0 -8 -68
-124 -124 -211 -20 -32 -47 -65 -60 -74 -24 -15 -41 -43 -32 -52 3 -2 21 6 42
18 l36 23 -26 -40 c-15 -22 -24 -47 -21 -55 7 -18 -15 -75 -90 -233 -76 -159
-103 -218 -163 -355 -27 -63 -64 -146 -82 -185 -18 -38 -59 -135 -92 -215 -33
-80 -65 -158 -73 -175 -40 -91 -191 -484 -245 -635 -34 -96 -66 -184 -70 -195
-5 -11 -21 -57 -36 -102 -14 -46 -31 -83 -38 -83 -29 0 -86 -22 -80 -31 3 -5
15 -7 27 -3 12 3 19 3 14 -1 -6 -8 -228 -68 -350 -96 -82 -19 -61 -5 36 24 51
15 113 34 138 42 26 8 57 15 70 15 25 0 57 16 49 23 -7 7 -476 -114 -640 -164
-167 -51 -263 -78 -317 -91 l-42 -9 4 -60 c5 -64 21 -136 33 -141 4 -2 20 -22
35 -46 28 -44 79 -82 108 -82 9 0 28 9 41 20 51 39 181 77 379 110 68 12 135
23 149 25 14 3 66 13 117 23 51 11 94 18 96 16 4 -4 -1 -23 -93 -359 -29 -104
-53 -197 -55 -205 -2 -8 -8 -35 -14 -60 -7 -25 -14 -56 -17 -70 -3 -14 -9 -41
-14 -61 -13 -48 -59 -275 -66 -319 -9 -67 -13 -95 -21 -130 -19 -91 0 -389 29
-448 13 -25 133 -120 185 -146 33 -16 118 -38 163 -41 64 -4 90 39 51 86 -25
31 -19 45 78 189 171 254 306 526 356 717 19 74 16 101 -9 67 -12 -15 -11 -8
1 41 8 33 22 68 31 78 20 23 23 125 6 177 -6 19 -15 64 -18 100 -15 147 -58
247 -145 343 l-59 65 16 46 c10 28 20 42 26 36 9 -9 56 32 56 49 0 14 -28 21
-34 8 -3 -9 -5 -8 -5 1 -1 17 60 42 129 52 112 17 287 47 431 75 17 3 78 11
164 20 28 3 64 9 80 14 17 5 62 12 100 14 39 3 90 10 115 16 25 5 61 13 80 16
19 4 42 8 50 10 8 2 28 4 43 4 16 1 25 5 22 11 -3 5 -37 8 -76 6 -50 -3 -68
-1 -60 7 17 17 112 14 154 -6 20 -10 42 -15 47 -12 5 3 45 8 87 11 91 5 182
29 199 52 13 18 50 26 59 12 3 -6 -3 -10 -14 -10 -12 0 -21 -4 -21 -9 0 -10
39 -3 56 10 6 5 13 6 17 3 6 -6 -17 -86 -34 -116 -5 -10 -12 -34 -15 -53 -3
-20 -18 -73 -34 -118 -15 -45 -31 -97 -35 -114 -6 -32 -20 -48 -40 -48 -5 0
-11 -8 -13 -17 -2 -11 3 -18 11 -18 12 0 11 -12 -6 -69 -14 -46 -25 -67 -33
-64 -12 4 -36 -28 -32 -44 1 -4 -3 -26 -10 -48 -18 -66 -60 -228 -67 -263 -4
-17 -12 -32 -20 -32 -8 0 -13 -14 -13 -39 0 -22 -13 -72 -28 -113 -14 -40 -28
-102 -31 -138 -3 -36 -10 -68 -15 -71 -6 -4 -8 -18 -5 -30 6 -22 -4 -101 -22
-174 -4 -16 -13 -29 -19 -28 -15 4 -15 -2 0 -27 10 -15 9 -22 -4 -37 -20 -23
-31 -80 -16 -85 8 -3 7 -10 -1 -27 -16 -30 -12 -151 9 -254 21 -101 47 -131
165 -187 81 -39 161 -53 213 -36 27 9 28 21 1 92 -21 54 -21 69 -15 246 3 103
11 200 18 215 6 16 10 31 10 36 -1 4 13 67 32 140 19 73 38 167 41 208 3 41
10 83 15 94 14 33 49 148 54 180 3 17 10 55 15 85 6 30 15 82 21 115 5 33 18
88 29 122 11 34 23 79 26 100 4 21 22 79 40 128 46 124 64 179 82 255 8 36 22
85 31 110 9 25 17 50 18 56 6 36 18 56 39 64 13 5 108 9 210 9 205 0 209 -1
185 -60 -19 -45 -80 -137 -129 -193 -39 -45 -41 -51 -25 -57 31 -12 41 -10 65
16 31 32 42 32 27 -1 -17 -37 1 -44 70 -27 47 11 65 22 99 61 43 46 113 168
113 194 0 8 -18 43 -40 77 -22 34 -40 69 -40 77 0 20 -106 126 -145 147 -46
23 -140 45 -228 53 -78 7 -78 7 -72 33 3 14 18 42 31 63 14 20 29 60 34 90 14
90 21 112 39 133 10 11 28 47 39 80 11 33 34 98 51 145 17 47 31 95 31 107 0
12 3 23 8 25 14 6 55 107 49 122 -4 9 -3 16 1 16 12 0 52 74 52 95 0 9 9 30
20 45 11 16 30 66 41 111 20 81 53 158 90 211 11 14 19 35 19 45 0 10 4 23 9
28 16 19 142 306 136 314 -2 5 2 14 9 21 8 6 29 46 46 88 64 155 80 191 153
327 14 26 121 249 172 356 8 19 22 45 30 59 34 58 68 145 67 172 -2 91 -103
150 -307 182 -16 2 -45 -2 -63 -9z m-56 -801 c-4 -14 -16 -45 -27 -68 -11 -23
-21 -51 -23 -62 -2 -11 -27 -68 -56 -127 -28 -58 -51 -109 -51 -111 1 -11 -41
-101 -53 -116 -7 -8 -17 -28 -20 -45 -8 -30 -21 -65 -57 -142 -11 -22 -29 -70
-40 -105 -11 -34 -27 -72 -34 -84 -7 -11 -22 -52 -34 -90 -20 -66 -52 -144
-93 -229 -11 -22 -22 -60 -25 -84 -3 -24 -16 -66 -29 -92 -13 -26 -24 -52 -24
-59 0 -6 -16 -46 -36 -88 -20 -42 -38 -88 -40 -101 -3 -13 -13 -41 -23 -62
-13 -26 -15 -41 -8 -48 7 -7 6 -16 -6 -29 -19 -21 -65 -120 -83 -177 -30 -97
-47 -135 -61 -135 -11 0 -14 6 -9 23 4 12 14 49 22 82 9 33 27 87 41 120 47
112 61 150 93 250 38 120 38 122 80 210 35 75 72 175 64 175 -2 0 7 22 21 50
14 27 25 52 24 55 -1 3 15 43 34 88 20 45 57 136 83 202 25 66 64 155 85 199
22 43 39 82 39 87 0 5 30 73 66 151 37 79 73 161 81 183 15 44 95 205 101 205
2 0 1 -12 -2 -26z m-2124 -370 c-17 -38 -73 -166 -127 -284 -53 -118 -126
-287 -162 -375 -35 -88 -72 -176 -80 -195 -9 -19 -24 -53 -33 -75 -10 -22 -27
-65 -38 -96 -11 -30 -40 -102 -65 -160 -24 -57 -66 -167 -92 -244 -26 -77 -68
-189 -93 -250 -24 -60 -48 -126 -54 -145 -5 -19 -12 -42 -15 -50 -4 -8 -11
-33 -17 -55 -10 -36 -15 -41 -54 -49 -23 -5 -45 -7 -47 -4 -3 2 2 28 11 57 8
29 13 60 9 69 -3 8 3 24 14 36 14 16 51 111 51 133 0 1 -10 1 -22 0 -26 -5
-34 -22 -18 -42 9 -11 9 -18 -4 -31 -9 -8 -14 -20 -11 -24 3 -5 -3 -14 -14
-20 -11 -5 -24 -25 -29 -43 -6 -17 -13 -40 -17 -49 -5 -13 -2 -18 10 -18 12 0
15 -5 10 -17 -4 -10 -8 -27 -11 -37 -5 -28 -34 -40 -61 -27 -3 2 28 94 67 196
23 61 44 124 47 140 2 17 11 44 18 60 7 17 27 64 45 107 17 42 39 79 48 83 15
6 15 8 1 14 -14 5 -10 22 30 121 25 63 49 120 54 127 6 10 47 15 47 6 0 -23
-67 -163 -86 -179 -26 -21 -39 -60 -24 -69 13 -8 0 -35 -16 -35 -18 0 -37 -48
-28 -69 4 -9 6 -20 5 -25 -1 -5 4 -4 12 2 8 7 12 23 9 37 -3 17 0 25 10 25 17
0 66 102 92 190 9 30 30 82 46 115 45 93 99 244 89 251 -10 6 -69 -49 -69 -65
0 -5 5 -13 10 -16 6 -3 10 -1 10 6 0 7 2 10 5 7 7 -6 -39 -95 -62 -120 -27
-31 -32 -10 -8 40 12 26 47 110 78 187 91 228 145 345 159 345 4 0 8 10 8 23
0 16 6 23 20 23 15 0 19 -5 14 -16 -14 -35 -25 -82 -20 -88 8 -7 8 -7 50 77
24 48 32 71 22 68 -10 -4 -13 -1 -9 9 3 7 11 14 19 14 8 0 14 6 14 14 0 27
-19 27 -47 2 -33 -31 -39 -27 -19 12 19 37 25 41 66 46 17 2 37 12 45 22 24
31 18 -4 -10 -65 -14 -30 -24 -56 -22 -58 6 -5 33 38 42 67 4 14 15 36 25 50
18 26 164 322 181 367 5 14 12 23 15 20 3 -3 -8 -36 -24 -73z m-47 -374 c-16
-63 -43 -140 -55 -155 -4 -5 -11 -21 -15 -35 -4 -14 -19 -50 -35 -80 -15 -30
-33 -73 -39 -95 -7 -22 -28 -71 -46 -110 -19 -38 -37 -83 -41 -100 -4 -16 -15
-41 -24 -55 -9 -14 -15 -37 -13 -52 2 -14 -2 -32 -9 -40 -19 -19 -62 -129 -60
-153 0 -11 -4 -26 -11 -35 -19 -23 -37 -59 -37 -70 0 -6 -26 -71 -57 -143 -31
-73 -57 -148 -58 -167 -4 -63 -41 -164 -69 -182 -8 -6 -7 -10 2 -17 11 -6 9
-15 -7 -42 -12 -19 -21 -44 -21 -55 0 -13 -8 -24 -20 -27 -11 -3 -20 -1 -20 4
0 5 7 9 15 9 8 0 15 5 15 10 0 6 -5 10 -11 10 -7 0 -9 9 -4 23 3 12 15 51 25
87 19 66 93 288 109 325 5 11 15 38 23 60 9 22 30 74 47 115 18 41 46 111 63
155 16 44 45 114 63 155 19 41 39 95 45 120 7 25 25 69 41 98 16 29 29 64 29
77 0 13 4 26 9 29 4 3 14 27 21 53 8 27 23 60 35 74 12 15 32 53 44 85 12 33
30 75 40 94 10 19 21 48 25 64 4 15 9 27 11 25 2 -2 -3 -29 -10 -59z m-265
-66 c0 -9 -5 -14 -12 -12 -18 6 -21 28 -4 28 9 0 16 -7 16 -16z m149 -100
c-15 -18 -22 -13 -13 10 3 9 10 13 16 10 5 -3 4 -12 -3 -20z m-9 -28 c0 -3 -4
-8 -10 -11 -5 -3 -10 -1 -10 4 0 6 5 11 10 11 6 0 10 -2 10 -4z m-240 -560 c0
-14 -4 -28 -10 -31 -6 -4 -10 7 -10 24 0 17 5 31 10 31 6 0 10 -11 10 -24z
m-34 -83 c-10 -10 -19 5 -10 18 6 11 8 11 12 0 2 -7 1 -15 -2 -18z m1861 -5
c-3 -8 -6 -5 -6 6 -1 11 2 17 5 13 3 -3 4 -12 1 -19z m-1917 -119 c0 -11 -4
-18 -10 -14 -5 3 -7 12 -3 20 7 21 13 19 13 -6z m1827 -106 c-3 -10 -5 -4 -5
12 0 17 2 24 5 18 2 -7 2 -21 0 -30z m-1864 -13 c-6 -21 -21 -35 -29 -27 -2 2
0 16 6 31 11 31 31 27 23 -4z m-38 -90 c-4 -17 -9 -29 -12 -26 -3 2 -2 19 2
36 4 17 9 29 12 26 3 -2 2 -19 -2 -36z m-25 -70 c0 -5 -4 -10 -10 -10 -5 0
-10 5 -10 10 0 6 5 10 10 10 6 0 10 -4 10 -10z m-10 -50 c0 -5 -5 -10 -11 -10
-5 0 -7 5 -4 10 3 6 8 10 11 10 2 0 4 -4 4 -10z m1764 -71 c-8 -14 -24 -10
-24 6 0 9 6 12 15 9 8 -4 12 -10 9 -15z m-55 -15 c-14 -18 -24 -11 -15 11 3 9
11 13 16 10 8 -5 7 -11 -1 -21z m-1758 -7 c-10 -9 -11 -8 -5 6 3 10 9 15 12
12 3 -3 0 -11 -7 -18z m1943 -18 c-3 -5 -10 -7 -15 -3 -5 3 -7 10 -3 15 3 5
10 7 15 3 5 -3 7 -10 3 -15z m196 17 c0 -7 -61 -13 -65 -6 -2 3 12 7 31 8 19
2 34 1 34 -2z m-2140 -50 c0 -8 -7 -19 -15 -26 -12 -10 -15 -10 -15 3 0 25 11
47 21 41 5 -3 9 -11 9 -18z m1760 20 c0 -2 -7 -6 -15 -10 -8 -3 -15 -1 -15 4
0 6 7 10 15 10 8 0 15 -2 15 -4z m378 -52 c-4 -3 -33 -8 -65 -10 l-58 -4 48
14 c26 7 50 16 54 20 4 3 11 2 17 -4 5 -5 7 -12 4 -16z m-2038 -39 c-6 -15
-13 -25 -16 -23 -2 3 1 17 7 32 16 34 23 27 9 -9z m1820 16 c0 -10 -7 -21 -15
-25 -11 -4 -15 1 -15 19 0 16 6 25 15 25 8 0 15 -9 15 -19z m-139 -10 c-6 -10
-7 -22 -3 -26 4 -4 -6 -5 -22 -1 -20 5 -34 2 -47 -10 -17 -15 -19 -16 -19 -1
0 25 41 57 72 57 25 0 27 -2 19 -19z m-1822 -32 c-7 -19 -18 -41 -25 -49 -23
-24 -18 19 7 59 25 41 33 36 18 -10z m1665 21 c12 -12 -5 -47 -23 -43 -6 2
-21 -1 -34 -6 -28 -11 -83 -20 -152 -26 -74 -7 -148 -16 -165 -20 -8 -2 -33
-6 -55 -9 -22 -3 -65 -8 -95 -12 -30 -4 -66 -8 -80 -9 -88 -9 -167 -18 -181
-20 -9 -2 -40 -6 -70 -10 -30 -3 -97 -13 -149 -21 -94 -15 -113 -18 -200 -29
-25 -3 -52 -8 -60 -10 -8 -2 -40 -6 -71 -10 -31 -3 -65 -7 -75 -9 -11 -2 -48
-7 -84 -11 l-65 -7 -1 31 c-1 21 4 32 17 36 9 3 20 12 23 20 3 8 10 15 15 15
6 0 8 -7 4 -16 -5 -13 1 -14 33 -11 69 8 238 37 269 47 17 5 66 11 110 15 44
3 107 10 140 15 33 5 78 11 100 15 22 3 54 7 70 10 17 2 53 7 80 10 28 3 84
10 125 16 41 5 89 12 105 14 110 14 123 17 118 31 -3 8 0 14 6 14 6 0 10 -5 9
-12 -4 -15 9 -16 87 -6 33 4 87 10 120 14 33 3 61 7 63 9 7 6 56 -5 66 -15z
m33 -22 c-3 -7 -5 -2 -5 12 0 14 2 19 5 13 2 -7 2 -19 0 -25z m223 -38 c0 -5
-2 -10 -4 -10 -3 0 -8 5 -11 10 -3 6 -1 10 4 10 6 0 11 -4 11 -10z m-485 -49
c-6 -5 -29 -11 -53 -14 -45 -5 -46 8 -2 16 46 8 64 7 55 -2z m495 -10 c0 -6
-4 -13 -10 -16 -5 -3 -10 -14 -10 -23 0 -9 -11 -46 -24 -82 -32 -86 -52 -155
-46 -156 3 0 0 -7 -6 -15 -7 -8 -19 -45 -28 -84 -16 -71 -53 -184 -73 -220 -6
-11 -14 -45 -18 -75 -4 -30 -18 -93 -32 -140 -27 -93 -35 -130 -53 -234 -11
-61 -49 -146 -66 -146 -4 0 -3 17 1 38 4 20 9 48 11 61 3 13 20 80 39 150 19
69 37 141 40 160 3 19 8 37 10 41 2 4 7 20 10 36 5 30 32 132 79 306 26 94 26
98 9 124 l-17 27 23 -12 c12 -7 24 -11 25 -9 1 2 15 48 31 103 36 127 59 175
85 175 11 0 20 -4 20 -9z m-158 -6 c6 -6 -6 -51 -67 -255 -19 -63 -37 -131
-40 -150 -4 -19 -19 -75 -35 -125 -15 -49 -37 -133 -50 -185 -12 -52 -32 -131
-45 -175 -13 -44 -26 -93 -28 -110 -6 -36 -19 -95 -52 -230 -13 -55 -27 -120
-30 -145 -4 -24 -8 -47 -10 -50 -1 -3 -6 -27 -9 -55 -4 -27 -13 -72 -21 -100
-7 -27 -16 -83 -19 -124 -3 -41 -11 -93 -17 -115 -10 -37 -15 -88 -18 -180 -1
-44 -19 -20 -25 34 -2 25 -5 70 -6 100 -2 45 -4 50 -11 30 -8 -24 -4 89 5 137
3 11 7 38 10 59 23 142 30 170 48 183 14 9 17 16 8 21 -16 10 -3 74 21 101 20
24 27 65 8 53 -24 -15 14 163 42 192 12 13 17 28 13 38 -4 11 0 22 12 31 13
10 15 14 5 15 -20 0 -11 65 34 250 2 8 13 58 25 110 25 109 21 93 55 230 28
115 44 170 88 305 16 50 31 96 33 103 3 12 65 17 76 7z m58 -34 c-25 -36 -36
-41 -19 -8 16 31 31 48 37 43 2 -3 -6 -19 -18 -35z m-1785 19 c-3 -5 -17 -10
-31 -10 -14 0 -22 4 -19 10 3 6 17 10 31 10 14 0 22 -4 19 -10z m900 -50 c3
-5 2 -10 -4 -10 -5 0 -13 5 -16 10 -3 6 -2 10 4 10 5 0 13 -4 16 -10z m-948
-28 c16 -10 -6 -56 -30 -60 -19 -4 -23 19 -7 49 12 21 19 23 37 11z m598 -2
c3 -5 1 -10 -4 -10 -6 0 -11 5 -11 10 0 6 2 10 4 10 3 0 8 -4 11 -10z m1134
-271 c-19 -12 -24 -2 -8 17 9 11 14 13 17 4 3 -7 -2 -16 -9 -21z m-1790 -184
c11 -19 25 -62 31 -96 17 -93 19 -295 5 -354 -7 -27 -16 -75 -19 -105 -7 -70
-25 -126 -69 -220 -19 -41 -38 -86 -42 -100 -4 -14 -17 -38 -29 -55 -11 -16
-21 -35 -22 -41 -1 -7 -16 -33 -34 -58 -17 -26 -38 -62 -46 -81 -7 -19 -24
-39 -35 -46 -21 -11 -22 -10 -16 27 4 20 10 40 15 43 5 3 12 20 15 36 18 104
30 162 35 175 5 16 12 84 13 134 0 29 34 91 63 115 12 10 13 17 6 26 -15 18
-21 53 -10 60 5 3 7 12 4 20 -4 8 1 18 10 21 9 3 13 10 10 15 -9 16 -22 10
-30 -13 -7 -22 -7 -22 -14 -3 -9 25 8 65 25 59 16 -7 29 12 15 21 -13 8 -13
57 1 92 l12 28 7 -25 7 -25 7 30 c4 17 9 36 12 43 2 6 -3 12 -12 12 -11 0 -13
7 -8 28 13 51 22 68 48 87 14 11 26 26 26 34 0 10 -7 8 -24 -8 l-23 -22 20 91
c11 49 21 90 23 90 1 0 11 -16 23 -35z m1748 -12 c-3 -3 -11 -2 -17 2 -9 6 -9
10 1 16 14 8 27 -7 16 -18z m-1647 -139 c0 -14 -4 -23 -9 -20 -7 5 -8 23 -2
44 4 12 11 -3 11 -24z m13 -71 c8 -43 1 -168 -17 -271 -17 -103 -24 -123 -38
-99 -5 9 -2 51 7 104 8 48 17 118 20 155 2 36 7 78 11 92 4 16 2 26 -5 26 -6
0 -11 5 -11 10 0 23 28 8 33 -17z m1567 -47 c0 -3 -4 -8 -10 -11 -5 -3 -10 -1
-10 4 0 6 5 11 10 11 6 0 10 -2 10 -4z"/>
<path d="M2627 4613 c-4 -3 -7 -11 -7 -17 0 -6 5 -5 12 2 6 6 9 14 7 17 -3 3
-9 2 -12 -2z"/>
<path d="M2587 4533 c-10 -10 -8 -45 2 -39 11 7 21 46 12 46 -4 0 -11 -3 -14
-7z"/>
<path d="M2495 4521 c-3 -5 -1 -12 5 -16 5 -3 10 1 10 9 0 18 -6 21 -15 7z"/>
<path d="M2506 4475 c-3 -9 0 -15 9 -15 16 0 20 16 6 24 -5 3 -11 -1 -15 -9z"/>
<path d="M2567 4473 c-4 -3 -7 -11 -7 -17 0 -6 5 -5 12 2 6 6 9 14 7 17 -3 3
-9 2 -12 -2z"/>
<path d="M2460 4399 c-29 -26 -31 -30 -12 -26 12 3 22 1 22 -5 0 -5 5 -6 10
-3 6 4 8 10 5 15 -3 4 2 13 10 20 16 13 20 30 8 30 -5 0 -24 -14 -43 -31z"/>
<path d="M2540 4398 c-12 -22 -12 -22 6 -6 10 10 15 20 12 24 -4 3 -12 -5 -18
-18z"/>
<path d="M2427 4293 c-12 -24 -15 -39 -8 -46 7 -7 12 -6 15 4 2 8 9 29 15 47
13 43 0 40 -22 -5z"/>
<path d="M2457 4223 c-10 -9 -9 -23 2 -23 5 0 11 7 15 15 5 15 -5 20 -17 8z"/>
<path d="M2370 4204 c0 -10 7 -14 22 -12 32 5 35 28 4 28 -17 0 -26 -5 -26
-16z"/>
<path d="M2416 4123 c-6 -14 -5 -15 5 -6 7 7 10 15 7 18 -3 3 -9 -2 -12 -12z"/>
<path d="M2370 4010 c0 -5 5 -10 10 -10 6 0 10 5 10 10 0 6 -4 10 -10 10 -5 0
-10 -4 -10 -10z"/>
<path d="M2236 3675 c-3 -8 -1 -15 4 -15 6 0 10 7 10 15 0 8 -2 15 -4 15 -2 0
-6 -7 -10 -15z"/>
<path d="M2102 3507 c-11 -12 -28 -39 -37 -60 -16 -38 -16 -38 7 -35 15 2 29
16 40 38 36 78 32 102 -10 57z"/>
<path d="M2180 3521 c0 -5 -3 -17 -7 -27 -4 -11 -3 -15 4 -11 14 9 24 47 12
47 -5 0 -9 -4 -9 -9z"/>
<path d="M2130 3379 c-13 -24 -4 -41 10 -19 10 16 13 40 5 40 -2 0 -9 -9 -15
-21z"/>
<path d="M2047 3133 c-4 -3 -7 -11 -7 -17 0 -6 5 -5 12 2 6 6 9 14 7 17 -3 3
-9 2 -12 -2z"/>
<path d="M3797 2703 c-4 -3 -7 -13 -7 -22 1 -13 3 -13 11 2 11 19 8 33 -4 20z"/>
<path d="M3765 2590 c-3 -5 -1 -10 4 -10 6 0 11 5 11 10 0 6 -2 10 -4 10 -3 0
-8 -4 -11 -10z"/>
<path d="M3750 2534 c0 -8 5 -12 10 -9 6 4 8 11 5 16 -9 14 -15 11 -15 -7z"/>
<path d="M3716 2435 c-3 -8 -1 -15 3 -15 5 0 11 7 15 15 3 8 1 15 -3 15 -5 0
-11 -7 -15 -15z"/>
<path d="M4285 4481 c-3 -5 -1 -12 4 -15 5 -3 11 1 15 9 6 16 -9 21 -19 6z"/>
<path d="M4252 4403 c-19 -52 -31 -93 -26 -93 4 0 54 104 54 114 0 17 -19 2
-28 -21z"/>
<path d="M4235 4270 c-3 -5 -1 -10 4 -10 6 0 11 5 11 10 0 6 -2 10 -4 10 -3 0
-8 -4 -11 -10z"/>
<path d="M4182 4220 c-6 -10 -8 -21 -3 -24 5 -3 11 4 14 16 8 29 4 32 -11 8z"/>
<path d="M4225 4230 c-3 -5 -1 -10 4 -10 6 0 11 5 11 10 0 6 -2 10 -4 10 -3 0
-8 -4 -11 -10z"/>
<path d="M4151 4140 c-12 -36 1 -40 17 -5 14 31 15 35 3 35 -5 0 -14 -13 -20
-30z"/>
<path d="M4275 4131 c-3 -5 -1 -12 5 -16 5 -3 10 1 10 9 0 18 -6 21 -15 7z"/>
<path d="M4245 4050 c4 -6 11 -8 16 -5 14 9 11 15 -7 15 -8 0 -12 -5 -9 -10z"/>
<path d="M4106 4021 c-4 -5 -2 -12 3 -15 5 -4 12 -2 15 3 4 5 2 12 -3 15 -5 4
-12 2 -15 -3z"/>
<path d="M4075 3930 c-3 -5 -1 -10 4 -10 6 0 11 5 11 10 0 6 -2 10 -4 10 -3 0
-8 -4 -11 -10z"/>
<path d="M4180 3871 c-7 -13 -7 -22 0 -26 5 -3 10 -5 11 -3 11 48 7 61 -11 29z"/>
<path d="M4076 3832 c-4 -7 -9 -25 -12 -40 l-4 -27 16 28 c15 28 16 64 0 39z"/>
<path d="M4020 3790 c0 -5 5 -10 10 -10 6 0 10 5 10 10 0 6 -4 10 -10 10 -5 0
-10 -4 -10 -10z"/>
<path d="M4145 3774 c-4 -10 -9 -28 -11 -39 -3 -14 1 -12 12 8 8 16 14 33 11
40 -2 6 -7 2 -12 -9z"/>
<path d="M4004 3745 c-8 -21 6 -41 17 -24 12 19 11 39 -1 39 -6 0 -13 -7 -16
-15z"/>
<path d="M4043 3733 c-3 -10 -8 -22 -10 -28 -3 -5 3 -1 11 9 16 20 21 36 11
36 -3 0 -8 -8 -12 -17z"/>
<path d="M3970 3650 c0 -5 5 -10 10 -10 6 0 10 5 10 10 0 6 -4 10 -10 10 -5 0
-10 -4 -10 -10z"/>
<path d="M4095 3630 c-3 -5 -1 -10 4 -10 6 0 11 5 11 10 0 6 -2 10 -4 10 -3 0
-8 -4 -11 -10z"/>
<path d="M3980 3560 c0 -5 5 -10 10 -10 6 0 10 5 10 10 0 6 -4 10 -10 10 -5 0
-10 -4 -10 -10z"/>
<path d="M4045 3480 c-3 -5 -1 -10 4 -10 6 0 11 5 11 10 0 6 -2 10 -4 10 -3 0
-8 -4 -11 -10z"/>
<path d="M4036 3451 c-4 -7 -5 -15 -2 -18 9 -9 19 4 14 18 -4 11 -6 11 -12 0z"/>
<path d="M3597 3324 c-1 -1 -31 -5 -66 -8 -82 -8 -123 -14 -188 -27 -54 -11
-81 -29 -42 -29 18 0 19 -2 9 -15 -12 -14 -5 -18 30 -17 97 2 222 28 200 42
-7 4 -25 3 -41 -3 -22 -9 -32 -8 -41 2 -11 10 -10 12 2 10 8 -1 33 2 55 9 40
11 105 21 138 22 9 0 17 4 17 10 0 8 -65 11 -73 4z m-182 -53 c17 -1 17 -3 5
-11 -19 -12 -80 -13 -80 -1 0 11 20 19 40 15 8 -1 24 -3 35 -3z"/>
<path d="M3596 3280 c-16 -5 -17 -8 -4 -12 16 -7 45 7 32 14 -5 3 -18 2 -28
-2z"/>
<path d="M3230 3260 c0 -5 5 -10 10 -10 6 0 10 5 10 10 0 6 -4 10 -10 10 -5 0
-10 -4 -10 -10z"/>
<path d="M3053 3252 c-13 -2 -23 -10 -23 -18 0 -18 11 -18 36 0 22 17 18 23
-13 18z"/>
<path d="M3118 3243 c7 -3 16 -2 19 1 4 3 -2 6 -13 5 -11 0 -14 -3 -6 -6z"/>
<path d="M2953 3233 c-22 -8 -14 -22 8 -18 12 3 24 6 26 8 6 7 -21 14 -34 10z"/>
<path d="M3215 3229 c-11 -4 -34 -5 -51 -3 -21 4 -35 0 -45 -12 -13 -16 -9
-16 56 -10 69 8 99 19 73 28 -7 3 -22 2 -33 -3z"/>
<path d="M2830 3219 c-19 -4 -53 -10 -74 -14 -26 -4 -35 -9 -27 -15 7 -4 32
-3 55 2 37 9 69 14 104 17 19 2 14 17 -6 17 -10 0 -33 -3 -52 -7z"/>
<path d="M3027 3204 c-4 -4 -25 -7 -48 -8 -23 -1 -44 -6 -46 -12 -2 -7 11 -9
42 -4 25 4 48 8 50 8 3 1 16 2 30 2 14 0 25 5 25 10 0 11 -43 14 -53 4z"/>
<path d="M2598 3183 c-37 -9 -16 -21 30 -16 59 5 82 23 27 22 -22 -1 -48 -3
-57 -6z"/>
<path d="M2838 3183 c-16 -4 -26 -33 -12 -33 13 0 44 21 44 30 0 10 -3 11 -32
3z"/>
<path d="M2501 3171 c-21 -13 2 -21 35 -11 16 4 24 9 17 9 -6 1 -17 3 -25 6
-7 3 -19 1 -27 -4z"/>
<path d="M2760 3161 c0 -5 5 -13 10 -16 6 -3 10 -2 10 4 0 5 -4 13 -10 16 -5
3 -10 2 -10 -4z"/>
<path d="M2670 3148 c-25 -4 -51 -6 -58 -3 -7 3 -34 0 -60 -6 -49 -11 -104
-19 -136 -20 -10 0 -25 -7 -33 -15 -14 -13 -9 -14 38 -9 30 3 65 7 79 10 14 2
50 7 80 10 30 3 63 8 72 11 9 3 26 7 39 9 23 5 35 13 28 18 -2 2 -24 0 -49 -5z"/>
<path d="M3770 3049 c0 -5 5 -7 10 -4 6 3 10 8 10 11 0 2 -4 4 -10 4 -5 0 -10
-5 -10 -11z"/>
<path d="M3790 3014 c0 -9 5 -14 12 -12 18 6 21 28 4 28 -9 0 -16 -7 -16 -16z"/>
<path d="M3750 2980 c0 -19 3 -21 12 -12 9 9 9 15 0 24 -9 9 -12 7 -12 -12z"/>
<path d="M3775 2929 c-4 -6 -5 -12 -2 -15 2 -3 7 2 10 11 7 17 1 20 -8 4z"/>
<path d="M3757 2883 c-4 -3 -7 -11 -7 -17 0 -6 5 -5 12 2 6 6 9 14 7 17 -3 3
-9 2 -12 -2z"/>
<path d="M3736 2824 c-8 -21 -8 -24 3 -24 5 0 11 9 14 20 6 24 -8 27 -17 4z"/>
<path d="M3660 2580 c0 -5 -7 -10 -15 -10 -8 0 -15 -7 -15 -15 0 -13 3 -13 20
-3 22 14 35 38 20 38 -6 0 -10 -4 -10 -10z"/>
<path d="M3610 2489 c0 -5 5 -7 10 -4 6 3 10 8 10 11 0 2 -4 4 -10 4 -5 0 -10
-5 -10 -11z"/>
<path d="M3567 2324 c-4 -4 -7 -14 -7 -23 0 -11 3 -12 11 -4 6 6 10 16 7 23
-2 6 -7 8 -11 4z"/>
<path d="M3517 2129 c-4 -16 -3 -18 9 -8 7 6 11 15 8 20 -8 13 -11 11 -17 -12z"/>
<path d="M4420 1269 c-25 -4 -62 -14 -83 -23 -90 -37 -121 -80 -133 -182 -6
-45 -3 -59 19 -96 38 -65 72 -94 160 -138 115 -58 147 -55 239 22 41 35 49 50
73 125 24 73 26 90 16 122 -15 51 -69 111 -127 143 -56 30 -100 37 -164 27z"/>
</g>
</svg>
