<svg xmlns="http://www.w3.org/2000/svg" xmlns:xlink="http://www.w3.org/1999/xlink" width="90" zoomAndPan="magnify" viewBox="0 0 200 200" height="90" preserveAspectRatio="xMidYMid meet" version="1.0"><defs><g/></defs><g fill="#c084fc" fill-opacity="1"><g transform="translate(16.920074, 112.986693)"><g><path d="M 21.453125 -39.410156 C 21.394531 -39.351562 21.277344 -39.234375 21.277344 -39.175781 C 21.277344 -39.058594 21.394531 -39 21.453125 -39 C 21.570312 -39 21.628906 -39.117188 21.628906 -39.234375 C 21.628906 -39.410156 21.570312 -39.46875 21.453125 -39.410156 Z M 22.675781 -45.179688 C 23.144531 -46.40625 23.144531 -46.519531 22.503906 -46.054688 C 22.210938 -45.820312 21.917969 -45.355469 21.746094 -44.890625 L 21.511719 -44.132812 L 21.917969 -44.191406 C 22.269531 -44.191406 22.445312 -44.363281 22.675781 -45.179688 Z M 31.304688 -64.59375 C 31.304688 -64.535156 31.421875 -64.535156 31.539062 -64.769531 C 31.65625 -64.945312 31.773438 -65.117188 31.714844 -65.234375 C 31.597656 -65.292969 31.304688 -64.886719 31.304688 -64.59375 Z M 51.070312 -34.976562 C 50.953125 -34.863281 51.011719 -34.6875 51.070312 -34.6875 C 51.183594 -34.6875 51.242188 -34.863281 51.242188 -34.976562 C 51.242188 -35.09375 51.242188 -35.269531 51.183594 -35.269531 C 51.183594 -35.269531 51.070312 -35.09375 51.070312 -34.976562 Z M 50.894531 -36.667969 C 50.894531 -36.378906 50.953125 -36.261719 51.125 -36.4375 C 51.300781 -36.609375 51.300781 -36.726562 51.125 -36.902344 C 50.953125 -37.078125 50.894531 -36.960938 50.894531 -36.667969 Z M 50.660156 -33.871094 C 50.601562 -33.636719 50.601562 -33.460938 50.71875 -33.460938 C 50.894531 -33.460938 51.183594 -34.164062 51.011719 -34.335938 C 50.894531 -34.453125 50.835938 -34.335938 50.660156 -33.871094 Z M 42.265625 -41.625 C 42.148438 -41.800781 41.800781 -41.742188 41.800781 -41.566406 C 41.800781 -41.507812 41.914062 -41.449219 42.089844 -41.449219 C 42.265625 -41.449219 42.265625 -41.566406 42.265625 -41.625 Z M 40.867188 -40.574219 C 41.449219 -40.632812 42.089844 -40.691406 42.265625 -40.75 C 42.5 -40.75 42.558594 -40.808594 42.382812 -40.984375 C 42.207031 -41.15625 42.03125 -41.15625 41.625 -40.984375 C 41.390625 -40.867188 41.042969 -40.808594 40.984375 -40.925781 C 40.808594 -41.15625 39.875 -40.925781 39.875 -40.632812 C 39.875 -40.515625 40.109375 -40.457031 40.867188 -40.574219 Z M 52.058594 -37.195312 C 52.117188 -37.308594 52.117188 -37.484375 52.058594 -37.542969 C 51.941406 -37.777344 51.59375 -37.484375 51.59375 -37.136719 C 51.59375 -36.960938 51.941406 -36.960938 52.058594 -37.195312 Z M 40.109375 -41.214844 C 40.457031 -41.390625 40.457031 -41.449219 40.109375 -41.449219 C 39.992188 -41.449219 39.875 -41.390625 39.875 -41.273438 C 39.875 -41.214844 39.992188 -41.15625 40.109375 -41.214844 Z M 49.144531 -28.566406 C 49.085938 -28.566406 48.96875 -28.449219 48.96875 -28.390625 C 48.96875 -28.390625 49.085938 -28.332031 49.144531 -28.332031 C 49.261719 -28.332031 49.320312 -28.390625 49.320312 -28.507812 C 49.320312 -28.625 49.261719 -28.625 49.144531 -28.566406 Z M 77.246094 -92.984375 C 76.195312 -93.394531 74.269531 -93.625 73.921875 -93.449219 C 73.746094 -93.335938 73.511719 -93.277344 73.398438 -93.21875 C 73.164062 -93.160156 72.988281 -92.75 72.8125 -92.34375 C 72.695312 -91.933594 72.464844 -91.351562 72.289062 -91.117188 C 72.113281 -90.886719 71.996094 -90.59375 72.054688 -90.535156 C 72.289062 -90.359375 71.9375 -89.429688 71.53125 -88.902344 L 71.066406 -88.378906 L 71.066406 -88.84375 C 71.066406 -89.136719 71.238281 -89.601562 71.53125 -89.835938 C 71.996094 -90.476562 72.054688 -90.59375 71.765625 -90.59375 C 71.53125 -90.59375 70.191406 -88.671875 69.957031 -88.027344 C 69.839844 -87.796875 69.839844 -87.738281 70.015625 -87.796875 C 70.890625 -88.144531 70.949219 -88.144531 70.832031 -87.972656 C 70.773438 -87.855469 70.773438 -87.738281 70.890625 -87.738281 C 71.238281 -87.738281 71.121094 -87.503906 70.363281 -85.753906 C 69.898438 -84.882812 69.316406 -83.65625 69.082031 -83.074219 C 68.441406 -81.617188 66.515625 -77.246094 66.515625 -77.128906 C 66.515625 -77.070312 66.632812 -77.1875 66.808594 -77.359375 C 67.160156 -77.769531 67.917969 -79.226562 68.382812 -80.390625 C 68.558594 -80.800781 68.734375 -81.035156 68.792969 -80.859375 C 68.792969 -80.742188 68.675781 -80.277344 68.441406 -79.808594 C 68.265625 -79.34375 67.917969 -78.703125 67.742188 -78.351562 C 67.625 -78.003906 67.390625 -77.652344 67.273438 -77.535156 C 67.160156 -77.359375 67.042969 -77.1875 67.042969 -77.128906 C 67.042969 -76.777344 67.332031 -76.953125 67.742188 -77.417969 L 68.148438 -77.886719 L 67.742188 -77.246094 C 67.566406 -76.835938 67.449219 -76.484375 67.507812 -76.429688 C 67.507812 -76.3125 67.449219 -76.253906 67.273438 -76.253906 C 67.042969 -76.253906 66.984375 -76.078125 66.984375 -75.554688 C 66.925781 -75.203125 66.808594 -74.914062 66.75 -74.855469 C 66.632812 -74.796875 66.515625 -74.621094 66.515625 -74.503906 C 66.515625 -74.328125 66.285156 -73.746094 65.992188 -73.164062 C 65.703125 -72.582031 65.46875 -71.996094 65.527344 -71.824219 C 65.585938 -71.589844 65.585938 -71.589844 65.757812 -71.878906 C 65.816406 -72.054688 65.933594 -72.289062 65.992188 -72.347656 C 66.167969 -72.464844 67.742188 -75.785156 67.742188 -76.019531 C 67.742188 -76.136719 67.859375 -76.371094 67.917969 -76.542969 C 68.847656 -78.292969 69.082031 -79.226562 68.441406 -78.816406 C 68.324219 -78.703125 68.265625 -78.761719 68.324219 -78.875 C 68.382812 -78.992188 68.617188 -79.226562 68.792969 -79.226562 C 69.257812 -79.34375 69.375 -79.574219 70.25 -81.617188 C 70.539062 -82.140625 70.773438 -82.609375 70.890625 -82.722656 C 71.007812 -82.722656 71.066406 -82.78125 71.066406 -82.722656 C 71.066406 -82.664062 70.363281 -80.800781 70.191406 -80.507812 C 69.605469 -79.402344 68.847656 -77.300781 69.082031 -77.300781 C 69.140625 -77.300781 69.550781 -78.117188 70.015625 -79.226562 C 70.539062 -80.277344 71.238281 -81.734375 71.589844 -82.550781 C 71.996094 -83.308594 72.347656 -84.179688 72.464844 -84.472656 C 72.8125 -85.289062 72.871094 -84.882812 72.582031 -84.007812 C 72.113281 -82.722656 70.773438 -79.574219 69.199219 -76.253906 C 68.734375 -75.203125 68.03125 -73.6875 67.683594 -72.871094 C 67.332031 -71.996094 66.808594 -70.773438 66.460938 -70.132812 C 66.167969 -69.433594 65.875 -68.617188 65.757812 -68.324219 C 65.46875 -67.742188 64.1875 -64.535156 63.777344 -63.371094 C 63.371094 -62.261719 62.902344 -61.039062 62.378906 -60.046875 C 62.261719 -59.695312 62.144531 -59.347656 62.144531 -59.289062 C 62.144531 -59.171875 62.027344 -58.878906 61.855469 -58.53125 C 60.453125 -55.265625 59.929688 -53.808594 59.8125 -53.226562 C 59.8125 -53.050781 59.695312 -52.816406 59.578125 -52.699219 C 59.40625 -52.527344 59.347656 -52.292969 59.347656 -52.117188 C 59.347656 -51.941406 59.230469 -51.710938 59.171875 -51.652344 C 59.054688 -51.59375 59.054688 -51.476562 59.054688 -51.417969 C 59.171875 -51.242188 59.113281 -51.070312 59.054688 -51.011719 C 58.9375 -50.835938 58.707031 -50.195312 58.472656 -49.554688 C 58.238281 -48.851562 58.007812 -48.210938 57.949219 -48.09375 C 57.890625 -48.039062 57.714844 -47.570312 57.597656 -47.105469 C 57.480469 -46.695312 57.304688 -46.230469 57.191406 -46.171875 C 57.074219 -46.054688 57.074219 -45.761719 57.074219 -45.472656 C 57.074219 -45.238281 56.957031 -44.949219 56.898438 -44.890625 C 56.78125 -44.890625 56.722656 -44.539062 56.722656 -44.304688 C 56.722656 -43.898438 56.605469 -43.722656 56.316406 -43.605469 C 56.082031 -43.546875 55.847656 -43.488281 55.675781 -43.546875 C 55.558594 -43.605469 55.5 -43.546875 55.5 -43.429688 C 55.5 -43.375 55.617188 -43.257812 55.730469 -43.140625 C 55.90625 -43.082031 55.964844 -42.964844 55.90625 -42.847656 C 55.730469 -42.617188 55.5 -42.671875 55.5 -42.964844 C 55.5 -43.082031 55.324219 -43.316406 55.148438 -43.429688 C 54.800781 -43.605469 54.800781 -43.605469 55.148438 -44.539062 C 55.324219 -45.0625 55.675781 -45.761719 55.847656 -46.113281 C 56.023438 -46.519531 56.199219 -46.929688 56.199219 -47.046875 C 56.199219 -47.164062 56.375 -47.863281 56.722656 -48.503906 C 56.957031 -49.203125 57.132812 -49.902344 57.074219 -50.136719 C 57.074219 -50.3125 57.191406 -50.660156 57.421875 -50.953125 C 57.597656 -51.183594 57.773438 -51.59375 57.773438 -51.769531 C 57.773438 -52 57.949219 -52.527344 58.179688 -53.050781 C 58.414062 -53.574219 58.765625 -54.390625 58.878906 -54.972656 C 59.054688 -55.558594 59.230469 -56.023438 59.347656 -56.023438 C 59.40625 -56.023438 59.523438 -56.140625 59.523438 -56.316406 C 59.523438 -56.78125 60.164062 -58.648438 60.628906 -59.464844 C 60.921875 -59.871094 61.097656 -60.339844 61.097656 -60.570312 C 61.097656 -60.746094 61.152344 -60.980469 61.328125 -61.039062 C 61.503906 -61.039062 61.621094 -61.386719 61.679688 -61.796875 C 61.738281 -62.144531 61.855469 -62.554688 61.96875 -62.667969 C 62.203125 -62.960938 62.203125 -63.660156 62.027344 -63.777344 C 61.855469 -63.835938 61.796875 -63.71875 61.738281 -63.542969 C 61.738281 -63.425781 61.738281 -63.195312 61.679688 -63.078125 C 61.679688 -62.902344 61.679688 -62.785156 61.621094 -62.726562 C 61.5625 -62.726562 61.328125 -62.203125 61.097656 -61.679688 C 60.863281 -61.152344 60.628906 -60.453125 60.453125 -60.164062 C 60.339844 -59.871094 60.164062 -59.347656 60.046875 -58.996094 C 59.929688 -58.589844 59.753906 -58.0625 59.578125 -57.832031 C 59.464844 -57.539062 59.347656 -57.25 59.347656 -57.132812 C 59.347656 -57.015625 59.230469 -56.839844 59.054688 -56.664062 C 58.765625 -56.492188 58.765625 -56.492188 58.878906 -56.78125 C 58.9375 -56.957031 58.878906 -57.074219 58.878906 -57.074219 C 58.765625 -57.074219 58.589844 -56.722656 58.414062 -56.257812 C 58.121094 -55.5 58.355469 -55.265625 58.648438 -56.023438 C 58.765625 -56.375 58.820312 -56.375 58.820312 -56.140625 C 58.820312 -55.558594 57.949219 -53.515625 57.65625 -53.632812 C 57.539062 -53.691406 57.421875 -53.574219 57.304688 -53.457031 C 57.304688 -53.226562 57.304688 -53.167969 57.480469 -53.226562 C 57.714844 -53.285156 57.773438 -53.226562 57.714844 -53.050781 C 57.65625 -52.933594 57.421875 -52.234375 57.25 -51.535156 C 57.015625 -50.835938 56.78125 -50.136719 56.722656 -50.078125 C 56.605469 -49.960938 56.492188 -49.609375 56.375 -49.261719 C 56.257812 -48.796875 56.140625 -48.621094 55.90625 -48.679688 C 55.675781 -48.679688 55.675781 -48.679688 55.789062 -48.621094 C 56.082031 -48.445312 56.023438 -48.039062 55.730469 -48.09375 C 55.617188 -48.210938 55.5 -48.152344 55.382812 -48.039062 C 55.324219 -47.921875 55.441406 -47.863281 55.558594 -47.863281 C 55.90625 -47.863281 55.964844 -47.980469 54.972656 -45.296875 C 54.332031 -43.375 53.925781 -42.671875 54.390625 -44.304688 C 54.507812 -44.832031 54.625 -45.296875 54.566406 -45.296875 C 54.449219 -45.472656 53.925781 -44.246094 53.925781 -43.78125 C 53.925781 -43.605469 53.808594 -43.429688 53.75 -43.429688 C 53.632812 -43.429688 53.574219 -43.605469 53.632812 -43.839844 C 53.808594 -44.539062 53.402344 -44.363281 53.167969 -43.722656 C 52.933594 -43.199219 52.816406 -43.140625 52.175781 -43.082031 C 51.242188 -43.023438 49.902344 -42.671875 50.195312 -42.5 C 50.3125 -42.5 50.894531 -42.5 51.59375 -42.5 C 52.875 -42.671875 53.285156 -42.617188 52.175781 -42.441406 C 51.828125 -42.382812 51.417969 -42.265625 51.242188 -42.207031 C 51.125 -42.148438 50.660156 -42.089844 50.195312 -42.089844 C 49.785156 -42.089844 49.378906 -41.972656 49.320312 -41.914062 C 49.261719 -41.742188 51.59375 -41.742188 52.175781 -41.914062 C 52.351562 -41.972656 52.527344 -41.914062 52.527344 -41.800781 C 52.527344 -41.742188 52.46875 -41.625 52.351562 -41.625 C 52.292969 -41.625 51.070312 -41.449219 49.667969 -41.273438 C 48.269531 -41.101562 45.996094 -40.808594 44.597656 -40.632812 C 43.199219 -40.515625 41.742188 -40.285156 41.273438 -40.226562 C 40.867188 -40.109375 38.882812 -39.816406 36.960938 -39.585938 C 35.035156 -39.351562 32.996094 -39.058594 32.414062 -39 C 30.257812 -38.59375 28.855469 -38.417969 28.042969 -38.359375 C 27.574219 -38.300781 26.875 -38.242188 26.523438 -38.183594 C 25.765625 -38.066406 25.652344 -38.183594 26.292969 -38.417969 C 26.699219 -38.59375 26.875 -39 26.523438 -39 C 26 -39 26.875 -39.292969 27.632812 -39.410156 C 28.683594 -39.527344 28.972656 -39.875 27.925781 -39.757812 C 27.515625 -39.699219 26.992188 -39.640625 26.816406 -39.527344 C 26.523438 -39.46875 26.523438 -39.527344 26.699219 -39.699219 C 26.875 -39.875 26.875 -40.226562 26.816406 -40.574219 C 26.699219 -40.925781 26.757812 -41.101562 26.875 -41.101562 C 26.992188 -41.101562 27.050781 -41.273438 27.050781 -41.449219 C 27.050781 -41.625 27.167969 -41.800781 27.226562 -41.800781 C 27.398438 -41.800781 27.398438 -41.914062 27.339844 -42.148438 C 27.285156 -42.324219 27.398438 -42.558594 27.574219 -42.730469 C 27.75 -42.964844 27.867188 -43.257812 27.867188 -43.605469 C 27.808594 -43.957031 27.925781 -44.304688 27.984375 -44.421875 C 28.097656 -44.539062 28.097656 -44.714844 28.042969 -44.773438 C 27.925781 -44.890625 27.867188 -44.832031 27.808594 -44.714844 C 27.75 -44.421875 27.398438 -44.363281 27.398438 -44.65625 C 27.398438 -44.714844 27.574219 -44.890625 27.867188 -45.0625 C 28.273438 -45.296875 29.441406 -47.277344 29.148438 -47.394531 C 28.972656 -47.511719 28.742188 -47.164062 28.449219 -46.519531 C 28.332031 -46.230469 28.214844 -46.054688 28.15625 -46.230469 C 28.097656 -46.347656 28.273438 -46.8125 28.449219 -47.277344 C 28.683594 -47.6875 28.914062 -47.980469 28.972656 -47.863281 C 29.03125 -47.570312 29.671875 -47.628906 29.730469 -47.863281 C 29.789062 -48.269531 29.847656 -48.445312 29.964844 -48.796875 C 30.023438 -48.96875 30.023438 -49.144531 29.964844 -49.203125 C 29.90625 -49.261719 30.023438 -49.496094 30.199219 -49.667969 C 30.316406 -49.84375 30.371094 -50.019531 30.371094 -50.078125 C 30.257812 -50.136719 30.371094 -50.425781 30.546875 -50.660156 C 30.78125 -50.894531 30.957031 -51.300781 30.957031 -51.59375 C 30.957031 -51.886719 31.074219 -52.234375 31.1875 -52.410156 C 31.304688 -52.527344 31.480469 -52.816406 31.480469 -52.992188 C 31.480469 -53.226562 31.539062 -53.34375 31.65625 -53.34375 C 31.832031 -53.34375 32.414062 -54.566406 32.589844 -55.324219 C 32.703125 -55.675781 32.878906 -56.140625 33.054688 -56.375 C 33.230469 -56.605469 33.40625 -56.957031 33.40625 -57.132812 C 33.40625 -57.539062 33.929688 -58.820312 34.105469 -58.820312 C 34.164062 -58.820312 34.335938 -59.171875 34.453125 -59.578125 C 34.570312 -59.988281 34.863281 -60.863281 35.152344 -61.386719 C 36.667969 -64.710938 36.902344 -65.234375 36.785156 -65.410156 C 36.785156 -65.46875 36.84375 -65.585938 36.960938 -65.644531 C 37.136719 -65.703125 37.253906 -65.875 37.253906 -66.109375 C 37.253906 -66.285156 37.308594 -66.460938 37.367188 -66.460938 C 37.484375 -66.460938 38.359375 -68.089844 38.941406 -69.492188 C 39.757812 -71.238281 40.75 -73.398438 40.925781 -73.453125 C 40.984375 -73.511719 41.101562 -73.746094 41.101562 -73.921875 C 41.101562 -74.097656 41.214844 -74.328125 41.390625 -74.445312 C 41.507812 -74.5625 42.265625 -75.960938 43.023438 -77.535156 C 44.363281 -80.332031 44.421875 -80.507812 44.246094 -81.035156 C 44.191406 -81.382812 44.015625 -81.792969 43.839844 -81.90625 C 43.605469 -82.199219 42.5 -82.78125 42.089844 -82.78125 C 41.972656 -82.78125 41.800781 -82.898438 41.683594 -83.015625 C 41.332031 -83.308594 38.652344 -83.714844 38.125 -83.480469 C 37.253906 -83.074219 37.136719 -83.015625 37.136719 -82.722656 C 37.078125 -82.550781 36.785156 -81.964844 36.4375 -81.441406 C 36.085938 -80.976562 35.851562 -80.507812 35.851562 -80.390625 C 35.851562 -80.277344 35.679688 -80.101562 35.5625 -79.925781 C 35.445312 -79.867188 35.09375 -79.34375 34.804688 -78.816406 C 34.453125 -78.234375 34.105469 -77.710938 33.8125 -77.652344 C 33.578125 -77.535156 33.40625 -77.417969 33.40625 -77.359375 C 33.40625 -77.359375 33.347656 -77.1875 33.289062 -77.070312 C 33.054688 -76.542969 33.929688 -76.894531 34.570312 -77.535156 L 35.152344 -78.292969 L 34.570312 -77.359375 C 34.277344 -76.894531 33.929688 -76.429688 33.929688 -76.429688 C 33.753906 -76.253906 33.8125 -75.785156 33.929688 -75.671875 C 34.046875 -75.613281 33.8125 -75.027344 32.414062 -72.054688 C 31.363281 -69.898438 29.324219 -65.410156 29.324219 -65.292969 C 29.324219 -65.292969 28.972656 -64.417969 28.507812 -63.425781 C 27.167969 -60.570312 27.050781 -60.222656 25.242188 -55.789062 C 23.378906 -51.300781 21.746094 -47.105469 20.871094 -44.480469 C 20.519531 -43.546875 19.878906 -41.742188 19.414062 -40.457031 C 19.003906 -39.234375 18.65625 -38.183594 18.65625 -38.125 C 18.65625 -38.125 18.539062 -38.066406 18.421875 -38.066406 C 18.304688 -38.066406 17.898438 -38.011719 17.546875 -37.894531 C 16.789062 -37.660156 16.789062 -37.308594 17.546875 -37.484375 C 17.839844 -37.484375 17.957031 -37.484375 17.839844 -37.367188 C 17.839844 -37.308594 17.546875 -37.195312 17.257812 -37.195312 C 16.964844 -37.195312 16.730469 -37.136719 16.613281 -37.078125 C 16.613281 -36.960938 16.324219 -36.960938 16.148438 -36.902344 C 15.566406 -36.84375 14.808594 -36.667969 13.992188 -36.378906 C 13 -36.027344 10.726562 -35.5625 10.609375 -35.679688 C 10.609375 -35.738281 10.785156 -35.792969 11.078125 -35.851562 C 12.242188 -36.203125 13.410156 -36.550781 13.464844 -36.667969 C 13.523438 -36.726562 13.699219 -36.726562 13.933594 -36.726562 C 14.109375 -36.667969 14.515625 -36.726562 14.75 -36.960938 C 15.039062 -37.078125 15.566406 -37.195312 15.914062 -37.195312 C 16.441406 -37.195312 16.90625 -37.484375 16.671875 -37.660156 C 16.613281 -37.660156 10.085938 -36.085938 8.570312 -35.621094 C 8.277344 -35.503906 7.578125 -35.328125 6.996094 -35.152344 C 5.714844 -34.804688 3.207031 -34.046875 2.15625 -33.695312 C 1.75 -33.578125 0.933594 -33.347656 0.40625 -33.230469 L -0.523438 -32.996094 L -0.523438 -32.0625 C -0.464844 -30.839844 -0.175781 -29.613281 0.175781 -29.5 C 0.351562 -29.441406 0.40625 -29.324219 0.40625 -29.207031 C 0.40625 -29.089844 0.699219 -28.683594 1.050781 -28.214844 C 1.808594 -27.339844 2.566406 -27.109375 3.148438 -27.574219 C 3.496094 -27.867188 4.023438 -28.214844 4.722656 -28.390625 C 5.714844 -28.800781 9.210938 -29.558594 9.617188 -29.558594 C 9.910156 -29.558594 10.785156 -29.730469 11.542969 -29.847656 C 12.359375 -30.023438 13.523438 -30.257812 14.28125 -30.371094 C 14.984375 -30.488281 15.742188 -30.664062 15.914062 -30.722656 C 16.324219 -30.839844 16.265625 -30.722656 15.625 -28.449219 C 13.523438 -21.160156 11.949219 -14.574219 11.484375 -10.960938 C 11.308594 -10.085938 11.25 -9.386719 11.191406 -9.328125 C 10.960938 -8.976562 11.136719 -4.605469 11.367188 -3.789062 C 11.484375 -3.324219 11.601562 -2.855469 11.542969 -2.796875 C 11.367188 -2.507812 11.949219 -1.632812 12.652344 -1.109375 C 14.515625 0.40625 15.507812 0.933594 16.207031 0.933594 C 16.441406 0.933594 16.730469 1.050781 16.847656 1.050781 C 16.964844 1.164062 17.429688 1.222656 17.839844 1.222656 C 18.480469 1.28125 18.65625 1.222656 18.886719 0.933594 C 19.179688 0.523438 19.0625 0.117188 18.597656 -0.40625 C 18.1875 -0.875 18.1875 -0.875 19.878906 -3.265625 C 21.394531 -5.421875 21.863281 -6.238281 23.550781 -9.445312 C 25.007812 -12.183594 25.824219 -14.222656 26.292969 -16.207031 C 26.582031 -17.546875 26.582031 -17.488281 26.351562 -17.488281 C 26.292969 -17.488281 26.175781 -17.3125 26.058594 -17.023438 C 25.765625 -16.207031 25.824219 -16.964844 26.175781 -18.304688 C 26.351562 -18.945312 26.523438 -19.355469 26.523438 -19.179688 C 26.523438 -18.945312 26.699219 -19.121094 26.816406 -19.589844 C 26.992188 -20.230469 27.050781 -20.460938 26.875 -20.8125 C 26.699219 -21.160156 26.699219 -21.277344 26.875 -21.394531 C 27.050781 -21.570312 27.050781 -21.570312 26.875 -21.804688 C 26.699219 -21.976562 26.523438 -22.621094 26.46875 -23.550781 C 26.175781 -26.875 25.359375 -28.683594 23.320312 -30.605469 C 22.792969 -31.1875 22.792969 -31.1875 23.085938 -31.714844 C 23.261719 -31.945312 23.378906 -32.355469 23.378906 -32.53125 C 23.378906 -32.878906 23.4375 -32.878906 23.667969 -32.472656 C 23.84375 -32.238281 23.902344 -32.238281 23.902344 -32.472656 C 23.902344 -32.589844 24.078125 -32.878906 24.308594 -32.996094 C 24.71875 -33.230469 24.71875 -33.289062 24.367188 -33.578125 C 24.195312 -33.8125 24.078125 -33.8125 24.078125 -33.695312 C 24.078125 -33.578125 24.019531 -33.460938 23.902344 -33.460938 C 23.785156 -33.460938 23.726562 -33.578125 23.785156 -33.636719 C 23.84375 -33.871094 25.652344 -34.511719 25.882812 -34.453125 C 25.941406 -34.394531 26.351562 -34.453125 26.875 -34.511719 C 27.75 -34.746094 27.984375 -34.804688 29.5 -34.976562 C 30.023438 -35.035156 31.421875 -35.269531 32.53125 -35.503906 C 33.753906 -35.792969 34.976562 -35.96875 35.328125 -35.96875 C 35.96875 -35.96875 37.601562 -36.203125 38.125 -36.4375 C 38.242188 -36.496094 38.882812 -36.550781 39.527344 -36.550781 C 40.109375 -36.550781 41.449219 -36.785156 42.441406 -37.019531 C 43.375 -37.195312 44.246094 -37.367188 44.363281 -37.367188 C 44.714844 -37.308594 44.949219 -37.367188 44.949219 -37.542969 C 44.949219 -37.660156 44.890625 -37.660156 44.773438 -37.660156 C 44.714844 -37.601562 44.597656 -37.601562 44.539062 -37.660156 C 44.480469 -37.777344 44.015625 -37.777344 43.546875 -37.660156 C 43.082031 -37.601562 42.617188 -37.542969 42.558594 -37.601562 C 42.324219 -37.835938 42.671875 -37.953125 43.78125 -38.011719 C 44.539062 -38.011719 44.890625 -37.953125 45.0625 -37.777344 C 45.238281 -37.484375 46.347656 -37.308594 46.347656 -37.542969 C 46.347656 -37.660156 46.929688 -37.660156 47.628906 -37.660156 C 49.144531 -37.660156 51.070312 -38.183594 51.070312 -38.59375 C 51.011719 -38.769531 51.183594 -38.882812 51.59375 -38.882812 C 51.886719 -38.882812 52.175781 -38.824219 52.175781 -38.769531 C 52.175781 -38.652344 51.941406 -38.59375 51.769531 -38.59375 C 51.59375 -38.59375 51.417969 -38.535156 51.417969 -38.417969 C 51.417969 -38.242188 52.351562 -38.417969 52.527344 -38.710938 C 52.757812 -39.058594 52.875 -38.59375 52.699219 -38.242188 C 52.585938 -38.011719 52.46875 -37.601562 52.410156 -37.308594 C 52.410156 -37.078125 52.292969 -36.726562 52.175781 -36.609375 C 52.058594 -36.496094 51.941406 -36.261719 51.941406 -36.085938 C 51.941406 -35.910156 51.886719 -35.445312 51.769531 -35.09375 C 51.535156 -34.570312 50.71875 -31.890625 50.484375 -31.015625 C 50.425781 -30.898438 50.253906 -30.839844 50.078125 -30.839844 C 49.902344 -30.898438 49.785156 -30.78125 49.726562 -30.546875 C 49.667969 -30.316406 49.726562 -30.257812 49.960938 -30.316406 C 50.195312 -30.429688 50.195312 -30.371094 50.136719 -30.140625 C 50.078125 -29.964844 49.960938 -29.5 49.84375 -29.03125 C 49.554688 -27.75 49.554688 -27.75 49.320312 -27.984375 C 49.085938 -28.097656 48.96875 -28.042969 48.851562 -27.691406 C 48.738281 -27.457031 48.738281 -27.226562 48.796875 -27.167969 C 48.910156 -27.109375 48.910156 -26.933594 48.738281 -26.816406 C 48.621094 -26.699219 48.445312 -26.175781 48.386719 -25.710938 C 48.269531 -24.953125 47.921875 -23.609375 47.628906 -22.851562 C 47.570312 -22.675781 47.570312 -22.503906 47.511719 -22.386719 C 47.394531 -21.570312 47.222656 -21.105469 46.988281 -21.160156 C 46.871094 -21.21875 46.695312 -21.160156 46.695312 -21.105469 C 46.695312 -20.988281 46.8125 -20.871094 46.871094 -20.8125 C 46.988281 -20.8125 46.636719 -19.179688 46.230469 -18.1875 C 46.171875 -18.070312 46.113281 -17.898438 46.113281 -17.839844 C 46.171875 -17.722656 46.113281 -17.664062 45.996094 -17.664062 C 45.9375 -17.664062 45.878906 -17.488281 45.820312 -17.199219 C 45.761719 -15.097656 45.761719 -14.925781 45.53125 -14.984375 C 45.414062 -15.039062 45.296875 -14.925781 45.296875 -14.867188 C 45.296875 -14.75 45.355469 -14.691406 45.414062 -14.691406 C 45.589844 -14.691406 45.589844 -13.582031 45.414062 -13.234375 C 45.296875 -13.117188 45.238281 -12.652344 45.238281 -12.300781 C 45.179688 -11.25 44.949219 -10.609375 44.773438 -10.960938 C 44.65625 -11.191406 44.597656 -11.136719 44.597656 -10.785156 C 44.597656 -10.609375 44.714844 -10.433594 44.773438 -10.433594 C 44.890625 -10.433594 44.949219 -10.261719 44.949219 -10.144531 C 44.949219 -10.027344 44.832031 -9.851562 44.714844 -9.851562 C 44.539062 -9.851562 44.421875 -9.792969 44.421875 -9.675781 C 44.421875 -9.503906 44.363281 -9.152344 44.304688 -8.804688 C 44.191406 -8.394531 44.246094 -8.277344 44.363281 -8.394531 C 44.714844 -8.511719 44.65625 -8.21875 44.363281 -7.988281 C 44.074219 -7.636719 44.132812 -4.664062 44.480469 -3.730469 C 44.65625 -3.324219 44.714844 -2.855469 44.714844 -2.625 C 44.597656 -2.449219 44.773438 -2.097656 45.0625 -1.808594 C 45.589844 -1.164062 47.628906 0.0585938 48.039062 0.0585938 C 48.152344 0.0585938 48.328125 0.117188 48.386719 0.234375 C 48.445312 0.292969 48.679688 0.351562 48.96875 0.40625 C 49.203125 0.40625 49.726562 0.40625 50.078125 0.464844 C 50.484375 0.523438 50.953125 0.464844 51.183594 0.351562 C 51.535156 0.175781 51.535156 0.117188 51.359375 -0.582031 C 51.242188 -0.992188 51.011719 -1.515625 50.894531 -1.691406 C 50.71875 -2.097656 50.660156 -4.3125 50.835938 -6.0625 C 50.894531 -6.644531 50.953125 -7.636719 50.953125 -8.21875 C 51.011719 -8.917969 51.125 -9.445312 51.242188 -9.503906 C 51.417969 -9.617188 51.417969 -9.734375 51.417969 -9.851562 C 51.300781 -9.910156 51.359375 -10.261719 51.417969 -10.492188 C 52.234375 -13.175781 52.757812 -15.796875 52.699219 -17.082031 C 52.699219 -17.257812 52.757812 -17.488281 52.875 -17.605469 C 53.050781 -17.898438 53.574219 -19.53125 53.691406 -20.230469 C 53.75 -20.636719 53.808594 -20.988281 53.867188 -21.160156 C 53.925781 -21.21875 53.984375 -21.570312 54.042969 -21.746094 C 54.101562 -22.621094 54.160156 -23.085938 54.273438 -23.320312 C 54.390625 -23.378906 54.449219 -23.960938 54.449219 -24.425781 C 54.507812 -24.953125 54.742188 -25.824219 54.972656 -26.351562 C 55.148438 -26.933594 55.324219 -27.574219 55.382812 -27.867188 C 55.5 -28.742188 55.558594 -29.03125 55.675781 -29.148438 C 55.789062 -29.207031 55.847656 -29.382812 55.847656 -29.5 C 55.847656 -29.671875 55.964844 -30.082031 56.199219 -30.429688 C 56.375 -30.839844 56.605469 -31.539062 56.722656 -32.121094 C 56.839844 -32.648438 57.074219 -33.171875 57.132812 -33.289062 C 57.363281 -33.578125 57.832031 -35.738281 57.832031 -36.085938 C 57.773438 -36.203125 57.832031 -36.496094 58.007812 -36.609375 C 58.179688 -36.785156 58.355469 -37.253906 58.355469 -37.601562 C 58.589844 -38.769531 58.707031 -38.769531 62.496094 -38.769531 C 64.359375 -38.769531 65.933594 -38.769531 66.050781 -38.59375 C 66.402344 -38.242188 64.652344 -35.269531 63.3125 -33.988281 C 62.84375 -33.578125 62.84375 -33.230469 63.3125 -33.40625 C 63.425781 -33.460938 63.542969 -33.40625 63.542969 -33.289062 C 63.542969 -32.996094 63.835938 -33.113281 64.535156 -33.8125 L 65.234375 -34.453125 L 64.886719 -33.871094 C 64.417969 -33.054688 64.710938 -32.761719 65.527344 -33.054688 C 65.875 -33.230469 66.285156 -33.289062 66.574219 -33.289062 C 67.160156 -33.289062 68.441406 -34.804688 69.375 -36.667969 C 69.78125 -37.484375 69.78125 -37.660156 69.316406 -38.417969 C 69.082031 -38.769531 68.792969 -39.234375 68.617188 -39.527344 C 68.441406 -39.699219 68.265625 -40.109375 68.265625 -40.285156 C 68.265625 -40.808594 66.109375 -42.847656 65.117188 -43.140625 C 64.1875 -43.429688 62.203125 -43.78125 61.152344 -43.78125 C 60.628906 -43.78125 60.394531 -43.839844 60.394531 -44.015625 C 60.394531 -44.191406 60.453125 -44.363281 60.570312 -44.363281 C 60.628906 -44.421875 60.746094 -44.65625 60.746094 -44.773438 C 60.746094 -44.949219 60.863281 -45.179688 61.039062 -45.296875 C 61.445312 -45.53125 61.855469 -46.753906 61.679688 -47.222656 C 61.621094 -47.335938 61.679688 -47.628906 61.796875 -47.746094 C 61.855469 -47.863281 61.96875 -48.09375 61.96875 -48.269531 C 61.910156 -48.621094 62.203125 -49.261719 62.378906 -49.261719 C 62.554688 -49.261719 62.667969 -49.4375 62.726562 -49.667969 C 62.785156 -50.078125 63.3125 -51.359375 63.484375 -51.941406 C 63.542969 -52.058594 63.660156 -52.234375 63.660156 -52.292969 C 63.660156 -52.351562 63.71875 -52.527344 63.777344 -52.644531 C 64.1875 -53.457031 64.535156 -55.03125 64.476562 -55.265625 C 64.417969 -55.382812 64.476562 -55.5 64.59375 -55.441406 C 64.710938 -55.441406 64.886719 -55.558594 64.886719 -55.730469 C 64.886719 -55.90625 65.058594 -56.375 65.292969 -56.78125 C 65.585938 -57.304688 65.585938 -57.480469 65.410156 -57.65625 C 65.292969 -57.714844 65.292969 -57.773438 65.410156 -57.773438 C 65.644531 -57.773438 66.34375 -58.9375 66.34375 -59.347656 C 66.34375 -59.578125 66.460938 -59.929688 66.632812 -60.105469 C 66.984375 -60.453125 67.566406 -62.144531 67.507812 -62.496094 C 67.332031 -62.785156 68.792969 -65.875 69.257812 -66.167969 C 69.316406 -66.226562 69.316406 -66.402344 69.316406 -66.574219 C 69.199219 -66.75 69.316406 -66.984375 69.492188 -67.160156 C 69.664062 -67.332031 69.839844 -67.625 69.839844 -67.742188 C 69.839844 -67.859375 70.363281 -68.90625 70.890625 -70.132812 C 71.53125 -71.355469 71.9375 -72.464844 71.878906 -72.582031 C 71.824219 -72.695312 71.9375 -72.871094 71.996094 -72.988281 C 72.230469 -73.105469 72.8125 -74.269531 72.8125 -74.503906 C 72.8125 -74.5625 72.988281 -74.914062 73.164062 -75.320312 C 73.28125 -75.671875 73.398438 -76.019531 73.398438 -76.078125 C 73.398438 -76.195312 73.453125 -76.253906 73.570312 -76.253906 C 73.628906 -76.253906 73.746094 -76.3125 73.6875 -76.429688 C 73.628906 -76.777344 74.96875 -79.402344 75.320312 -79.808594 C 75.496094 -79.925781 75.726562 -80.449219 75.84375 -80.859375 C 76.078125 -81.617188 77.769531 -85.171875 78.117188 -85.523438 C 78.175781 -85.640625 78.292969 -85.871094 78.292969 -86.046875 C 78.292969 -86.28125 78.46875 -86.628906 78.703125 -86.863281 C 78.933594 -87.097656 79.167969 -87.445312 79.167969 -87.621094 C 79.167969 -87.796875 79.402344 -88.378906 79.691406 -88.902344 C 80.101562 -89.660156 80.21875 -90.011719 80.160156 -90.476562 C 79.925781 -91.703125 79.34375 -92.226562 77.246094 -92.984375 Z M 24.078125 -26 C 24.195312 -26 24.25 -26.175781 24.195312 -26.410156 C 24.136719 -26.640625 24.195312 -26.757812 24.308594 -26.582031 C 24.367188 -26.523438 24.425781 -26.175781 24.367188 -25.941406 C 24.367188 -25.476562 24.308594 -25.417969 24.136719 -25.710938 C 23.902344 -25.941406 23.902344 -26 24.078125 -26 Z M 23.902344 -20.695312 C 24.019531 -21.21875 24.078125 -22.269531 24.136719 -22.96875 C 24.136719 -23.667969 24.195312 -24.308594 24.308594 -24.308594 C 24.367188 -24.425781 24.425781 -24.542969 24.425781 -24.71875 C 24.425781 -24.894531 24.367188 -24.894531 24.25 -24.894531 C 24.195312 -24.835938 24.078125 -24.894531 24.078125 -25.066406 C 24.078125 -25.183594 24.195312 -25.300781 24.367188 -25.300781 C 24.601562 -25.300781 24.835938 -24.019531 24.71875 -22.851562 C 24.601562 -21.746094 24.425781 -20.289062 24.308594 -19.996094 C 24.25 -19.878906 24.195312 -19.414062 24.195312 -19.0625 C 24.136719 -18.246094 23.84375 -17.839844 23.667969 -18.246094 C 23.492188 -18.597656 23.550781 -18.886719 23.902344 -20.695312 Z M 46.519531 -40.574219 C 46.636719 -40.574219 46.695312 -40.457031 46.695312 -40.398438 C 46.695312 -40.285156 46.636719 -40.226562 46.519531 -40.226562 C 46.464844 -40.226562 46.347656 -40.285156 46.347656 -40.398438 C 46.347656 -40.457031 46.464844 -40.574219 46.519531 -40.574219 Z M 33.054688 -38.710938 C 33.113281 -38.769531 33.289062 -38.769531 33.40625 -38.769531 C 33.578125 -38.652344 33.519531 -38.652344 33.289062 -38.59375 C 33.113281 -38.59375 33.054688 -38.652344 33.054688 -38.710938 Z M 27.109375 -37.835938 C 27.167969 -37.894531 27.339844 -37.894531 27.457031 -37.835938 C 27.574219 -37.777344 27.574219 -37.777344 27.339844 -37.71875 C 27.167969 -37.71875 27.050781 -37.777344 27.109375 -37.835938 Z M 26.175781 -40.34375 C 26 -40.050781 25.882812 -39.875 25.824219 -39.992188 C 25.824219 -40.285156 26.175781 -41.15625 26.292969 -41.042969 C 26.351562 -41.042969 26.292969 -40.691406 26.175781 -40.34375 Z M 27.574219 -43.839844 C 27.574219 -43.78125 27.515625 -43.722656 27.398438 -43.664062 C 27.339844 -43.605469 27.226562 -43.605469 27.226562 -43.78125 C 27.226562 -43.839844 27.339844 -43.957031 27.398438 -43.957031 C 27.515625 -43.957031 27.574219 -43.898438 27.574219 -43.839844 Z M 30.78125 -52.46875 C 30.546875 -52.46875 30.546875 -52.585938 30.78125 -52.699219 C 30.839844 -52.757812 30.957031 -52.757812 30.957031 -52.644531 C 30.957031 -52.527344 30.839844 -52.46875 30.78125 -52.46875 Z M 19.238281 -38.59375 C 19.355469 -38.769531 19.414062 -39.058594 19.472656 -39.234375 C 19.53125 -39.410156 19.589844 -39.699219 19.644531 -39.875 C 19.703125 -39.992188 19.820312 -40.167969 19.820312 -40.226562 C 19.820312 -40.285156 19.878906 -40.457031 19.9375 -40.574219 C 19.996094 -40.691406 20.289062 -41.507812 20.578125 -42.324219 C 20.871094 -43.082031 21.105469 -43.839844 21.21875 -43.898438 C 21.21875 -43.957031 21.277344 -44.191406 21.277344 -44.480469 C 21.277344 -44.714844 21.394531 -45.003906 21.394531 -45.0625 C 21.511719 -45.179688 21.746094 -45.648438 21.917969 -46.171875 C 22.445312 -47.6875 22.910156 -48.5625 23.144531 -48.5625 C 23.320312 -48.5625 23.378906 -48.621094 23.378906 -48.738281 C 23.378906 -48.796875 23.261719 -48.851562 23.144531 -48.796875 C 22.96875 -48.738281 22.851562 -48.738281 22.851562 -48.796875 C 22.851562 -48.851562 23.378906 -50.136719 24.136719 -51.941406 C 24.195312 -52.117188 24.308594 -52.527344 24.367188 -52.699219 C 24.367188 -53.050781 24.894531 -53.574219 25.066406 -53.34375 C 25.066406 -53.226562 25.300781 -53.226562 25.359375 -53.285156 C 25.476562 -53.34375 25.476562 -53.285156 25.417969 -53.050781 C 25.300781 -52.875 25.125 -52.410156 25.007812 -52 C 24.542969 -50.71875 24.25 -50.195312 23.902344 -50.078125 C 23.726562 -50.019531 23.550781 -49.902344 23.550781 -49.84375 C 23.550781 -49.726562 23.492188 -49.554688 23.4375 -49.261719 C 23.378906 -48.96875 23.378906 -48.910156 23.492188 -48.96875 C 23.609375 -49.027344 23.667969 -48.910156 23.609375 -48.621094 C 23.550781 -48.328125 23.4375 -48.210938 23.261719 -48.269531 C 23.144531 -48.328125 22.96875 -48.210938 22.851562 -47.921875 C 22.621094 -47.335938 22.621094 -46.929688 22.910156 -47.046875 C 23.027344 -47.105469 23.085938 -47.105469 22.96875 -46.871094 C 22.910156 -46.695312 22.96875 -46.578125 23.085938 -46.636719 C 23.320312 -46.753906 23.378906 -47.105469 23.144531 -47.453125 C 22.96875 -47.6875 23.027344 -47.6875 23.4375 -47.6875 C 23.492188 -47.746094 23.667969 -47.863281 23.726562 -48.039062 C 24.195312 -48.796875 24.835938 -50.367188 24.894531 -50.835938 C 24.953125 -51.183594 25.066406 -51.417969 25.183594 -51.476562 C 25.242188 -51.535156 25.300781 -51.769531 25.300781 -52 C 25.300781 -52.234375 25.417969 -52.527344 25.535156 -52.699219 C 25.882812 -53.050781 26.351562 -53.984375 26.292969 -54.101562 C 26.234375 -54.160156 26.351562 -54.507812 26.523438 -54.859375 C 26.699219 -55.265625 26.875 -55.675781 26.875 -55.847656 C 26.875 -56.023438 26.992188 -56.199219 27.050781 -56.199219 C 27.167969 -56.199219 27.226562 -56.375 27.226562 -56.605469 C 27.226562 -56.839844 27.339844 -57.132812 27.398438 -57.132812 C 27.515625 -57.191406 27.574219 -57.304688 27.515625 -57.421875 C 27.339844 -57.714844 26.175781 -56.722656 26.175781 -56.375 C 26.175781 -55.964844 26.46875 -55.847656 26.582031 -56.199219 C 26.699219 -56.375 26.699219 -56.375 26.699219 -56.199219 C 26.699219 -56.082031 26.523438 -55.789062 26.351562 -55.558594 C 26.117188 -55.324219 25.941406 -54.972656 25.941406 -54.742188 C 25.941406 -54.507812 25.824219 -54.332031 25.710938 -54.332031 C 25.652344 -54.332031 25.417969 -54.160156 25.242188 -53.984375 C 24.894531 -53.457031 24.894531 -53.925781 25.300781 -54.742188 C 25.476562 -55.148438 25.824219 -55.847656 26 -56.316406 C 26.117188 -56.78125 26.46875 -57.65625 26.757812 -58.238281 C 27.050781 -58.820312 27.226562 -59.347656 27.226562 -59.40625 C 27.226562 -59.578125 27.632812 -60.453125 28.683594 -62.785156 C 29.148438 -63.835938 29.5 -64.300781 29.558594 -64.128906 C 29.671875 -64.011719 29.671875 -64.070312 29.613281 -64.359375 C 29.5 -64.59375 29.558594 -64.886719 29.671875 -64.945312 C 29.789062 -65 29.847656 -64.945312 29.847656 -64.828125 C 29.847656 -64.652344 29.90625 -64.652344 30.082031 -64.828125 C 30.257812 -65 30.257812 -65.117188 30.082031 -65.175781 C 29.730469 -65.410156 30.664062 -67.390625 31.015625 -67.21875 C 31.132812 -67.160156 31.304688 -67.21875 31.304688 -67.332031 C 31.304688 -67.449219 31.363281 -67.507812 31.480469 -67.507812 C 31.597656 -67.507812 31.597656 -67.449219 31.539062 -67.332031 C 31.304688 -66.984375 31.945312 -67.160156 32.179688 -67.566406 C 32.703125 -68.265625 32.703125 -67.742188 32.296875 -66.867188 C 32.003906 -66.402344 31.832031 -65.875 31.714844 -65.644531 C 31.65625 -65.351562 31.65625 -65.351562 32.003906 -65.757812 C 32.179688 -65.992188 32.355469 -66.402344 32.472656 -66.632812 C 32.53125 -66.867188 32.761719 -67.449219 33.054688 -67.859375 C 33.347656 -68.265625 33.578125 -68.617188 33.578125 -68.734375 C 33.578125 -68.847656 34.804688 -71.472656 35.152344 -71.996094 C 35.328125 -72.171875 35.5625 -72.753906 35.738281 -73.28125 C 35.910156 -73.6875 36.144531 -74.210938 36.261719 -74.269531 C 36.609375 -74.5625 36.261719 -73.6875 34.105469 -69.023438 C 33.695312 -68.207031 33.40625 -67.507812 33.40625 -67.449219 C 33.40625 -67.390625 33.113281 -66.75 32.761719 -66.050781 C 32.003906 -64.300781 31.65625 -63.484375 30.664062 -61.039062 C 30.199219 -59.929688 29.789062 -58.820312 29.671875 -58.765625 C 29.671875 -58.648438 29.441406 -58.179688 29.265625 -57.714844 C 29.089844 -57.191406 28.855469 -56.722656 28.800781 -56.605469 C 28.683594 -56.492188 28.449219 -55.847656 28.214844 -55.089844 C 27.984375 -54.390625 27.691406 -53.632812 27.574219 -53.457031 C 27.398438 -53.226562 27.109375 -52.46875 26.816406 -51.769531 C 26.523438 -51.011719 26.058594 -49.726562 25.765625 -48.910156 C 25.476562 -48.039062 25.066406 -46.988281 24.953125 -46.464844 C 24.835938 -45.9375 24.71875 -45.53125 24.601562 -45.53125 C 24.542969 -45.53125 24.367188 -45.296875 24.367188 -44.949219 C 24.25 -44.65625 24.195312 -44.304688 24.078125 -44.132812 C 23.667969 -43.429688 22.851562 -41.214844 22.851562 -40.925781 C 22.851562 -40.75 22.792969 -40.515625 22.675781 -40.457031 C 22.621094 -40.457031 22.445312 -40.050781 22.445312 -39.585938 C 22.269531 -38.882812 22.269531 -38.769531 21.746094 -38.710938 C 21.453125 -38.652344 21.046875 -38.59375 20.871094 -38.535156 C 20.578125 -38.417969 20.578125 -38.882812 20.871094 -39.699219 C 21.160156 -40.398438 21.160156 -40.867188 20.871094 -40.984375 C 20.753906 -41.042969 20.8125 -41.101562 21.046875 -41.214844 C 21.394531 -41.273438 21.804688 -42.207031 22.09375 -43.488281 C 22.152344 -43.898438 22.09375 -43.957031 21.976562 -43.78125 C 21.863281 -43.722656 21.6875 -43.605469 21.570312 -43.722656 C 21.394531 -43.78125 21.277344 -43.605469 21.21875 -43.429688 C 21.160156 -43.199219 21.21875 -43.023438 21.394531 -43.023438 C 21.746094 -43.023438 21.746094 -42.671875 21.394531 -42.558594 C 21.21875 -42.5 21.160156 -42.324219 21.21875 -42.148438 C 21.277344 -41.914062 21.21875 -41.800781 21.105469 -41.800781 C 20.8125 -41.800781 20.402344 -41.273438 20.402344 -40.808594 C 20.402344 -40.574219 20.347656 -40.34375 20.230469 -40.285156 C 19.996094 -40.109375 19.996094 -39.699219 20.347656 -39.816406 C 20.636719 -39.875 20.695312 -39.410156 20.402344 -39.234375 C 20.289062 -39.175781 20.230469 -39 20.347656 -38.882812 C 20.347656 -38.769531 20.347656 -38.59375 20.171875 -38.476562 C 20.054688 -38.417969 19.820312 -38.359375 19.589844 -38.300781 C 19.238281 -38.300781 19.179688 -38.359375 19.238281 -38.59375 Z M 24.078125 -49.726562 C 24.078125 -49.667969 24.019531 -49.554688 23.902344 -49.554688 C 23.84375 -49.496094 23.726562 -49.496094 23.726562 -49.609375 C 23.726562 -49.726562 23.84375 -49.785156 23.902344 -49.785156 C 24.019531 -49.785156 24.078125 -49.726562 24.078125 -49.726562 Z M 25.476562 -53.691406 C 25.476562 -53.808594 25.59375 -53.867188 25.652344 -53.867188 C 25.765625 -53.867188 25.824219 -53.808594 25.824219 -53.808594 C 25.824219 -53.75 25.765625 -53.632812 25.652344 -53.632812 C 25.59375 -53.574219 25.476562 -53.574219 25.476562 -53.691406 Z M 32.9375 -64.011719 C 33.230469 -64.1875 33.230469 -64.1875 33.113281 -63.71875 C 33.054688 -63.601562 32.9375 -63.425781 32.878906 -63.425781 C 32.589844 -63.425781 32.648438 -63.71875 32.9375 -64.011719 Z M 32.878906 -63.078125 C 32.878906 -63.019531 32.761719 -62.902344 32.703125 -62.902344 C 32.589844 -62.902344 32.53125 -63.019531 32.53125 -63.078125 C 32.53125 -63.195312 32.589844 -63.253906 32.703125 -63.253906 C 32.761719 -63.253906 32.878906 -63.195312 32.878906 -63.078125 Z M 30.023438 -56.023438 C 30.023438 -55.789062 30.023438 -55.789062 29.671875 -56.023438 C 29.5 -56.140625 29.5 -56.199219 29.730469 -56.199219 C 29.90625 -56.199219 30.023438 -56.082031 30.023438 -56.023438 Z M 29.148438 -54.507812 C 29.148438 -54.449219 29.089844 -54.332031 28.972656 -54.332031 C 28.914062 -54.273438 28.800781 -54.273438 28.800781 -54.390625 C 28.800781 -54.507812 28.914062 -54.566406 28.972656 -54.566406 C 29.089844 -54.566406 29.148438 -54.566406 29.148438 -54.507812 Z M 28.800781 -53.457031 C 28.800781 -53.226562 28.683594 -52.992188 28.566406 -52.875 C 28.332031 -52.875 28.273438 -52.875 28.390625 -53.050781 C 28.449219 -53.226562 28.449219 -53.457031 28.449219 -53.632812 C 28.449219 -53.75 28.566406 -53.867188 28.625 -53.867188 C 28.742188 -53.867188 28.800781 -53.691406 28.800781 -53.457031 Z M 28.273438 -52.175781 C 28.273438 -52.058594 28.15625 -51.941406 28.042969 -51.941406 C 27.867188 -51.941406 27.75 -52 27.808594 -52.117188 C 27.925781 -52.46875 28.273438 -52.527344 28.273438 -52.175781 Z M 27.226562 -49.902344 C 27.226562 -49.667969 27.167969 -49.4375 27.050781 -49.4375 C 26.875 -49.4375 26.875 -50.078125 27.050781 -50.253906 C 27.167969 -50.3125 27.226562 -50.136719 27.226562 -49.902344 Z M 26.523438 -47.6875 C 26.46875 -47.511719 26.351562 -47.335938 26.175781 -47.222656 C 25.941406 -47.046875 26 -47.921875 26.292969 -48.210938 C 26.582031 -48.445312 26.699219 -48.210938 26.523438 -47.6875 Z M 26 -46.578125 C 25.882812 -46.347656 25.824219 -46.054688 25.824219 -45.9375 C 25.824219 -45.820312 25.765625 -45.707031 25.652344 -45.707031 C 25.476562 -45.707031 25.652344 -46.578125 25.882812 -46.871094 C 26 -46.988281 26 -46.929688 26 -46.578125 Z M 25.066406 -45.003906 C 25.007812 -45.0625 25.066406 -45.179688 25.242188 -45.179688 C 25.359375 -45.179688 25.476562 -45.0625 25.476562 -45.003906 C 25.476562 -44.890625 25.417969 -44.832031 25.300781 -44.832031 C 25.242188 -44.832031 25.066406 -44.890625 25.066406 -45.003906 Z M 25.300781 -44.132812 C 25.300781 -44.015625 25.242188 -43.957031 25.125 -43.957031 C 25.066406 -43.957031 24.953125 -44.015625 24.953125 -44.132812 C 24.953125 -44.191406 25.066406 -44.304688 25.125 -44.304688 C 25.242188 -44.304688 25.300781 -44.191406 25.300781 -44.132812 Z M 24.25 -42.324219 C 24.195312 -42.324219 24.195312 -42.5 24.308594 -42.671875 C 24.542969 -43.082031 24.660156 -43.023438 24.542969 -42.671875 C 24.425781 -42.5 24.367188 -42.324219 24.25 -42.324219 Z M 24.367188 -41.566406 C 24.136719 -40.925781 23.902344 -40.808594 23.902344 -41.390625 C 23.902344 -41.800781 24.019531 -41.972656 24.195312 -41.972656 C 24.367188 -41.972656 24.425781 -41.914062 24.367188 -41.566406 Z M 23.667969 -39.816406 C 23.492188 -39.410156 23.320312 -39 23.144531 -39 C 22.910156 -39 22.910156 -39 23.144531 -39.699219 C 23.667969 -40.984375 24.078125 -41.101562 23.667969 -39.816406 Z M 23.027344 -27.808594 C 23.320312 -27.226562 23.609375 -22.734375 23.4375 -21.746094 C 23.378906 -21.335938 23.320312 -20.871094 23.320312 -20.8125 C 23.261719 -20.695312 23.203125 -20.460938 23.144531 -20.347656 C 23.085938 -20.230469 23.027344 -19.644531 22.96875 -19.121094 C 22.96875 -18.539062 22.851562 -18.015625 22.792969 -17.957031 C 22.792969 -17.839844 22.621094 -17.371094 22.503906 -16.90625 C 22.386719 -16.441406 22.210938 -16.03125 22.09375 -15.972656 C 22.09375 -15.914062 21.976562 -15.742188 21.976562 -15.566406 C 21.976562 -15.332031 21.917969 -15.214844 21.804688 -15.214844 C 21.746094 -15.214844 21.628906 -15.039062 21.628906 -14.925781 C 21.628906 -14.75 21.570312 -14.691406 21.453125 -14.75 C 21.394531 -14.808594 21.335938 -14.75 21.394531 -14.574219 C 21.453125 -14.457031 21.394531 -14.109375 21.21875 -13.875 C 21.046875 -13.640625 20.929688 -13.351562 20.929688 -13.234375 C 20.929688 -13.058594 20.753906 -12.765625 20.519531 -12.476562 C 20.289062 -12.183594 20.113281 -11.894531 20.171875 -11.835938 C 20.171875 -11.71875 20.171875 -11.542969 20.054688 -11.425781 C 19.820312 -11.191406 18.714844 -9.503906 18.714844 -9.328125 C 18.65625 -9.210938 18.65625 -9.09375 18.65625 -8.976562 C 18.65625 -8.917969 18.421875 -8.746094 18.1875 -8.570312 C 17.839844 -8.335938 17.78125 -8.335938 17.78125 -8.511719 C 17.78125 -9.09375 18.015625 -9.851562 18.128906 -9.792969 C 18.1875 -9.734375 18.304688 -9.851562 18.304688 -10.085938 C 18.246094 -10.320312 18.363281 -10.785156 18.539062 -11.191406 C 18.714844 -11.601562 18.832031 -12.300781 18.832031 -12.652344 C 18.832031 -13.058594 18.886719 -13.464844 19.003906 -13.523438 C 19.0625 -13.582031 19.121094 -13.757812 19.0625 -13.875 C 19.003906 -13.992188 19.0625 -14.28125 19.179688 -14.398438 C 19.296875 -14.574219 19.296875 -14.691406 19.179688 -14.75 C 19.0625 -14.867188 19.0625 -14.984375 19.179688 -15.214844 C 19.238281 -15.449219 19.296875 -15.625 19.238281 -15.742188 C 19.0625 -15.972656 19.589844 -17.082031 20.113281 -17.546875 C 20.460938 -17.839844 20.578125 -18.128906 20.460938 -18.1875 C 20.171875 -18.363281 19.996094 -19.0625 20.171875 -19.179688 C 20.347656 -19.238281 20.347656 -19.414062 20.289062 -19.644531 C 20.230469 -19.878906 20.347656 -19.996094 20.519531 -20.054688 C 20.8125 -20.054688 20.8125 -20.054688 20.519531 -20.289062 C 20.230469 -20.578125 20.230469 -20.578125 19.996094 -19.644531 C 19.9375 -19.53125 19.820312 -19.472656 19.820312 -19.53125 C 19.761719 -19.53125 19.820312 -19.9375 19.878906 -20.460938 C 19.996094 -20.929688 20.171875 -21.160156 20.230469 -21.046875 C 20.402344 -20.753906 20.753906 -20.988281 20.636719 -21.335938 C 20.578125 -21.453125 20.519531 -21.570312 20.402344 -21.511719 C 20.230469 -21.335938 20.347656 -22.328125 20.636719 -23.027344 L 20.8125 -23.4375 L 20.929688 -23.027344 L 21.046875 -22.5625 L 21.21875 -23.085938 C 21.21875 -23.378906 21.335938 -23.726562 21.394531 -23.84375 C 21.394531 -23.960938 21.394531 -24.078125 21.277344 -24.078125 C 21.21875 -24.078125 21.105469 -23.960938 21.105469 -23.84375 C 21.105469 -23.785156 21.046875 -23.726562 21.046875 -23.785156 C 20.8125 -23.960938 21.277344 -25.824219 21.570312 -25.824219 C 21.863281 -25.824219 22.445312 -26.523438 22.269531 -26.699219 C 22.210938 -26.757812 21.976562 -26.582031 21.804688 -26.351562 L 21.453125 -25.941406 L 21.570312 -26.351562 C 21.570312 -26.582031 21.804688 -27.398438 21.917969 -28.042969 L 22.269531 -29.324219 L 22.5625 -28.800781 C 22.734375 -28.449219 22.96875 -28.042969 23.027344 -27.808594 Z M 23.667969 -35.96875 C 23.261719 -35.152344 22.5625 -35.269531 22.851562 -36.085938 C 23.027344 -36.550781 23.320312 -36.726562 23.667969 -36.609375 C 23.84375 -36.550781 23.84375 -36.4375 23.667969 -35.96875 Z M 24.542969 -37.953125 C 24.367188 -37.660156 23.320312 -37.542969 23.4375 -37.835938 C 23.492188 -37.894531 23.785156 -38.066406 24.078125 -38.066406 C 24.367188 -38.066406 24.601562 -38.066406 24.542969 -37.953125 Z M 24.195312 -38.476562 C 23.960938 -38.417969 23.902344 -38.417969 24.019531 -38.59375 C 24.019531 -38.710938 24.195312 -38.769531 24.367188 -38.769531 C 24.484375 -38.769531 24.601562 -38.882812 24.601562 -39 C 24.601562 -39.058594 24.484375 -39.175781 24.367188 -39.175781 C 24.019531 -39.175781 24.019531 -39.351562 24.25 -39.585938 C 24.367188 -39.699219 24.542969 -40.285156 24.71875 -40.925781 C 24.835938 -41.566406 25.125 -42.382812 25.300781 -42.789062 C 25.476562 -43.199219 25.765625 -43.957031 25.941406 -44.539062 C 26.117188 -45.121094 26.351562 -45.9375 26.523438 -46.40625 C 26.699219 -46.753906 26.933594 -47.335938 26.992188 -47.570312 C 27.050781 -47.804688 27.167969 -48.039062 27.226562 -48.09375 C 27.339844 -48.152344 27.398438 -48.386719 27.398438 -48.621094 C 27.398438 -48.796875 27.691406 -49.554688 28.042969 -50.195312 C 28.972656 -52.292969 29.5 -53.632812 29.5 -53.984375 C 29.5 -54.160156 29.671875 -54.390625 29.789062 -54.566406 C 30.023438 -54.859375 30.488281 -56.023438 30.78125 -56.957031 C 30.78125 -57.304688 31.015625 -57.773438 31.132812 -58.0625 C 31.890625 -59.464844 32.179688 -60.105469 32.0625 -60.339844 C 32.003906 -60.453125 32.0625 -60.628906 32.121094 -60.628906 C 32.296875 -60.628906 32.703125 -61.796875 32.703125 -62.261719 C 32.703125 -62.378906 32.820312 -62.554688 32.9375 -62.667969 C 33.230469 -62.726562 34.277344 -64.828125 34.277344 -65.351562 C 34.277344 -65.527344 34.394531 -65.816406 34.511719 -65.933594 C 34.628906 -66.050781 34.804688 -66.226562 34.804688 -66.34375 C 34.804688 -66.574219 35.328125 -67.742188 35.386719 -67.683594 C 35.445312 -67.625 35.328125 -67.273438 35.210938 -66.925781 C 35.035156 -66.574219 34.976562 -66.226562 34.976562 -66.167969 C 35.09375 -66.109375 34.976562 -65.816406 34.804688 -65.46875 C 34.570312 -65.117188 34.453125 -64.769531 34.453125 -64.59375 C 34.453125 -64.476562 34.277344 -64.070312 34.105469 -63.777344 C 33.929688 -63.425781 33.695312 -62.902344 33.578125 -62.496094 C 33.40625 -62.085938 33.230469 -61.621094 33.113281 -61.503906 C 32.878906 -61.152344 32.355469 -59.753906 32.355469 -59.347656 C 32.355469 -59.171875 32.238281 -58.996094 32.121094 -58.9375 C 32.003906 -58.878906 31.773438 -58.472656 31.65625 -58.0625 C 31.480469 -57.714844 31.304688 -57.132812 31.132812 -56.839844 C 31.015625 -56.605469 30.957031 -56.257812 31.015625 -56.199219 C 31.074219 -56.082031 31.074219 -56.023438 30.957031 -56.023438 C 30.839844 -56.023438 30.78125 -55.847656 30.78125 -55.730469 C 30.78125 -55.617188 30.664062 -55.5 30.546875 -55.5 C 30.429688 -55.5 30.371094 -55.265625 30.371094 -55.089844 C 30.488281 -54.214844 30.371094 -53.867188 30.140625 -53.867188 C 29.964844 -53.867188 29.847656 -53.75 29.90625 -53.574219 C 29.964844 -53.402344 29.789062 -52.875 29.5 -52.351562 C 29.148438 -51.652344 29.089844 -51.359375 29.265625 -51.183594 C 29.382812 -51.070312 29.324219 -50.953125 29.148438 -50.835938 C 28.972656 -50.71875 28.800781 -50.542969 28.800781 -50.425781 C 28.800781 -50.3125 28.683594 -50.078125 28.566406 -49.960938 C 28.390625 -49.84375 28.273438 -49.609375 28.390625 -49.554688 C 28.449219 -49.378906 28.273438 -48.96875 28.097656 -48.621094 C 27.925781 -48.269531 27.75 -47.863281 27.75 -47.746094 C 27.75 -47.6875 27.457031 -46.988281 27.109375 -46.347656 C 26.523438 -45.0625 26.117188 -43.78125 26.410156 -43.78125 C 26.523438 -43.78125 26.46875 -43.605469 26.351562 -43.375 C 26.234375 -43.140625 26.175781 -42.847656 26.117188 -42.671875 C 26.058594 -42.265625 25.652344 -41.390625 25.242188 -41.042969 C 24.953125 -40.808594 24.953125 -40.75 25.183594 -40.75 C 25.59375 -40.75 25.59375 -40.574219 25.125 -40.050781 C 24.953125 -39.757812 24.777344 -39.351562 24.777344 -39.117188 C 24.777344 -38.824219 24.71875 -38.59375 24.601562 -38.59375 C 24.542969 -38.59375 24.367188 -38.59375 24.195312 -38.476562 Z M 24.777344 -36.496094 C 24.542969 -36.496094 24.542969 -36.609375 24.777344 -36.726562 C 24.894531 -36.785156 24.953125 -36.785156 24.953125 -36.667969 C 24.953125 -36.550781 24.894531 -36.496094 24.777344 -36.496094 Z M 25.125 -38.066406 C 25.125 -38.183594 25.242188 -38.242188 25.300781 -38.242188 C 25.417969 -38.242188 25.476562 -38.242188 25.476562 -38.183594 C 25.476562 -38.125 25.417969 -38.066406 25.300781 -38.011719 C 25.242188 -37.953125 25.125 -37.953125 25.125 -38.066406 Z M 29.265625 -35.792969 C 29.089844 -35.792969 28.972656 -35.792969 29.03125 -35.851562 C 29.089844 -35.96875 29.265625 -35.96875 29.382812 -35.910156 C 29.5 -35.792969 29.5 -35.792969 29.265625 -35.792969 Z M 34.164062 -36.496094 C 34.105469 -36.378906 33.988281 -36.320312 33.929688 -36.320312 C 33.8125 -36.320312 33.753906 -36.378906 33.753906 -36.496094 C 33.753906 -36.550781 33.871094 -36.667969 33.988281 -36.667969 C 34.164062 -36.667969 34.21875 -36.550781 34.164062 -36.496094 Z M 39.699219 -37.019531 C 39.46875 -37.136719 39.46875 -37.195312 39.757812 -37.195312 C 39.875 -37.195312 40.109375 -37.136719 40.109375 -37.019531 C 40.285156 -36.785156 40.050781 -36.785156 39.699219 -37.019531 Z M 48.738281 -38.417969 C 48.445312 -38.242188 46.753906 -38.011719 46.988281 -38.242188 C 47.046875 -38.359375 47.570312 -38.476562 48.039062 -38.535156 C 48.621094 -38.59375 48.796875 -38.59375 48.738281 -38.417969 Z M 52.175781 -39.527344 C 51.941406 -39.585938 51.769531 -39.585938 51.769531 -39.527344 C 51.769531 -39.351562 50.601562 -39.175781 47.570312 -38.882812 C 46.988281 -38.824219 46.464844 -38.769531 46.347656 -38.710938 C 46.289062 -38.652344 45.820312 -38.59375 45.296875 -38.535156 C 43.722656 -38.359375 39.875 -37.894531 38.476562 -37.71875 C 37.777344 -37.660156 36.550781 -37.484375 35.738281 -37.367188 C 34.976562 -37.308594 34.105469 -37.136719 33.753906 -37.078125 C 33.460938 -36.960938 33.230469 -36.902344 33.171875 -36.960938 C 33.113281 -36.960938 31.832031 -36.785156 30.199219 -36.550781 C 28.625 -36.320312 26.875 -36.085938 26.351562 -36.027344 C 25.535156 -35.910156 25.476562 -35.96875 25.535156 -36.203125 C 25.652344 -36.378906 25.59375 -36.609375 25.476562 -36.726562 C 25.359375 -36.960938 25.417969 -37.019531 25.765625 -37.136719 C 26 -37.136719 26.175781 -37.308594 26.175781 -37.484375 C 26.175781 -37.601562 26.351562 -37.71875 26.523438 -37.71875 C 26.699219 -37.71875 26.757812 -37.660156 26.582031 -37.542969 C 26.117188 -37.308594 26.699219 -37.136719 27.75 -37.308594 C 28.273438 -37.484375 29.324219 -37.660156 30.140625 -37.71875 C 30.957031 -37.835938 31.773438 -38.066406 32.003906 -38.125 C 32.238281 -38.242188 32.589844 -38.300781 32.820312 -38.242188 C 33.230469 -38.242188 35.503906 -38.476562 38.011719 -38.882812 C 38.882812 -39 40.109375 -39.175781 40.75 -39.234375 C 41.390625 -39.292969 42.265625 -39.410156 42.789062 -39.527344 C 43.257812 -39.585938 44.132812 -39.699219 44.714844 -39.757812 C 45.355469 -39.816406 45.9375 -39.875 45.996094 -39.933594 C 46.113281 -39.992188 46.8125 -40.109375 47.570312 -40.109375 C 48.269531 -40.167969 49.320312 -40.285156 49.84375 -40.398438 C 50.367188 -40.457031 51.183594 -40.574219 51.710938 -40.574219 C 52.585938 -40.574219 52.644531 -40.574219 52.644531 -40.050781 C 52.644531 -39.527344 52.527344 -39.527344 52.175781 -39.527344 Z M 60.453125 -52.117188 C 60.511719 -52 60.628906 -51.886719 60.511719 -51.828125 C 60.453125 -51.710938 60.222656 -51.941406 60.222656 -52.117188 C 60.222656 -52.292969 60.28125 -52.292969 60.453125 -52.117188 Z M 58.765625 -48.621094 C 58.878906 -48.679688 58.9375 -48.5625 58.9375 -48.210938 C 58.9375 -47.570312 58.878906 -47.511719 58.707031 -48.039062 C 58.648438 -48.269531 58.707031 -48.445312 58.765625 -48.621094 Z M 56.898438 -39.527344 C 56.957031 -39.527344 57.074219 -39.410156 57.074219 -39.351562 C 57.074219 -39.234375 56.957031 -39.175781 56.898438 -39.175781 C 56.78125 -39.175781 56.722656 -39.234375 56.722656 -39.351562 C 56.722656 -39.410156 56.78125 -39.527344 56.898438 -39.527344 Z M 55.847656 -38.125 C 55.847656 -37.953125 54.972656 -36.902344 54.972656 -37.078125 C 54.972656 -37.308594 55.5 -38.242188 55.675781 -38.242188 C 55.789062 -38.242188 55.847656 -38.242188 55.847656 -38.125 Z M 55.265625 -42.148438 C 55.382812 -42.148438 55.558594 -42.148438 55.675781 -42.148438 C 55.847656 -42.089844 55.730469 -42.03125 55.5 -42.03125 C 55.265625 -42.03125 55.148438 -42.089844 55.265625 -42.148438 Z M 54.625 -42.847656 C 54.800781 -43.023438 54.917969 -43.140625 54.972656 -43.023438 C 55.089844 -42.964844 55.148438 -42.847656 55.03125 -42.671875 C 54.972656 -42.617188 54.800781 -42.5 54.683594 -42.5 C 54.449219 -42.5 54.449219 -42.558594 54.625 -42.847656 Z M 54.332031 -41.972656 C 54.390625 -42.089844 54.566406 -42.148438 54.683594 -42.148438 C 54.859375 -42.148438 54.917969 -42.089844 54.859375 -41.972656 C 54.800781 -41.914062 54.625 -41.800781 54.507812 -41.800781 C 54.332031 -41.800781 54.273438 -41.914062 54.332031 -41.972656 Z M 54.972656 -40.925781 C 55.265625 -40.925781 55.5 -40.808594 55.5 -40.75 C 55.5 -40.632812 55.382812 -40.574219 55.324219 -40.574219 C 55.207031 -40.574219 55.148438 -40.457031 55.207031 -40.285156 C 55.324219 -39.992188 54.972656 -39.757812 54.683594 -40.050781 C 54.449219 -40.226562 54.332031 -40.226562 54.101562 -39.933594 C 53.75 -39.640625 53.75 -39.640625 53.75 -39.875 C 53.75 -40.398438 54.390625 -40.925781 54.972656 -40.925781 Z M 53.050781 -41.972656 C 53.109375 -41.972656 53.226562 -41.914062 53.226562 -41.914062 C 53.226562 -41.859375 53.109375 -41.742188 53.050781 -41.742188 C 52.933594 -41.683594 52.875 -41.683594 52.875 -41.800781 C 52.875 -41.914062 52.933594 -41.972656 53.050781 -41.972656 Z M 53.226562 -40.109375 C 53.226562 -39.875 53.050781 -39.699219 52.992188 -39.699219 C 52.875 -39.699219 52.875 -39.816406 52.933594 -39.933594 C 52.992188 -40.109375 53.050781 -40.285156 53.050781 -40.398438 C 53.050781 -40.457031 53.109375 -40.574219 53.167969 -40.574219 C 53.226562 -40.574219 53.285156 -40.34375 53.226562 -40.109375 Z M 50.601562 -23.4375 C 50.195312 -22.269531 49.84375 -21.046875 49.84375 -20.695312 C 49.84375 -20.460938 49.667969 -19.644531 49.4375 -18.773438 C 48.910156 -16.847656 48.445312 -14.691406 48.09375 -12.417969 C 48.039062 -11.777344 47.921875 -11.191406 47.804688 -11.078125 C 47.628906 -10.84375 47.511719 -9.851562 47.335938 -7.578125 C 47.222656 -6.9375 47.164062 -6.355469 47.046875 -6.238281 C 46.988281 -6.179688 46.871094 -5.304688 46.871094 -4.371094 C 46.753906 -1.75 46.289062 -3.148438 46.289062 -5.886719 C 46.289062 -7.289062 46.289062 -7.402344 46.171875 -6.703125 C 46.113281 -6.296875 45.9375 -5.886719 45.9375 -5.769531 C 45.761719 -5.597656 45.996094 -8.046875 46.464844 -10.492188 C 46.695312 -11.71875 46.871094 -12.824219 46.871094 -12.824219 C 46.871094 -12.824219 47.046875 -12.882812 47.164062 -12.882812 C 47.453125 -12.882812 47.511719 -13.234375 47.222656 -13.292969 C 46.988281 -13.410156 47.394531 -15.039062 47.628906 -14.984375 C 47.746094 -14.925781 47.921875 -15.273438 47.921875 -15.625 C 48.09375 -16.265625 48.039062 -16.324219 47.863281 -15.972656 C 47.511719 -15.566406 47.511719 -15.855469 47.863281 -17.488281 C 48.152344 -18.945312 48.269531 -19.296875 48.5625 -19.296875 C 48.796875 -19.296875 49.085938 -19.878906 48.796875 -19.9375 C 48.738281 -19.996094 48.621094 -20.113281 48.621094 -20.230469 C 48.621094 -20.402344 48.738281 -20.460938 48.910156 -20.402344 C 49.027344 -20.347656 49.144531 -20.402344 49.144531 -20.519531 C 49.144531 -20.636719 49.085938 -20.695312 48.96875 -20.695312 C 48.738281 -20.695312 48.851562 -21.863281 49.320312 -23.667969 C 49.496094 -24.542969 49.785156 -25.476562 49.84375 -25.882812 C 49.960938 -26.292969 50.195312 -27.398438 50.367188 -28.273438 C 50.542969 -29.207031 50.835938 -30.257812 51.011719 -30.664062 C 51.125 -31.074219 51.300781 -31.832031 51.359375 -32.296875 C 51.417969 -32.703125 51.59375 -33.347656 51.710938 -33.578125 C 51.828125 -33.871094 51.941406 -34.21875 51.941406 -34.394531 C 51.941406 -34.570312 52.058594 -34.863281 52.117188 -35.035156 C 52.351562 -35.503906 53.050781 -37.660156 53.050781 -37.953125 C 53.050781 -38.183594 53.226562 -38.242188 53.808594 -38.242188 C 54.566406 -38.242188 54.625 -38.242188 54.449219 -37.777344 C 54.449219 -37.484375 54.332031 -37.195312 54.273438 -37.136719 C 54.160156 -37.019531 54.101562 -36.550781 53.984375 -36.027344 C 53.925781 -35.5625 53.808594 -35.09375 53.75 -34.976562 C 53.515625 -34.6875 52.875 -32.589844 52.585938 -31.074219 C 52.410156 -30.316406 52.234375 -29.558594 52.175781 -29.382812 C 51.941406 -29.03125 51.652344 -28.042969 51.535156 -27.285156 C 51.417969 -26.933594 51.300781 -26.292969 51.125 -25.824219 C 51.011719 -25.417969 50.894531 -24.835938 50.835938 -24.542969 C 50.777344 -24.195312 50.71875 -23.785156 50.601562 -23.4375 Z M 53.867188 -31.945312 C 53.75 -31.832031 53.632812 -31.714844 53.574219 -31.714844 C 53.34375 -31.714844 53.34375 -31.890625 53.574219 -32.238281 C 53.75 -32.53125 53.984375 -32.355469 53.867188 -31.945312 Z M 53.050781 -28.566406 C 53.050781 -28.449219 52.875 -28.332031 52.757812 -28.332031 C 52.585938 -28.332031 52.527344 -28.390625 52.527344 -28.566406 C 52.644531 -28.855469 53.050781 -28.914062 53.050781 -28.566406 Z M 51.769531 -23.902344 C 51.769531 -23.785156 51.710938 -23.726562 51.59375 -23.726562 C 51.535156 -23.726562 51.417969 -23.785156 51.417969 -23.902344 C 51.417969 -23.960938 51.535156 -24.078125 51.59375 -24.078125 C 51.710938 -24.078125 51.769531 -23.960938 51.769531 -23.902344 Z M 51.417969 -22.675781 C 51.417969 -22.5625 51.417969 -22.503906 51.359375 -22.503906 C 51.300781 -22.503906 51.242188 -22.5625 51.183594 -22.675781 C 51.125 -22.734375 51.125 -22.851562 51.242188 -22.851562 C 51.359375 -22.851562 51.417969 -22.734375 51.417969 -22.675781 Z M 56.199219 -32.238281 C 55.964844 -32.238281 55.964844 -32.355469 56.199219 -32.472656 C 56.257812 -32.53125 56.375 -32.53125 56.375 -32.414062 C 56.375 -32.296875 56.257812 -32.238281 56.199219 -32.238281 Z M 57.074219 -38.011719 C 56.957031 -37.953125 56.898438 -37.71875 56.898438 -37.542969 C 56.898438 -37.195312 56.839844 -37.078125 56.316406 -36.027344 C 56.140625 -35.621094 56.023438 -35.152344 56.023438 -34.921875 C 56.023438 -34.628906 55.90625 -34.335938 55.847656 -34.21875 C 55.675781 -34.164062 55.617188 -33.871094 55.617188 -33.636719 C 55.558594 -33.40625 55.5 -33.054688 55.324219 -32.878906 C 55.265625 -32.648438 55.089844 -31.945312 54.972656 -31.363281 C 54.859375 -30.722656 54.625 -29.90625 54.449219 -29.558594 C 54.214844 -29.265625 54.101562 -28.800781 54.101562 -28.566406 C 54.101562 -28.390625 53.984375 -28.15625 53.925781 -28.097656 C 53.75 -28.042969 53.632812 -27.75 53.574219 -27.339844 C 53.402344 -25.824219 53.34375 -25.300781 53.167969 -25.066406 C 53.109375 -24.953125 52.933594 -24.367188 52.875 -23.785156 C 52.699219 -23.144531 52.527344 -22.675781 52.46875 -22.675781 C 52.351562 -22.675781 52.351562 -22.445312 52.351562 -22.09375 C 52.351562 -21.863281 52.234375 -21.394531 52.175781 -21.160156 C 52.058594 -20.929688 51.941406 -20.289062 51.941406 -19.820312 C 51.886719 -19.296875 51.769531 -18.832031 51.652344 -18.773438 C 51.59375 -18.714844 51.417969 -18.421875 51.359375 -18.1875 C 51.242188 -17.898438 51.070312 -17.664062 50.953125 -17.664062 C 50.777344 -17.664062 50.71875 -17.839844 50.835938 -18.1875 C 50.894531 -18.421875 50.953125 -18.832031 51.011719 -19.003906 C 51.011719 -19.179688 51.125 -19.820312 51.300781 -20.347656 C 51.476562 -20.871094 51.652344 -21.570312 51.710938 -21.863281 C 51.769531 -22.152344 51.941406 -22.734375 52.058594 -23.203125 C 52.175781 -23.609375 52.351562 -24.136719 52.351562 -24.308594 C 52.351562 -24.484375 52.46875 -25.007812 52.585938 -25.417969 C 52.699219 -25.941406 52.933594 -26.816406 53.109375 -27.457031 C 53.226562 -28.042969 53.574219 -29.441406 53.925781 -30.429688 C 54.625 -32.996094 54.683594 -33.230469 54.332031 -33.460938 C 54.214844 -33.578125 54.101562 -33.8125 54.101562 -33.871094 C 54.101562 -33.988281 54.214844 -33.929688 54.449219 -33.753906 C 54.800781 -33.40625 54.800781 -33.40625 55.148438 -34.6875 C 55.265625 -35.269531 55.441406 -35.792969 55.5 -35.851562 C 55.617188 -35.96875 55.675781 -36.144531 55.675781 -36.320312 C 55.675781 -36.4375 55.847656 -36.960938 56.023438 -37.484375 C 56.375 -38.242188 56.492188 -38.417969 56.839844 -38.417969 C 57.25 -38.417969 57.363281 -38.183594 57.074219 -38.011719 Z M 57.480469 -40.285156 C 57.074219 -40.167969 57.015625 -40.167969 57.132812 -40.457031 C 57.191406 -40.632812 57.25 -40.808594 57.25 -40.925781 C 57.25 -41.042969 57.363281 -41.101562 57.480469 -41.101562 C 57.832031 -41.101562 57.832031 -40.457031 57.480469 -40.285156 Z M 57.949219 -42.148438 C 57.65625 -42.148438 57.539062 -42.207031 57.714844 -42.382812 C 57.890625 -42.558594 58.007812 -42.558594 58.179688 -42.382812 C 58.355469 -42.207031 58.238281 -42.148438 57.949219 -42.148438 Z M 61.621094 -41.273438 C 61.621094 -41.214844 61.503906 -41.042969 61.386719 -41.042969 C 60.804688 -40.808594 59.347656 -40.808594 59.40625 -40.925781 C 59.464844 -41.042969 59.8125 -41.101562 60.105469 -41.101562 C 60.453125 -41.101562 60.804688 -41.214844 60.804688 -41.273438 C 60.980469 -41.507812 61.621094 -41.507812 61.621094 -41.273438 Z M 60.628906 -42.5 C 61.039062 -42.617188 61.445312 -42.617188 61.503906 -42.5 C 61.621094 -42.382812 61.328125 -42.324219 60.804688 -42.324219 L 59.929688 -42.382812 Z M 72.230469 -78.117188 C 71.9375 -77.652344 71.824219 -77.1875 71.878906 -77.1875 C 71.9375 -77.128906 71.824219 -76.777344 71.589844 -76.429688 C 71.414062 -76.019531 71.066406 -75.320312 70.832031 -74.738281 C 70.597656 -74.210938 70.308594 -73.6875 70.191406 -73.628906 C 70.132812 -73.628906 70.015625 -73.398438 70.015625 -73.222656 C 70.015625 -72.695312 69.316406 -71.238281 69.082031 -71.066406 C 68.90625 -70.949219 68.792969 -70.65625 68.792969 -70.421875 C 68.792969 -70.132812 68.617188 -69.664062 68.441406 -69.375 C 68.265625 -69.023438 68.089844 -68.617188 68.089844 -68.5 C 68.089844 -68.441406 67.859375 -67.859375 67.566406 -67.332031 C 67.273438 -66.75 67.042969 -66.109375 67.042969 -65.875 C 67.042969 -65.703125 66.808594 -65.117188 66.515625 -64.535156 C 66.226562 -64.070312 65.933594 -63.253906 65.816406 -62.785156 C 65.644531 -61.910156 65.46875 -61.503906 64.886719 -60.394531 C 64.710938 -60.046875 64.59375 -59.695312 64.59375 -59.578125 C 64.59375 -59.40625 64.417969 -59.113281 64.242188 -58.820312 C 64.011719 -58.414062 63.835938 -58.0625 63.835938 -57.480469 C 63.894531 -57.074219 63.835938 -56.664062 63.71875 -56.605469 C 63.484375 -56.492188 62.84375 -54.972656 62.84375 -54.566406 C 62.84375 -54.390625 62.785156 -54.160156 62.667969 -54.160156 C 62.613281 -54.101562 62.496094 -53.925781 62.496094 -53.808594 C 62.496094 -53.632812 62.320312 -53.226562 62.085938 -52.875 C 61.855469 -52.527344 61.679688 -52.117188 61.679688 -52 C 61.679688 -51.59375 61.152344 -50.253906 60.980469 -50.078125 C 60.863281 -50.019531 60.921875 -49.902344 61.097656 -49.785156 C 61.269531 -49.667969 61.269531 -49.554688 60.980469 -49.261719 C 60.746094 -49.027344 60.453125 -48.445312 60.28125 -48.039062 C 60.105469 -47.511719 59.929688 -47.046875 59.753906 -46.929688 C 59.636719 -46.8125 59.578125 -46.695312 59.578125 -46.578125 C 59.636719 -46.519531 59.636719 -46.289062 59.578125 -46.113281 C 59.464844 -45.9375 59.230469 -45.355469 59.054688 -44.773438 C 58.878906 -44.015625 58.707031 -43.78125 58.472656 -43.78125 C 58.121094 -43.78125 58.179688 -44.015625 58.648438 -45.238281 C 58.707031 -45.472656 58.820312 -45.9375 58.820312 -46.171875 C 58.820312 -46.40625 59.054688 -46.988281 59.347656 -47.570312 C 59.636719 -48.152344 59.871094 -48.796875 59.871094 -48.910156 C 59.871094 -49.027344 59.988281 -49.378906 60.105469 -49.554688 C 60.28125 -49.785156 60.453125 -50.136719 60.453125 -50.367188 C 60.453125 -50.601562 60.628906 -51.011719 60.746094 -51.242188 C 60.804688 -51.59375 61.152344 -52.527344 61.445312 -53.402344 C 61.738281 -54.332031 62.203125 -55.5 62.554688 -56.082031 C 63.136719 -57.304688 63.542969 -58.414062 63.542969 -58.878906 C 63.542969 -59.054688 63.71875 -59.40625 63.894531 -59.695312 C 64.070312 -59.929688 64.242188 -60.28125 64.242188 -60.453125 C 64.242188 -60.570312 64.359375 -61.039062 64.59375 -61.386719 C 65.410156 -63.136719 65.816406 -64.128906 65.816406 -64.359375 C 65.816406 -64.710938 68.089844 -69.839844 68.324219 -70.132812 C 68.382812 -70.191406 68.441406 -70.363281 68.441406 -70.539062 C 68.441406 -70.65625 68.90625 -71.707031 69.433594 -72.753906 C 70.539062 -75.144531 71.066406 -76.253906 71.066406 -76.484375 C 71.066406 -76.71875 72.640625 -79.925781 72.8125 -79.925781 C 72.929688 -79.925781 72.640625 -79.050781 72.230469 -78.117188 Z M 47.046875 -21.6875 C 47.277344 -22.152344 47.277344 -22.328125 47.046875 -22.210938 C 46.988281 -22.152344 46.871094 -21.917969 46.871094 -21.746094 C 46.929688 -21.335938 46.929688 -21.335938 47.046875 -21.6875 Z M 50.542969 -27.515625 C 50.484375 -27.457031 50.367188 -27.285156 50.367188 -27.109375 C 50.367188 -26.875 50.425781 -26.875 50.542969 -27.109375 C 50.777344 -27.457031 50.777344 -27.691406 50.542969 -27.515625 Z M 37.660156 -40.925781 C 37.71875 -41.042969 37.601562 -41.101562 37.308594 -41.101562 C 37.136719 -41.101562 36.84375 -41.042969 36.785156 -40.925781 C 36.785156 -40.808594 36.902344 -40.75 37.136719 -40.75 C 37.367188 -40.75 37.660156 -40.808594 37.660156 -40.925781 Z M 49.667969 -29.847656 C 49.667969 -30.140625 49.667969 -30.140625 49.496094 -29.847656 C 49.320312 -29.613281 49.144531 -29.5 49.027344 -29.5 C 48.910156 -29.558594 48.796875 -29.5 48.796875 -29.324219 C 48.796875 -29.03125 48.851562 -29.03125 49.203125 -29.265625 C 49.4375 -29.382812 49.667969 -29.671875 49.667969 -29.847656 Z M 48.621094 -28.042969 C 48.738281 -28.097656 48.796875 -28.214844 48.796875 -28.332031 C 48.796875 -28.449219 48.738281 -28.449219 48.621094 -28.390625 C 48.5625 -28.390625 48.445312 -28.214844 48.445312 -28.15625 C 48.445312 -28.042969 48.5625 -28.042969 48.621094 -28.042969 Z M 47.980469 -24.894531 C 48.039062 -24.953125 48.039062 -25.066406 47.980469 -25.242188 C 47.921875 -25.476562 47.863281 -25.476562 47.746094 -25.242188 C 47.6875 -25.125 47.570312 -25.007812 47.570312 -24.894531 C 47.570312 -24.71875 47.863281 -24.71875 47.980469 -24.894531 Z M 47.394531 -24.078125 C 47.394531 -23.960938 47.511719 -23.960938 47.570312 -23.960938 C 47.804688 -24.136719 47.804688 -24.25 47.570312 -24.25 C 47.511719 -24.25 47.394531 -24.136719 47.394531 -24.078125 Z M 51.417969 -38.066406 C 51.359375 -38.066406 51.242188 -37.953125 51.242188 -37.835938 C 51.242188 -37.660156 51.359375 -37.601562 51.417969 -37.660156 C 51.652344 -37.777344 51.652344 -38.066406 51.417969 -38.066406 Z M 51.417969 -35.96875 C 51.359375 -35.792969 51.242188 -35.621094 51.242188 -35.503906 C 51.242188 -35.445312 51.359375 -35.445312 51.417969 -35.621094 C 51.535156 -35.738281 51.59375 -35.96875 51.59375 -36.027344 C 51.59375 -36.144531 51.535156 -36.085938 51.417969 -35.96875 Z M 49.785156 -24.195312 C 49.726562 -24.25 49.667969 -24.136719 49.667969 -23.960938 C 49.726562 -23.785156 49.726562 -23.726562 49.84375 -23.84375 C 49.84375 -23.960938 49.84375 -24.136719 49.785156 -24.195312 Z M 51.769531 -31.421875 C 51.886719 -31.480469 51.941406 -31.714844 51.941406 -31.832031 C 51.941406 -32.121094 51.941406 -32.121094 51.769531 -31.890625 C 51.710938 -31.773438 51.59375 -31.539062 51.59375 -31.480469 C 51.59375 -31.363281 51.710938 -31.363281 51.769531 -31.421875 Z M 51.242188 -29.730469 C 51.359375 -29.730469 51.417969 -29.847656 51.417969 -29.90625 C 51.417969 -30.082031 51.359375 -30.082031 51.242188 -30.023438 C 51.183594 -29.964844 51.070312 -29.90625 51.070312 -29.847656 C 51.070312 -29.789062 51.183594 -29.730469 51.242188 -29.730469 Z M 51.070312 -28.800781 C 51.300781 -28.914062 51.300781 -29.207031 51.070312 -29.207031 C 51.011719 -29.207031 50.894531 -29.089844 50.894531 -28.972656 C 50.894531 -28.800781 51.011719 -28.742188 51.070312 -28.800781 Z M 50.195312 -33.578125 C 50.195312 -33.753906 50.195312 -33.929688 50.136719 -33.988281 C 50.078125 -33.988281 50.019531 -33.929688 50.019531 -33.753906 C 50.078125 -33.519531 50.078125 -33.460938 50.195312 -33.578125 Z M 50.195312 -31.421875 C 50.425781 -31.539062 50.425781 -31.714844 50.195312 -31.714844 C 50.136719 -31.714844 50.019531 -31.597656 50.019531 -31.539062 C 50.019531 -31.363281 50.136719 -31.363281 50.195312 -31.421875 Z M 37.367188 -40.109375 C 37.835938 -40.167969 38.359375 -40.285156 38.535156 -40.285156 C 38.710938 -40.34375 39.117188 -40.398438 39.351562 -40.398438 C 39.757812 -40.457031 39.757812 -40.457031 39.234375 -40.632812 C 38.710938 -40.75 38.59375 -40.75 38.476562 -40.574219 C 38.359375 -40.398438 38.125 -40.398438 37.660156 -40.457031 C 37.136719 -40.515625 36.902344 -40.457031 36.726562 -40.285156 C 36.550781 -40.109375 36.609375 -40.050781 37.367188 -40.109375 Z M 55.5 -49.261719 C 55.675781 -49.261719 55.847656 -49.960938 55.730469 -50.195312 C 55.558594 -50.484375 55.324219 -50.136719 55.324219 -49.726562 C 55.324219 -49.4375 55.382812 -49.261719 55.5 -49.261719 Z M 55.847656 -50.484375 C 55.90625 -50.484375 56.023438 -50.660156 56.023438 -50.777344 C 56.023438 -50.953125 55.90625 -51.011719 55.847656 -50.953125 C 55.730469 -50.894531 55.675781 -50.777344 55.675781 -50.660156 C 55.675781 -50.601562 55.730469 -50.484375 55.847656 -50.484375 Z M 54.972656 -46.753906 C 54.972656 -46.695312 55.03125 -46.578125 55.148438 -46.578125 C 55.207031 -46.578125 55.324219 -46.695312 55.324219 -46.753906 C 55.324219 -46.871094 55.207031 -46.929688 55.148438 -46.929688 C 55.03125 -46.929688 54.972656 -46.871094 54.972656 -46.753906 Z M 56.722656 -52.875 C 56.898438 -53.050781 56.898438 -53.34375 56.722656 -53.34375 C 56.605469 -53.34375 56.546875 -53.226562 56.546875 -53.050781 C 56.546875 -52.875 56.605469 -52.875 56.722656 -52.875 Z M 54.972656 -48.09375 C 55.148438 -48.269531 55.148438 -48.5625 54.972656 -48.5625 C 54.859375 -48.5625 54.800781 -48.445312 54.800781 -48.269531 C 54.800781 -48.09375 54.859375 -48.039062 54.972656 -48.09375 Z M 29.324219 -63.078125 C 29.441406 -63.078125 29.5 -63.253906 29.5 -63.371094 C 29.5 -63.542969 29.441406 -63.601562 29.324219 -63.542969 C 29.265625 -63.484375 29.148438 -63.371094 29.148438 -63.253906 C 29.148438 -63.195312 29.265625 -63.078125 29.324219 -63.078125 Z M 56.839844 -51.535156 C 56.605469 -51.710938 56.546875 -51.476562 56.433594 -50.835938 L 56.375 -50.253906 L 56.605469 -50.835938 C 56.78125 -51.125 56.898438 -51.417969 56.839844 -51.535156 Z M 56.082031 -49.378906 C 56.375 -49.726562 56.433594 -50.253906 56.199219 -50.078125 C 56.140625 -50.019531 56.023438 -49.726562 55.964844 -49.496094 C 55.847656 -49.027344 55.847656 -49.027344 56.082031 -49.378906 Z M 28.332031 -60.746094 C 28.625 -61.039062 28.855469 -61.039062 28.742188 -60.804688 C 28.683594 -60.6875 28.683594 -60.628906 28.800781 -60.628906 C 28.914062 -60.628906 28.972656 -60.746094 28.972656 -60.921875 C 28.972656 -61.039062 29.148438 -61.386719 29.324219 -61.5625 C 29.558594 -61.796875 29.558594 -61.855469 29.324219 -61.855469 C 29.148438 -61.855469 28.972656 -61.796875 28.972656 -61.679688 C 28.972656 -61.5625 28.800781 -61.386719 28.566406 -61.328125 C 28.332031 -61.210938 28.097656 -61.039062 28.097656 -60.863281 C 28.097656 -60.628906 28.15625 -60.570312 28.332031 -60.746094 Z M 24.777344 -48.386719 C 24.894531 -48.386719 24.953125 -48.5625 24.953125 -48.796875 C 24.953125 -49.085938 24.894531 -49.144531 24.777344 -48.910156 C 24.71875 -48.796875 24.601562 -48.621094 24.601562 -48.503906 C 24.601562 -48.445312 24.71875 -48.386719 24.777344 -48.386719 Z M 23.84375 -45.648438 C 23.960938 -45.9375 24.019531 -46.230469 23.960938 -46.230469 C 23.84375 -46.40625 23.550781 -45.820312 23.550781 -45.472656 C 23.550781 -45.179688 23.667969 -45.238281 23.84375 -45.648438 Z M 27.226562 -54.332031 C 27.339844 -54.332031 27.398438 -54.507812 27.339844 -54.566406 C 27.285156 -54.683594 27.167969 -54.742188 27.050781 -54.683594 C 26.992188 -54.625 26.933594 -54.507812 26.992188 -54.390625 C 27.050781 -54.332031 27.167969 -54.273438 27.226562 -54.332031 Z M 42.671875 -41.566406 C 42.671875 -41.507812 42.90625 -41.507812 43.140625 -41.566406 C 43.546875 -41.683594 43.605469 -41.625 43.429688 -41.449219 C 43.316406 -41.332031 43.199219 -41.15625 43.199219 -41.042969 C 43.199219 -40.925781 43.839844 -40.984375 46.347656 -41.214844 C 46.871094 -41.332031 47.335938 -41.449219 47.394531 -41.566406 C 47.453125 -41.859375 46.871094 -41.914062 46.578125 -41.625 C 46.464844 -41.507812 46.289062 -41.507812 45.996094 -41.566406 C 45.589844 -41.742188 45.648438 -41.742188 46.347656 -41.914062 C 47.046875 -42.148438 48.796875 -42.382812 49.4375 -42.441406 C 49.496094 -42.441406 49.609375 -42.5 49.609375 -42.617188 C 49.609375 -42.789062 49.667969 -42.789062 46.464844 -42.441406 C 43.957031 -42.148438 42.671875 -41.859375 42.671875 -41.566406 Z M 44.949219 -41.800781 C 45.414062 -41.742188 45.472656 -41.683594 45.296875 -41.566406 C 45.0625 -41.390625 43.898438 -41.273438 43.839844 -41.449219 C 43.664062 -41.683594 44.363281 -41.914062 44.949219 -41.800781 Z M 27.925781 -58.472656 C 28.097656 -58.472656 28.507812 -59.871094 28.449219 -60.105469 C 28.332031 -60.28125 28.332031 -60.164062 28.273438 -59.929688 C 28.273438 -59.753906 28.15625 -59.523438 28.042969 -59.40625 C 27.925781 -59.347656 27.75 -59.171875 27.75 -58.9375 C 27.75 -58.648438 27.867188 -58.472656 27.925781 -58.472656 Z M 48.445312 -41.972656 C 48.269531 -41.972656 48.09375 -41.914062 48.039062 -41.800781 C 47.980469 -41.742188 48.152344 -41.625 48.445312 -41.625 C 48.796875 -41.625 48.96875 -41.742188 48.910156 -41.800781 C 48.851562 -41.914062 48.621094 -41.972656 48.445312 -41.972656 Z M 27.925781 -58.121094 C 27.925781 -58.355469 27.050781 -58.238281 26.933594 -58.007812 C 26.875 -57.890625 27.050781 -57.773438 27.226562 -57.714844 C 27.515625 -57.65625 27.925781 -57.890625 27.925781 -58.121094 Z M 29.964844 -63.078125 C 30.082031 -62.960938 30.199219 -63.136719 30.371094 -63.777344 C 30.546875 -64.1875 30.722656 -64.652344 30.78125 -64.710938 C 30.957031 -64.828125 31.304688 -65.527344 31.304688 -65.703125 C 31.304688 -65.816406 31.1875 -65.757812 31.132812 -65.644531 C 31.015625 -65.46875 30.957031 -65.410156 30.839844 -65.585938 C 30.78125 -65.644531 30.957031 -65.875 31.1875 -65.933594 C 31.597656 -66.050781 31.65625 -66.167969 31.480469 -66.460938 C 31.246094 -66.867188 30.957031 -66.75 30.957031 -66.34375 C 30.957031 -66.050781 30.898438 -66.050781 30.78125 -66.285156 C 30.605469 -66.515625 30.546875 -66.515625 30.546875 -66.226562 C 30.546875 -66.050781 30.488281 -65.933594 30.371094 -65.933594 C 30.316406 -65.933594 30.199219 -65.875 30.199219 -65.757812 C 30.199219 -65.644531 30.316406 -65.644531 30.371094 -65.644531 C 30.605469 -65.816406 30.546875 -65.46875 30.023438 -64.128906 C 29.847656 -63.484375 29.789062 -63.253906 29.90625 -63.078125 Z M 59.40625 -58.414062 C 59.464844 -58.589844 59.40625 -58.648438 59.347656 -58.589844 C 59.230469 -58.53125 59.171875 -58.414062 59.171875 -58.296875 C 59.171875 -58.0625 59.289062 -58.0625 59.40625 -58.414062 Z M 58.648438 -58.296875 C 58.707031 -58.296875 58.820312 -58.414062 58.820312 -58.472656 C 58.820312 -58.648438 58.707031 -58.648438 58.648438 -58.589844 C 58.53125 -58.53125 58.472656 -58.414062 58.472656 -58.414062 C 58.472656 -58.355469 58.53125 -58.296875 58.648438 -58.296875 Z M 58.472656 -57.773438 C 58.53125 -57.773438 58.648438 -57.890625 58.648438 -57.949219 C 58.648438 -58.0625 58.53125 -58.121094 58.472656 -58.121094 C 58.355469 -58.121094 58.296875 -58.0625 58.296875 -57.949219 C 58.296875 -57.890625 58.355469 -57.773438 58.472656 -57.773438 Z M 60.394531 -62.378906 C 60.453125 -62.378906 60.570312 -62.496094 60.628906 -62.667969 C 60.6875 -62.84375 60.628906 -62.902344 60.453125 -62.902344 C 60.339844 -62.902344 60.222656 -62.785156 60.222656 -62.667969 C 60.222656 -62.496094 60.28125 -62.378906 60.394531 -62.378906 Z M 29.847656 -61.039062 C 29.847656 -60.980469 30.023438 -61.039062 30.140625 -61.210938 C 30.257812 -61.386719 30.371094 -61.5625 30.316406 -61.679688 C 30.199219 -61.796875 29.847656 -61.328125 29.847656 -61.039062 Z M 59.347656 -59.929688 C 59.464844 -60.164062 59.695312 -60.6875 59.871094 -61.039062 C 60.28125 -61.738281 60.28125 -61.855469 60.046875 -61.855469 C 59.8125 -61.855469 59.347656 -60.746094 59.230469 -59.988281 C 59.171875 -59.464844 59.171875 -59.464844 59.347656 -59.929688 Z M 29.324219 -62.496094 C 29.324219 -62.320312 29.441406 -62.261719 29.613281 -62.320312 C 29.730469 -62.378906 29.847656 -62.496094 29.730469 -62.667969 C 29.671875 -62.960938 29.324219 -62.84375 29.324219 -62.496094 Z M 59.523438 -59.289062 C 59.40625 -59.230469 59.347656 -59.113281 59.347656 -58.996094 C 59.347656 -58.878906 59.40625 -58.878906 59.523438 -58.9375 C 59.578125 -58.996094 59.695312 -59.113281 59.695312 -59.171875 C 59.695312 -59.347656 59.578125 -59.347656 59.523438 -59.289062 Z M 22.792969 -43.140625 C 22.96875 -43.023438 23.203125 -43.429688 23.203125 -43.722656 C 23.203125 -43.839844 23.144531 -43.957031 23.027344 -43.957031 C 22.851562 -43.957031 22.675781 -43.257812 22.792969 -43.140625 Z M 27.925781 -56.722656 C 27.867188 -56.605469 27.75 -56.375 27.75 -56.257812 C 27.75 -56.199219 27.867188 -56.199219 27.925781 -56.375 C 28.042969 -56.492188 28.097656 -56.722656 28.097656 -56.78125 C 28.097656 -56.898438 28.042969 -56.839844 27.925781 -56.722656 Z M 28.625 -58.414062 C 28.566406 -58.355469 28.449219 -58.121094 28.449219 -58.007812 C 28.449219 -57.714844 28.507812 -57.714844 28.742188 -58.0625 C 28.972656 -58.414062 28.972656 -58.648438 28.625 -58.414062 Z M 39.234375 -41.214844 C 39.585938 -41.449219 39.585938 -41.449219 39.234375 -41.449219 C 38.710938 -41.449219 38.300781 -41.273438 38.359375 -41.101562 C 38.535156 -40.808594 38.882812 -40.867188 39.234375 -41.214844 Z M 30.546875 -62.667969 C 30.488281 -62.613281 30.371094 -62.496094 30.371094 -62.378906 C 30.371094 -62.144531 30.546875 -62.144531 30.664062 -62.496094 C 30.722656 -62.667969 30.664062 -62.726562 30.546875 -62.667969 Z M 30.546875 -63.019531 C 30.546875 -62.960938 30.664062 -62.902344 30.78125 -62.902344 C 30.957031 -62.902344 31.132812 -63.835938 31.015625 -63.953125 C 30.957031 -64.011719 30.546875 -63.253906 30.546875 -63.019531 Z M 58.355469 -57.363281 C 58.179688 -57.539062 58.007812 -57.191406 57.832031 -56.546875 L 57.773438 -55.90625 L 58.121094 -56.605469 C 58.355469 -56.957031 58.472656 -57.304688 58.355469 -57.363281 Z M 57.25 -54.390625 C 57.304688 -54.390625 57.421875 -54.566406 57.421875 -54.683594 C 57.421875 -54.859375 57.304688 -54.917969 57.25 -54.859375 C 57.132812 -54.800781 57.074219 -54.683594 57.074219 -54.566406 C 57.074219 -54.507812 57.132812 -54.390625 57.25 -54.390625 Z M 28.15625 -39.117188 C 28.097656 -39 27.925781 -39 27.75 -39.058594 C 27.574219 -39.117188 27.398438 -39.117188 27.398438 -39 C 27.398438 -38.882812 27.285156 -38.769531 27.109375 -38.769531 C 26.292969 -38.535156 28.097656 -38.652344 30.371094 -39 C 32.878906 -39.351562 33.40625 -39.527344 33.054688 -39.757812 C 32.9375 -39.816406 32.878906 -39.816406 32.878906 -39.699219 C 32.878906 -39.640625 32.589844 -39.585938 32.296875 -39.585938 C 32.003906 -39.640625 31.65625 -39.527344 31.480469 -39.46875 C 31.363281 -39.351562 31.304688 -39.351562 31.304688 -39.46875 C 31.304688 -39.699219 30.082031 -39.527344 29.789062 -39.351562 C 29.671875 -39.234375 29.324219 -39.175781 28.972656 -39.234375 C 28.566406 -39.234375 28.273438 -39.175781 28.15625 -39.117188 Z M 56.375 -45.355469 C 56.375 -45.472656 56.257812 -45.472656 56.199219 -45.472656 C 56.082031 -45.414062 56.023438 -45.296875 56.023438 -45.296875 C 56.023438 -45.238281 56.082031 -45.179688 56.199219 -45.179688 C 56.257812 -45.179688 56.375 -45.296875 56.375 -45.355469 Z M 36.261719 -40.867188 C 36.203125 -41.101562 33.40625 -40.632812 33.113281 -40.398438 C 32.996094 -40.226562 33.054688 -40.226562 33.578125 -40.285156 C 33.929688 -40.34375 34.570312 -40.457031 35.035156 -40.515625 C 36.144531 -40.632812 36.4375 -40.691406 36.261719 -40.867188 Z M 30.199219 -39.875 C 30.429688 -39.992188 30.429688 -40.050781 30.140625 -40.050781 C 29.613281 -40.109375 29.265625 -40.050781 29.089844 -39.875 C 28.855469 -39.640625 29.847656 -39.640625 30.199219 -39.875 Z M 33.8125 -39.699219 C 33.871094 -39.585938 33.988281 -39.527344 34.105469 -39.585938 C 34.21875 -39.699219 34.21875 -39.757812 34.105469 -39.875 C 33.753906 -40.050781 33.636719 -39.933594 33.8125 -39.699219 Z M 34.804688 -39.875 C 34.804688 -39.640625 34.804688 -39.640625 35.445312 -39.875 C 35.792969 -39.992188 35.851562 -40.109375 35.679688 -40.226562 C 35.386719 -40.398438 34.804688 -40.109375 34.804688 -39.875 Z M 56.023438 -44.890625 C 55.90625 -44.890625 55.847656 -44.714844 55.847656 -44.539062 C 55.847656 -44.363281 55.90625 -44.363281 56.023438 -44.363281 C 56.082031 -44.421875 56.199219 -44.597656 56.199219 -44.714844 C 56.199219 -44.890625 56.082031 -44.949219 56.023438 -44.890625 Z M 58.53125 -52.351562 C 58.414062 -52.175781 58.296875 -51.941406 58.296875 -51.769531 C 58.296875 -51.59375 58.648438 -51.476562 58.648438 -51.710938 C 58.648438 -51.769531 58.707031 -52 58.707031 -52.292969 C 58.878906 -52.699219 58.820312 -52.699219 58.53125 -52.351562 Z M 60.222656 -56.78125 C 60.105469 -56.78125 60.046875 -56.605469 60.046875 -56.546875 C 60.046875 -56.433594 60.105469 -56.375 60.222656 -56.375 C 60.28125 -56.375 60.394531 -56.492188 60.394531 -56.605469 C 60.394531 -56.78125 60.28125 -56.839844 60.222656 -56.78125 Z M 59.523438 -55.207031 C 59.523438 -55.03125 59.578125 -54.972656 59.695312 -55.03125 C 59.929688 -55.148438 59.929688 -55.5 59.695312 -55.5 C 59.578125 -55.5 59.523438 -55.324219 59.523438 -55.207031 Z M 31.480469 -39.875 C 32.355469 -40.050781 32.648438 -40.109375 32.472656 -40.285156 C 32.296875 -40.457031 30.546875 -40.226562 30.546875 -39.992188 C 30.546875 -39.875 30.898438 -39.875 31.480469 -39.875 Z M 57.832031 -50.601562 C 57.714844 -50.367188 57.597656 -50.078125 57.597656 -49.785156 C 57.65625 -49.378906 57.65625 -49.378906 57.832031 -49.902344 C 58.179688 -50.660156 58.179688 -51.011719 57.832031 -50.601562 Z M 57.074219 -48.09375 C 56.957031 -48.039062 56.898438 -47.921875 56.898438 -47.863281 C 56.898438 -47.746094 56.957031 -47.6875 57.074219 -47.6875 C 57.132812 -47.6875 57.25 -47.804688 57.25 -47.921875 C 57.25 -48.09375 57.132812 -48.152344 57.074219 -48.09375 Z M 57.074219 -48.09375 "/></g></g></g><g fill="#c5a1da" fill-opacity="1"><g transform="translate(75.138821, 112.986693)"><g/></g></g><g fill="#c5a1da" fill-opacity="1"><g transform="translate(86.79461, 112.986693)"><g/></g></g><g fill="#fabec0" fill-opacity="1"><g transform="translate(79.187433, 114.103246)"><g><path d="M 9.019531 -7.867188 C 8.019531 -8.769531 6.765625 -9.371094 5.863281 -9.371094 C 4.058594 -9.371094 2.65625 -8.871094 1.351562 -7.816406 C 0.75 -7.367188 0.148438 -4.660156 0.550781 -4.007812 C 1.152344 -2.855469 1.753906 -2.054688 2.355469 -1.703125 C 2.707031 -1.453125 3.058594 -1.253906 3.105469 -1.253906 C 3.207031 -1.253906 3.40625 -1.101562 3.660156 -0.953125 C 3.859375 -0.800781 4.359375 -0.550781 4.761719 -0.351562 C 5.160156 -0.199219 5.863281 -0.0507812 6.265625 -0.0507812 C 6.964844 -0.0507812 7.066406 -0.101562 8.21875 -1.050781 L 9.371094 -2.054688 L 9.921875 -3.660156 C 10.375 -5.113281 10.425781 -5.261719 10.273438 -5.863281 C 9.921875 -6.816406 9.671875 -7.214844 9.019531 -7.867188 Z M 9.019531 -7.867188 "/></g></g></g></svg>